%TF.GenerationSoftware,KiCad,Pcbnew,(5.1.6)-1*%
%TF.CreationDate,2020-06-14T06:25:32-07:00*%
%TF.ProjectId,pcb,7063622e-6b69-4636-9164-5f7063625858,rev?*%
%TF.SameCoordinates,Original*%
%TF.FileFunction,Legend,Bot*%
%TF.FilePolarity,Positive*%
%FSLAX46Y46*%
G04 Gerber Fmt 4.6, Leading zero omitted, Abs format (unit mm)*
G04 Created by KiCad (PCBNEW (5.1.6)-1) date 2020-06-14 06:25:32*
%MOMM*%
%LPD*%
G01*
G04 APERTURE LIST*
%ADD10C,0.120000*%
%ADD11C,0.150000*%
G04 APERTURE END LIST*
D10*
%TO.C,pi1*%
X105000000Y-126330000D02*
X106330000Y-126330000D01*
X106330000Y-126330000D02*
X106330000Y-125000000D01*
X103730000Y-126330000D02*
X103730000Y-123730000D01*
X103730000Y-123730000D02*
X106330000Y-123730000D01*
X106330000Y-123730000D02*
X106330000Y-75410000D01*
X101130000Y-75410000D02*
X106330000Y-75410000D01*
X101130000Y-126330000D02*
X101130000Y-75410000D01*
X101130000Y-126330000D02*
X103730000Y-126330000D01*
D11*
X104658571Y-127555714D02*
X104658571Y-128555714D01*
X104658571Y-127603333D02*
X104563333Y-127555714D01*
X104372857Y-127555714D01*
X104277619Y-127603333D01*
X104230000Y-127650952D01*
X104182380Y-127746190D01*
X104182380Y-128031904D01*
X104230000Y-128127142D01*
X104277619Y-128174761D01*
X104372857Y-128222380D01*
X104563333Y-128222380D01*
X104658571Y-128174761D01*
X103753809Y-128222380D02*
X103753809Y-127555714D01*
X103753809Y-127222380D02*
X103801428Y-127270000D01*
X103753809Y-127317619D01*
X103706190Y-127270000D01*
X103753809Y-127222380D01*
X103753809Y-127317619D01*
X102753809Y-128222380D02*
X103325238Y-128222380D01*
X103039523Y-128222380D02*
X103039523Y-127222380D01*
X103134761Y-127365238D01*
X103230000Y-127460476D01*
X103325238Y-127508095D01*
%TD*%
M02*
