%TF.GenerationSoftware,KiCad,Pcbnew,(5.1.6)-1*%
%TF.CreationDate,2020-06-14T06:25:32-07:00*%
%TF.ProjectId,pcb,7063622e-6b69-4636-9164-5f7063625858,rev?*%
%TF.SameCoordinates,Original*%
%TF.FileFunction,Copper,L2,Bot*%
%TF.FilePolarity,Positive*%
%FSLAX46Y46*%
G04 Gerber Fmt 4.6, Leading zero omitted, Abs format (unit mm)*
G04 Created by KiCad (PCBNEW (5.1.6)-1) date 2020-06-14 06:25:32*
%MOMM*%
%LPD*%
G01*
G04 APERTURE LIST*
%TA.AperFunction,ComponentPad*%
%ADD10R,1.700000X1.700000*%
%TD*%
%TA.AperFunction,ComponentPad*%
%ADD11O,1.700000X1.700000*%
%TD*%
%TA.AperFunction,ComponentPad*%
%ADD12R,3.500000X3.500000*%
%TD*%
%TA.AperFunction,ComponentPad*%
%ADD13R,1.600000X1.600000*%
%TD*%
%TA.AperFunction,ComponentPad*%
%ADD14C,1.600000*%
%TD*%
%TA.AperFunction,ComponentPad*%
%ADD15C,6.000000*%
%TD*%
%TA.AperFunction,ViaPad*%
%ADD16C,0.800000*%
%TD*%
%TA.AperFunction,Conductor*%
%ADD17C,0.400000*%
%TD*%
%TA.AperFunction,Conductor*%
%ADD18C,0.250000*%
%TD*%
G04 APERTURE END LIST*
D10*
%TO.P,pi1,1*%
%TO.N,+3V3*%
X105000000Y-125000000D03*
D11*
%TO.P,pi1,2*%
%TO.N,+5V*%
X102460000Y-125000000D03*
%TO.P,pi1,3*%
%TO.N,/SDA*%
X105000000Y-122460000D03*
%TO.P,pi1,4*%
%TO.N,+5V*%
X102460000Y-122460000D03*
%TO.P,pi1,5*%
%TO.N,/SCL*%
X105000000Y-119920000D03*
%TO.P,pi1,6*%
%TO.N,GND*%
X102460000Y-119920000D03*
%TO.P,pi1,7*%
%TO.N,Net-(pi1-Pad7)*%
X105000000Y-117380000D03*
%TO.P,pi1,8*%
%TO.N,Net-(pi1-Pad8)*%
X102460000Y-117380000D03*
%TO.P,pi1,9*%
%TO.N,GND*%
X105000000Y-114840000D03*
%TO.P,pi1,10*%
%TO.N,Net-(pi1-Pad10)*%
X102460000Y-114840000D03*
%TO.P,pi1,11*%
%TO.N,Net-(pi1-Pad11)*%
X105000000Y-112300000D03*
%TO.P,pi1,12*%
%TO.N,Net-(pi1-Pad12)*%
X102460000Y-112300000D03*
%TO.P,pi1,13*%
%TO.N,Net-(pi1-Pad13)*%
X105000000Y-109760000D03*
%TO.P,pi1,14*%
%TO.N,GND*%
X102460000Y-109760000D03*
%TO.P,pi1,15*%
%TO.N,Net-(pi1-Pad15)*%
X105000000Y-107220000D03*
%TO.P,pi1,16*%
%TO.N,Net-(pi1-Pad16)*%
X102460000Y-107220000D03*
%TO.P,pi1,17*%
%TO.N,+3V3*%
X105000000Y-104680000D03*
%TO.P,pi1,18*%
%TO.N,Net-(pi1-Pad18)*%
X102460000Y-104680000D03*
%TO.P,pi1,19*%
%TO.N,Net-(pi1-Pad19)*%
X105000000Y-102140000D03*
%TO.P,pi1,20*%
%TO.N,GND*%
X102460000Y-102140000D03*
%TO.P,pi1,21*%
%TO.N,Net-(pi1-Pad21)*%
X105000000Y-99600000D03*
%TO.P,pi1,22*%
%TO.N,Net-(pi1-Pad22)*%
X102460000Y-99600000D03*
%TO.P,pi1,23*%
%TO.N,Net-(pi1-Pad23)*%
X105000000Y-97060000D03*
%TO.P,pi1,24*%
%TO.N,Net-(pi1-Pad24)*%
X102460000Y-97060000D03*
%TO.P,pi1,25*%
%TO.N,GND*%
X105000000Y-94520000D03*
%TO.P,pi1,26*%
%TO.N,Net-(pi1-Pad26)*%
X102460000Y-94520000D03*
%TO.P,pi1,27*%
%TO.N,Net-(pi1-Pad27)*%
X105000000Y-91980000D03*
%TO.P,pi1,28*%
%TO.N,Net-(pi1-Pad28)*%
X102460000Y-91980000D03*
%TO.P,pi1,29*%
%TO.N,Net-(pi1-Pad29)*%
X105000000Y-89440000D03*
%TO.P,pi1,30*%
%TO.N,GND*%
X102460000Y-89440000D03*
%TO.P,pi1,31*%
%TO.N,Net-(pi1-Pad31)*%
X105000000Y-86900000D03*
%TO.P,pi1,32*%
%TO.N,Net-(pi1-Pad32)*%
X102460000Y-86900000D03*
%TO.P,pi1,33*%
%TO.N,Net-(pi1-Pad33)*%
X105000000Y-84360000D03*
%TO.P,pi1,34*%
%TO.N,GND*%
X102460000Y-84360000D03*
%TO.P,pi1,35*%
%TO.N,Net-(pi1-Pad35)*%
X105000000Y-81820000D03*
%TO.P,pi1,36*%
%TO.N,Net-(pi1-Pad36)*%
X102460000Y-81820000D03*
%TO.P,pi1,37*%
%TO.N,Net-(pi1-Pad37)*%
X105000000Y-79280000D03*
%TO.P,pi1,38*%
%TO.N,Net-(pi1-Pad38)*%
X102460000Y-79280000D03*
%TO.P,pi1,39*%
%TO.N,GND*%
X105000000Y-76740000D03*
%TO.P,pi1,40*%
%TO.N,Net-(pi1-Pad40)*%
X102460000Y-76740000D03*
%TD*%
D10*
%TO.P,J3,1*%
%TO.N,/S3*%
X127381000Y-103075740D03*
D11*
%TO.P,J3,2*%
%TO.N,VDD*%
X129921000Y-103075740D03*
%TO.P,J3,3*%
%TO.N,GND*%
X132461000Y-103075740D03*
%TD*%
D10*
%TO.P,J0,1*%
%TO.N,/S0*%
X127393700Y-111028480D03*
D11*
%TO.P,J0,2*%
%TO.N,VDD*%
X129933700Y-111028480D03*
%TO.P,J0,3*%
%TO.N,GND*%
X132473700Y-111028480D03*
%TD*%
D10*
%TO.P,J15,1*%
%TO.N,/S15*%
X127345440Y-71198740D03*
D11*
%TO.P,J15,2*%
%TO.N,VDD*%
X129885440Y-71198740D03*
%TO.P,J15,3*%
%TO.N,GND*%
X132425440Y-71198740D03*
%TD*%
D10*
%TO.P,J14,1*%
%TO.N,/S14*%
X127345440Y-73873360D03*
D11*
%TO.P,J14,2*%
%TO.N,VDD*%
X129885440Y-73873360D03*
%TO.P,J14,3*%
%TO.N,GND*%
X132425440Y-73873360D03*
%TD*%
D10*
%TO.P,J13,1*%
%TO.N,/S13*%
X127345440Y-76540360D03*
D11*
%TO.P,J13,2*%
%TO.N,VDD*%
X129885440Y-76540360D03*
%TO.P,J13,3*%
%TO.N,GND*%
X132425440Y-76540360D03*
%TD*%
D10*
%TO.P,J12,1*%
%TO.N,/S12*%
X127345440Y-79220060D03*
D11*
%TO.P,J12,2*%
%TO.N,VDD*%
X129885440Y-79220060D03*
%TO.P,J12,3*%
%TO.N,GND*%
X132425440Y-79220060D03*
%TD*%
%TO.P,J17,3*%
%TO.N,N/C*%
%TA.AperFunction,ComponentPad*%
G36*
G01*
X117250000Y-131575000D02*
X117250000Y-129825000D01*
G75*
G02*
X118125000Y-128950000I875000J0D01*
G01*
X119875000Y-128950000D01*
G75*
G02*
X120750000Y-129825000I0J-875000D01*
G01*
X120750000Y-131575000D01*
G75*
G02*
X119875000Y-132450000I-875000J0D01*
G01*
X118125000Y-132450000D01*
G75*
G02*
X117250000Y-131575000I0J875000D01*
G01*
G37*
%TD.AperFunction*%
%TO.P,J17,2*%
%TO.N,GND*%
%TA.AperFunction,ComponentPad*%
G36*
G01*
X114500000Y-127000000D02*
X114500000Y-125000000D01*
G75*
G02*
X115250000Y-124250000I750000J0D01*
G01*
X116750000Y-124250000D01*
G75*
G02*
X117500000Y-125000000I0J-750000D01*
G01*
X117500000Y-127000000D01*
G75*
G02*
X116750000Y-127750000I-750000J0D01*
G01*
X115250000Y-127750000D01*
G75*
G02*
X114500000Y-127000000I0J750000D01*
G01*
G37*
%TD.AperFunction*%
D12*
%TO.P,J17,1*%
%TO.N,VDD*%
X122000000Y-126000000D03*
%TD*%
D13*
%TO.P,C1,1*%
%TO.N,+5V*%
X111760000Y-107950000D03*
D14*
%TO.P,C1,2*%
%TO.N,GND*%
X109260000Y-107950000D03*
%TD*%
D11*
%TO.P,J1,3*%
%TO.N,GND*%
X132473700Y-108381800D03*
%TO.P,J1,2*%
%TO.N,VDD*%
X129933700Y-108381800D03*
D10*
%TO.P,J1,1*%
%TO.N,/S1*%
X127393700Y-108381800D03*
%TD*%
D11*
%TO.P,J2,3*%
%TO.N,GND*%
X132461000Y-105722420D03*
%TO.P,J2,2*%
%TO.N,VDD*%
X129921000Y-105722420D03*
D10*
%TO.P,J2,1*%
%TO.N,/S2*%
X127381000Y-105722420D03*
%TD*%
%TO.P,J4,1*%
%TO.N,/S4*%
X127370840Y-100451920D03*
D11*
%TO.P,J4,2*%
%TO.N,VDD*%
X129910840Y-100451920D03*
%TO.P,J4,3*%
%TO.N,GND*%
X132450840Y-100451920D03*
%TD*%
%TO.P,J5,3*%
%TO.N,GND*%
X132450840Y-97792540D03*
%TO.P,J5,2*%
%TO.N,VDD*%
X129910840Y-97792540D03*
D10*
%TO.P,J5,1*%
%TO.N,/S5*%
X127370840Y-97792540D03*
%TD*%
D11*
%TO.P,J6,3*%
%TO.N,GND*%
X132450840Y-95148400D03*
%TO.P,J6,2*%
%TO.N,VDD*%
X129910840Y-95148400D03*
D10*
%TO.P,J6,1*%
%TO.N,/S6*%
X127370840Y-95148400D03*
%TD*%
D11*
%TO.P,J7,3*%
%TO.N,GND*%
X132440680Y-92489020D03*
%TO.P,J7,2*%
%TO.N,VDD*%
X129900680Y-92489020D03*
D10*
%TO.P,J7,1*%
%TO.N,/S7*%
X127360680Y-92489020D03*
%TD*%
%TO.P,J8,1*%
%TO.N,/S8*%
X127360680Y-89842340D03*
D11*
%TO.P,J8,2*%
%TO.N,VDD*%
X129900680Y-89842340D03*
%TO.P,J8,3*%
%TO.N,GND*%
X132440680Y-89842340D03*
%TD*%
D10*
%TO.P,J9,1*%
%TO.N,/S9*%
X127360680Y-87195660D03*
D11*
%TO.P,J9,2*%
%TO.N,VDD*%
X129900680Y-87195660D03*
%TO.P,J9,3*%
%TO.N,GND*%
X132440680Y-87195660D03*
%TD*%
D10*
%TO.P,J10,1*%
%TO.N,/S10*%
X127370840Y-84548980D03*
D11*
%TO.P,J10,2*%
%TO.N,VDD*%
X129910840Y-84548980D03*
%TO.P,J10,3*%
%TO.N,GND*%
X132450840Y-84548980D03*
%TD*%
%TO.P,J11,3*%
%TO.N,GND*%
X132427980Y-81904840D03*
%TO.P,J11,2*%
%TO.N,VDD*%
X129887980Y-81904840D03*
D10*
%TO.P,J11,1*%
%TO.N,/S11*%
X127347980Y-81904840D03*
%TD*%
D15*
%TO.P,J20,2*%
%TO.N,VDD*%
X130000000Y-119800000D03*
%TO.P,J20,1*%
%TO.N,GND*%
%TA.AperFunction,ComponentPad*%
G36*
G01*
X131500000Y-130000000D02*
X128500000Y-130000000D01*
G75*
G02*
X127000000Y-128500000I0J1500000D01*
G01*
X127000000Y-125500000D01*
G75*
G02*
X128500000Y-124000000I1500000J0D01*
G01*
X131500000Y-124000000D01*
G75*
G02*
X133000000Y-125500000I0J-1500000D01*
G01*
X133000000Y-128500000D01*
G75*
G02*
X131500000Y-130000000I-1500000J0D01*
G01*
G37*
%TD.AperFunction*%
%TD*%
D10*
%TO.P,J16,1*%
%TO.N,VDD*%
X121000000Y-119000000D03*
D11*
%TO.P,J16,2*%
%TO.N,+5V*%
X121000000Y-116460000D03*
%TO.P,J16,3*%
%TO.N,+3V3*%
X121000000Y-113920000D03*
%TO.P,J16,4*%
%TO.N,/SDA*%
X121000000Y-111380000D03*
%TO.P,J16,5*%
%TO.N,/SCL*%
X121000000Y-108840000D03*
%TO.P,J16,6*%
%TO.N,GND*%
X121000000Y-106300000D03*
%TD*%
D10*
%TO.P,J_POE0,1*%
%TO.N,Net-(J_POE0-Pad1)*%
X111300000Y-70310000D03*
D11*
%TO.P,J_POE0,2*%
%TO.N,Net-(J_POE0-Pad2)*%
X111300000Y-72850000D03*
%TD*%
%TO.P,J_POE2,2*%
%TO.N,Net-(J_POE2-Pad2)*%
X108760000Y-72850000D03*
D10*
%TO.P,J_POE2,1*%
%TO.N,Net-(J_POE2-Pad1)*%
X108760000Y-70310000D03*
%TD*%
D16*
%TO.N,*%
X114300000Y-128270000D03*
X130810000Y-113030000D03*
X130810000Y-114300000D03*
%TO.N,GND*%
X123190000Y-96520000D03*
X114300000Y-69850000D03*
X116840000Y-69850000D03*
X119380000Y-69850000D03*
X121920000Y-69850000D03*
X124460000Y-69850000D03*
X124460000Y-71120000D03*
X121920000Y-71120000D03*
X114300000Y-71120000D03*
X114300000Y-72390000D03*
X114300000Y-73660000D03*
X114300000Y-74930000D03*
X116840000Y-73660000D03*
X116840000Y-74930000D03*
X119380000Y-73660000D03*
X119380000Y-74930000D03*
X121920000Y-72390000D03*
X121920000Y-73660000D03*
X121920000Y-74930000D03*
X113030000Y-74930000D03*
X111760000Y-74930000D03*
X110490000Y-74930000D03*
X109220000Y-74930000D03*
X107950000Y-74930000D03*
X106680000Y-74930000D03*
X115570000Y-74930000D03*
X118110000Y-74930000D03*
X120650000Y-74930000D03*
X120650000Y-73660000D03*
X120650000Y-72390000D03*
X120650000Y-69850000D03*
X118110000Y-69850000D03*
X118110000Y-73660000D03*
X115570000Y-69850000D03*
X115570000Y-73660000D03*
X123190000Y-69850000D03*
X123190000Y-71120000D03*
X123190000Y-72390000D03*
X123190000Y-73660000D03*
X124460000Y-72390000D03*
X110490000Y-87630000D03*
X110490000Y-88900000D03*
X110490000Y-90170000D03*
X110490000Y-91440000D03*
X113030000Y-87630000D03*
X113030000Y-88900000D03*
X113030000Y-90170000D03*
X113030000Y-91440000D03*
X118110000Y-123190000D03*
X116840000Y-123190000D03*
X115570000Y-123190000D03*
X114300000Y-123190000D03*
X113030000Y-123190000D03*
X113030000Y-124460000D03*
X111760000Y-124460000D03*
X110490000Y-125730000D03*
X109220000Y-127000000D03*
X109220000Y-128270000D03*
X109220000Y-129540000D03*
X110490000Y-129540000D03*
X110490000Y-128270000D03*
X110490000Y-127000000D03*
X111760000Y-125730000D03*
X111760000Y-127000000D03*
X111760000Y-128270000D03*
X111760000Y-129540000D03*
X113030000Y-129540000D03*
X113030000Y-128270000D03*
X113030000Y-127000000D03*
X113030000Y-125730000D03*
X114300000Y-129540000D03*
X124460000Y-113030000D03*
X125730000Y-113030000D03*
X127000000Y-113030000D03*
X128270000Y-113030000D03*
X132080000Y-113030000D03*
X133350000Y-113030000D03*
X133350000Y-114300000D03*
X132080000Y-114300000D03*
X128270000Y-114300000D03*
X127000000Y-114300000D03*
X125730000Y-114300000D03*
X124460000Y-114300000D03*
X124460000Y-115570000D03*
X124460000Y-116840000D03*
X124460000Y-120650000D03*
X124460000Y-121920000D03*
X124460000Y-123190000D03*
X124460000Y-129540000D03*
X124460000Y-130810000D03*
X123190000Y-132080000D03*
X124460000Y-132080000D03*
X125730000Y-132080000D03*
X127000000Y-132080000D03*
X125730000Y-130810000D03*
X121920000Y-132080000D03*
X124460000Y-95250000D03*
X124460000Y-93980000D03*
X123190000Y-95250000D03*
X121920000Y-96520000D03*
X121920000Y-97790000D03*
X120650000Y-97790000D03*
X120847500Y-98862500D03*
%TO.N,+5V*%
X118000000Y-116000000D03*
%TO.N,/SCL*%
X110490000Y-101600000D03*
%TO.N,/SDA*%
X109220000Y-104140000D03*
%TO.N,+3V3*%
X118080000Y-113000000D03*
%TO.N,/A0*%
X109490000Y-81010000D03*
X111760000Y-95250000D03*
%TO.N,/A1*%
X112030000Y-81010000D03*
X113030000Y-95250000D03*
%TO.N,/A2*%
X114570000Y-81010000D03*
X114300000Y-95250000D03*
%TO.N,/A3*%
X117110000Y-81010000D03*
X115570000Y-95250000D03*
%TO.N,/A4*%
X119650000Y-81010000D03*
X116840000Y-95250000D03*
%TD*%
D17*
%TO.N,GND*%
X116420002Y-126000000D02*
X116000000Y-126000000D01*
X120847500Y-106147500D02*
X121000000Y-106300000D01*
X121000000Y-106300000D02*
X123190000Y-108490000D01*
X117500000Y-126000000D02*
X116000000Y-126000000D01*
X123190000Y-120310000D02*
X117500000Y-126000000D01*
X123190000Y-108490000D02*
X123190000Y-120310000D01*
X121000000Y-106300000D02*
X121000000Y-98710000D01*
X121000000Y-98710000D02*
X123190000Y-96520000D01*
%TO.N,+5V*%
X102460000Y-122460000D02*
X102460000Y-125000000D01*
X107749999Y-126250001D02*
X118000000Y-116000000D01*
X103710001Y-126250001D02*
X107749999Y-126250001D01*
X102460000Y-125000000D02*
X103710001Y-126250001D01*
X119380000Y-111760000D02*
X115570000Y-107950000D01*
X118000000Y-116000000D02*
X119380000Y-114620000D01*
X115570000Y-107950000D02*
X113030000Y-107950000D01*
X119380000Y-114620000D02*
X119380000Y-111760000D01*
D18*
%TO.N,/SCL*%
X106745000Y-105345000D02*
X110490000Y-101600000D01*
X105000000Y-119920000D02*
X106745000Y-118175000D01*
X106745000Y-118175000D02*
X106745000Y-105345000D01*
%TO.N,/SDA*%
X105000000Y-122460000D02*
X107365800Y-120094200D01*
X107365800Y-120094200D02*
X107365800Y-105994200D01*
X108394500Y-104965500D02*
X108356400Y-105003600D01*
X108356400Y-105003600D02*
X109220000Y-104140000D01*
X107950000Y-105410000D02*
X108356400Y-105003600D01*
X108394500Y-104965500D02*
X109220000Y-104140000D01*
X107365800Y-105994200D02*
X108394500Y-104965500D01*
D17*
%TO.N,+3V3*%
X105000000Y-104680000D02*
X105320000Y-104680000D01*
X105000000Y-125000000D02*
X106140000Y-125000000D01*
X106140000Y-125000000D02*
X118080000Y-113060000D01*
X118080000Y-113060000D02*
X118080000Y-113000000D01*
D18*
%TO.N,/A0*%
X109490000Y-81010000D02*
X109490000Y-92980000D01*
X109490000Y-92980000D02*
X111760000Y-95250000D01*
%TO.N,/A1*%
X112030000Y-81010000D02*
X112030000Y-94250000D01*
X112030000Y-94250000D02*
X113030000Y-95250000D01*
%TO.N,/A2*%
X114570000Y-81010000D02*
X114570000Y-94980000D01*
X114570000Y-94980000D02*
X114300000Y-95250000D01*
%TO.N,/A3*%
X117110000Y-81010000D02*
X117110000Y-93710000D01*
X117110000Y-93710000D02*
X115570000Y-95250000D01*
%TO.N,/A4*%
X119650000Y-81010000D02*
X119650000Y-92440000D01*
X119650000Y-92440000D02*
X116840000Y-95250000D01*
%TD*%
M02*
