%TF.GenerationSoftware,KiCad,Pcbnew,(5.1.6)-1*%
%TF.CreationDate,2020-06-14T06:25:32-07:00*%
%TF.ProjectId,pcb,7063622e-6b69-4636-9164-5f7063625858,rev?*%
%TF.SameCoordinates,Original*%
%TF.FileFunction,Soldermask,Bot*%
%TF.FilePolarity,Negative*%
%FSLAX46Y46*%
G04 Gerber Fmt 4.6, Leading zero omitted, Abs format (unit mm)*
G04 Created by KiCad (PCBNEW (5.1.6)-1) date 2020-06-14 06:25:32*
%MOMM*%
%LPD*%
G01*
G04 APERTURE LIST*
%ADD10R,1.700000X1.700000*%
%ADD11O,1.700000X1.700000*%
%ADD12R,3.500000X3.500000*%
%ADD13C,3.200000*%
%ADD14R,1.600000X1.600000*%
%ADD15C,1.600000*%
%ADD16C,6.000000*%
G04 APERTURE END LIST*
D10*
%TO.C,pi1*%
X105000000Y-125000000D03*
D11*
X102460000Y-125000000D03*
X105000000Y-122460000D03*
X102460000Y-122460000D03*
X105000000Y-119920000D03*
X102460000Y-119920000D03*
X105000000Y-117380000D03*
X102460000Y-117380000D03*
X105000000Y-114840000D03*
X102460000Y-114840000D03*
X105000000Y-112300000D03*
X102460000Y-112300000D03*
X105000000Y-109760000D03*
X102460000Y-109760000D03*
X105000000Y-107220000D03*
X102460000Y-107220000D03*
X105000000Y-104680000D03*
X102460000Y-104680000D03*
X105000000Y-102140000D03*
X102460000Y-102140000D03*
X105000000Y-99600000D03*
X102460000Y-99600000D03*
X105000000Y-97060000D03*
X102460000Y-97060000D03*
X105000000Y-94520000D03*
X102460000Y-94520000D03*
X105000000Y-91980000D03*
X102460000Y-91980000D03*
X105000000Y-89440000D03*
X102460000Y-89440000D03*
X105000000Y-86900000D03*
X102460000Y-86900000D03*
X105000000Y-84360000D03*
X102460000Y-84360000D03*
X105000000Y-81820000D03*
X102460000Y-81820000D03*
X105000000Y-79280000D03*
X102460000Y-79280000D03*
X105000000Y-76740000D03*
X102460000Y-76740000D03*
%TD*%
D10*
%TO.C,J3*%
X127381000Y-103075740D03*
D11*
X129921000Y-103075740D03*
X132461000Y-103075740D03*
%TD*%
D10*
%TO.C,J0*%
X127393700Y-111028480D03*
D11*
X129933700Y-111028480D03*
X132473700Y-111028480D03*
%TD*%
D10*
%TO.C,J15*%
X127345440Y-71198740D03*
D11*
X129885440Y-71198740D03*
X132425440Y-71198740D03*
%TD*%
D10*
%TO.C,J14*%
X127345440Y-73873360D03*
D11*
X129885440Y-73873360D03*
X132425440Y-73873360D03*
%TD*%
D10*
%TO.C,J13*%
X127345440Y-76540360D03*
D11*
X129885440Y-76540360D03*
X132425440Y-76540360D03*
%TD*%
D10*
%TO.C,J12*%
X127345440Y-79220060D03*
D11*
X129885440Y-79220060D03*
X132425440Y-79220060D03*
%TD*%
%TO.C,J17*%
G36*
G01*
X117250000Y-131575000D02*
X117250000Y-129825000D01*
G75*
G02*
X118125000Y-128950000I875000J0D01*
G01*
X119875000Y-128950000D01*
G75*
G02*
X120750000Y-129825000I0J-875000D01*
G01*
X120750000Y-131575000D01*
G75*
G02*
X119875000Y-132450000I-875000J0D01*
G01*
X118125000Y-132450000D01*
G75*
G02*
X117250000Y-131575000I0J875000D01*
G01*
G37*
G36*
G01*
X114500000Y-127000000D02*
X114500000Y-125000000D01*
G75*
G02*
X115250000Y-124250000I750000J0D01*
G01*
X116750000Y-124250000D01*
G75*
G02*
X117500000Y-125000000I0J-750000D01*
G01*
X117500000Y-127000000D01*
G75*
G02*
X116750000Y-127750000I-750000J0D01*
G01*
X115250000Y-127750000D01*
G75*
G02*
X114500000Y-127000000I0J750000D01*
G01*
G37*
D12*
X122000000Y-126000000D03*
%TD*%
D13*
%TO.C,M3_bottom*%
X104000000Y-130000000D03*
%TD*%
%TO.C,M3_top*%
X104000000Y-72000000D03*
%TD*%
D14*
%TO.C,C1*%
X111760000Y-107950000D03*
D15*
X109260000Y-107950000D03*
%TD*%
D11*
%TO.C,J1*%
X132473700Y-108381800D03*
X129933700Y-108381800D03*
D10*
X127393700Y-108381800D03*
%TD*%
D11*
%TO.C,J2*%
X132461000Y-105722420D03*
X129921000Y-105722420D03*
D10*
X127381000Y-105722420D03*
%TD*%
%TO.C,J4*%
X127370840Y-100451920D03*
D11*
X129910840Y-100451920D03*
X132450840Y-100451920D03*
%TD*%
%TO.C,J5*%
X132450840Y-97792540D03*
X129910840Y-97792540D03*
D10*
X127370840Y-97792540D03*
%TD*%
D11*
%TO.C,J6*%
X132450840Y-95148400D03*
X129910840Y-95148400D03*
D10*
X127370840Y-95148400D03*
%TD*%
D11*
%TO.C,J7*%
X132440680Y-92489020D03*
X129900680Y-92489020D03*
D10*
X127360680Y-92489020D03*
%TD*%
%TO.C,J8*%
X127360680Y-89842340D03*
D11*
X129900680Y-89842340D03*
X132440680Y-89842340D03*
%TD*%
D10*
%TO.C,J9*%
X127360680Y-87195660D03*
D11*
X129900680Y-87195660D03*
X132440680Y-87195660D03*
%TD*%
D10*
%TO.C,J10*%
X127370840Y-84548980D03*
D11*
X129910840Y-84548980D03*
X132450840Y-84548980D03*
%TD*%
%TO.C,J11*%
X132427980Y-81904840D03*
X129887980Y-81904840D03*
D10*
X127347980Y-81904840D03*
%TD*%
D16*
%TO.C,J20*%
X130000000Y-119800000D03*
G36*
G01*
X131500000Y-130000000D02*
X128500000Y-130000000D01*
G75*
G02*
X127000000Y-128500000I0J1500000D01*
G01*
X127000000Y-125500000D01*
G75*
G02*
X128500000Y-124000000I1500000J0D01*
G01*
X131500000Y-124000000D01*
G75*
G02*
X133000000Y-125500000I0J-1500000D01*
G01*
X133000000Y-128500000D01*
G75*
G02*
X131500000Y-130000000I-1500000J0D01*
G01*
G37*
%TD*%
D10*
%TO.C,J16*%
X121000000Y-119000000D03*
D11*
X121000000Y-116460000D03*
X121000000Y-113920000D03*
X121000000Y-111380000D03*
X121000000Y-108840000D03*
X121000000Y-106300000D03*
%TD*%
D10*
%TO.C,J_POE0*%
X111300000Y-70310000D03*
D11*
X111300000Y-72850000D03*
%TD*%
%TO.C,J_POE2*%
X108760000Y-72850000D03*
D10*
X108760000Y-70310000D03*
%TD*%
M02*
