%TF.GenerationSoftware,KiCad,Pcbnew,(5.1.6)-1*%
%TF.CreationDate,2020-06-14T06:25:32-07:00*%
%TF.ProjectId,pcb,7063622e-6b69-4636-9164-5f7063625858,rev?*%
%TF.SameCoordinates,Original*%
%TF.FileFunction,Soldermask,Top*%
%TF.FilePolarity,Negative*%
%FSLAX46Y46*%
G04 Gerber Fmt 4.6, Leading zero omitted, Abs format (unit mm)*
G04 Created by KiCad (PCBNEW (5.1.6)-1) date 2020-06-14 06:25:32*
%MOMM*%
%LPD*%
G01*
G04 APERTURE LIST*
%ADD10R,1.700000X1.700000*%
%ADD11O,1.700000X1.700000*%
%ADD12R,3.500000X3.500000*%
%ADD13C,3.200000*%
%ADD14R,1.600000X1.600000*%
%ADD15C,1.600000*%
%ADD16C,6.000000*%
G04 APERTURE END LIST*
%TO.C,U0*%
G36*
G01*
X110875000Y-93875000D02*
X110675000Y-93875000D01*
G75*
G02*
X110575000Y-93775000I0J100000D01*
G01*
X110575000Y-92500000D01*
G75*
G02*
X110675000Y-92400000I100000J0D01*
G01*
X110875000Y-92400000D01*
G75*
G02*
X110975000Y-92500000I0J-100000D01*
G01*
X110975000Y-93775000D01*
G75*
G02*
X110875000Y-93875000I-100000J0D01*
G01*
G37*
G36*
G01*
X111525000Y-93875000D02*
X111325000Y-93875000D01*
G75*
G02*
X111225000Y-93775000I0J100000D01*
G01*
X111225000Y-92500000D01*
G75*
G02*
X111325000Y-92400000I100000J0D01*
G01*
X111525000Y-92400000D01*
G75*
G02*
X111625000Y-92500000I0J-100000D01*
G01*
X111625000Y-93775000D01*
G75*
G02*
X111525000Y-93875000I-100000J0D01*
G01*
G37*
G36*
G01*
X112175000Y-93875000D02*
X111975000Y-93875000D01*
G75*
G02*
X111875000Y-93775000I0J100000D01*
G01*
X111875000Y-92500000D01*
G75*
G02*
X111975000Y-92400000I100000J0D01*
G01*
X112175000Y-92400000D01*
G75*
G02*
X112275000Y-92500000I0J-100000D01*
G01*
X112275000Y-93775000D01*
G75*
G02*
X112175000Y-93875000I-100000J0D01*
G01*
G37*
G36*
G01*
X112825000Y-93875000D02*
X112625000Y-93875000D01*
G75*
G02*
X112525000Y-93775000I0J100000D01*
G01*
X112525000Y-92500000D01*
G75*
G02*
X112625000Y-92400000I100000J0D01*
G01*
X112825000Y-92400000D01*
G75*
G02*
X112925000Y-92500000I0J-100000D01*
G01*
X112925000Y-93775000D01*
G75*
G02*
X112825000Y-93875000I-100000J0D01*
G01*
G37*
G36*
G01*
X113475000Y-93875000D02*
X113275000Y-93875000D01*
G75*
G02*
X113175000Y-93775000I0J100000D01*
G01*
X113175000Y-92500000D01*
G75*
G02*
X113275000Y-92400000I100000J0D01*
G01*
X113475000Y-92400000D01*
G75*
G02*
X113575000Y-92500000I0J-100000D01*
G01*
X113575000Y-93775000D01*
G75*
G02*
X113475000Y-93875000I-100000J0D01*
G01*
G37*
G36*
G01*
X114125000Y-93875000D02*
X113925000Y-93875000D01*
G75*
G02*
X113825000Y-93775000I0J100000D01*
G01*
X113825000Y-92500000D01*
G75*
G02*
X113925000Y-92400000I100000J0D01*
G01*
X114125000Y-92400000D01*
G75*
G02*
X114225000Y-92500000I0J-100000D01*
G01*
X114225000Y-93775000D01*
G75*
G02*
X114125000Y-93875000I-100000J0D01*
G01*
G37*
G36*
G01*
X114775000Y-93875000D02*
X114575000Y-93875000D01*
G75*
G02*
X114475000Y-93775000I0J100000D01*
G01*
X114475000Y-92500000D01*
G75*
G02*
X114575000Y-92400000I100000J0D01*
G01*
X114775000Y-92400000D01*
G75*
G02*
X114875000Y-92500000I0J-100000D01*
G01*
X114875000Y-93775000D01*
G75*
G02*
X114775000Y-93875000I-100000J0D01*
G01*
G37*
G36*
G01*
X115425000Y-93875000D02*
X115225000Y-93875000D01*
G75*
G02*
X115125000Y-93775000I0J100000D01*
G01*
X115125000Y-92500000D01*
G75*
G02*
X115225000Y-92400000I100000J0D01*
G01*
X115425000Y-92400000D01*
G75*
G02*
X115525000Y-92500000I0J-100000D01*
G01*
X115525000Y-93775000D01*
G75*
G02*
X115425000Y-93875000I-100000J0D01*
G01*
G37*
G36*
G01*
X116075000Y-93875000D02*
X115875000Y-93875000D01*
G75*
G02*
X115775000Y-93775000I0J100000D01*
G01*
X115775000Y-92500000D01*
G75*
G02*
X115875000Y-92400000I100000J0D01*
G01*
X116075000Y-92400000D01*
G75*
G02*
X116175000Y-92500000I0J-100000D01*
G01*
X116175000Y-93775000D01*
G75*
G02*
X116075000Y-93875000I-100000J0D01*
G01*
G37*
G36*
G01*
X116725000Y-93875000D02*
X116525000Y-93875000D01*
G75*
G02*
X116425000Y-93775000I0J100000D01*
G01*
X116425000Y-92500000D01*
G75*
G02*
X116525000Y-92400000I100000J0D01*
G01*
X116725000Y-92400000D01*
G75*
G02*
X116825000Y-92500000I0J-100000D01*
G01*
X116825000Y-93775000D01*
G75*
G02*
X116725000Y-93875000I-100000J0D01*
G01*
G37*
G36*
G01*
X117375000Y-93875000D02*
X117175000Y-93875000D01*
G75*
G02*
X117075000Y-93775000I0J100000D01*
G01*
X117075000Y-92500000D01*
G75*
G02*
X117175000Y-92400000I100000J0D01*
G01*
X117375000Y-92400000D01*
G75*
G02*
X117475000Y-92500000I0J-100000D01*
G01*
X117475000Y-93775000D01*
G75*
G02*
X117375000Y-93875000I-100000J0D01*
G01*
G37*
G36*
G01*
X118025000Y-93875000D02*
X117825000Y-93875000D01*
G75*
G02*
X117725000Y-93775000I0J100000D01*
G01*
X117725000Y-92500000D01*
G75*
G02*
X117825000Y-92400000I100000J0D01*
G01*
X118025000Y-92400000D01*
G75*
G02*
X118125000Y-92500000I0J-100000D01*
G01*
X118125000Y-93775000D01*
G75*
G02*
X118025000Y-93875000I-100000J0D01*
G01*
G37*
G36*
G01*
X118675000Y-93875000D02*
X118475000Y-93875000D01*
G75*
G02*
X118375000Y-93775000I0J100000D01*
G01*
X118375000Y-92500000D01*
G75*
G02*
X118475000Y-92400000I100000J0D01*
G01*
X118675000Y-92400000D01*
G75*
G02*
X118775000Y-92500000I0J-100000D01*
G01*
X118775000Y-93775000D01*
G75*
G02*
X118675000Y-93875000I-100000J0D01*
G01*
G37*
G36*
G01*
X119325000Y-93875000D02*
X119125000Y-93875000D01*
G75*
G02*
X119025000Y-93775000I0J100000D01*
G01*
X119025000Y-92500000D01*
G75*
G02*
X119125000Y-92400000I100000J0D01*
G01*
X119325000Y-92400000D01*
G75*
G02*
X119425000Y-92500000I0J-100000D01*
G01*
X119425000Y-93775000D01*
G75*
G02*
X119325000Y-93875000I-100000J0D01*
G01*
G37*
G36*
G01*
X119325000Y-99600000D02*
X119125000Y-99600000D01*
G75*
G02*
X119025000Y-99500000I0J100000D01*
G01*
X119025000Y-98225000D01*
G75*
G02*
X119125000Y-98125000I100000J0D01*
G01*
X119325000Y-98125000D01*
G75*
G02*
X119425000Y-98225000I0J-100000D01*
G01*
X119425000Y-99500000D01*
G75*
G02*
X119325000Y-99600000I-100000J0D01*
G01*
G37*
G36*
G01*
X118675000Y-99600000D02*
X118475000Y-99600000D01*
G75*
G02*
X118375000Y-99500000I0J100000D01*
G01*
X118375000Y-98225000D01*
G75*
G02*
X118475000Y-98125000I100000J0D01*
G01*
X118675000Y-98125000D01*
G75*
G02*
X118775000Y-98225000I0J-100000D01*
G01*
X118775000Y-99500000D01*
G75*
G02*
X118675000Y-99600000I-100000J0D01*
G01*
G37*
G36*
G01*
X118025000Y-99600000D02*
X117825000Y-99600000D01*
G75*
G02*
X117725000Y-99500000I0J100000D01*
G01*
X117725000Y-98225000D01*
G75*
G02*
X117825000Y-98125000I100000J0D01*
G01*
X118025000Y-98125000D01*
G75*
G02*
X118125000Y-98225000I0J-100000D01*
G01*
X118125000Y-99500000D01*
G75*
G02*
X118025000Y-99600000I-100000J0D01*
G01*
G37*
G36*
G01*
X117375000Y-99600000D02*
X117175000Y-99600000D01*
G75*
G02*
X117075000Y-99500000I0J100000D01*
G01*
X117075000Y-98225000D01*
G75*
G02*
X117175000Y-98125000I100000J0D01*
G01*
X117375000Y-98125000D01*
G75*
G02*
X117475000Y-98225000I0J-100000D01*
G01*
X117475000Y-99500000D01*
G75*
G02*
X117375000Y-99600000I-100000J0D01*
G01*
G37*
G36*
G01*
X116725000Y-99600000D02*
X116525000Y-99600000D01*
G75*
G02*
X116425000Y-99500000I0J100000D01*
G01*
X116425000Y-98225000D01*
G75*
G02*
X116525000Y-98125000I100000J0D01*
G01*
X116725000Y-98125000D01*
G75*
G02*
X116825000Y-98225000I0J-100000D01*
G01*
X116825000Y-99500000D01*
G75*
G02*
X116725000Y-99600000I-100000J0D01*
G01*
G37*
G36*
G01*
X116075000Y-99600000D02*
X115875000Y-99600000D01*
G75*
G02*
X115775000Y-99500000I0J100000D01*
G01*
X115775000Y-98225000D01*
G75*
G02*
X115875000Y-98125000I100000J0D01*
G01*
X116075000Y-98125000D01*
G75*
G02*
X116175000Y-98225000I0J-100000D01*
G01*
X116175000Y-99500000D01*
G75*
G02*
X116075000Y-99600000I-100000J0D01*
G01*
G37*
G36*
G01*
X115425000Y-99600000D02*
X115225000Y-99600000D01*
G75*
G02*
X115125000Y-99500000I0J100000D01*
G01*
X115125000Y-98225000D01*
G75*
G02*
X115225000Y-98125000I100000J0D01*
G01*
X115425000Y-98125000D01*
G75*
G02*
X115525000Y-98225000I0J-100000D01*
G01*
X115525000Y-99500000D01*
G75*
G02*
X115425000Y-99600000I-100000J0D01*
G01*
G37*
G36*
G01*
X114775000Y-99600000D02*
X114575000Y-99600000D01*
G75*
G02*
X114475000Y-99500000I0J100000D01*
G01*
X114475000Y-98225000D01*
G75*
G02*
X114575000Y-98125000I100000J0D01*
G01*
X114775000Y-98125000D01*
G75*
G02*
X114875000Y-98225000I0J-100000D01*
G01*
X114875000Y-99500000D01*
G75*
G02*
X114775000Y-99600000I-100000J0D01*
G01*
G37*
G36*
G01*
X114125000Y-99600000D02*
X113925000Y-99600000D01*
G75*
G02*
X113825000Y-99500000I0J100000D01*
G01*
X113825000Y-98225000D01*
G75*
G02*
X113925000Y-98125000I100000J0D01*
G01*
X114125000Y-98125000D01*
G75*
G02*
X114225000Y-98225000I0J-100000D01*
G01*
X114225000Y-99500000D01*
G75*
G02*
X114125000Y-99600000I-100000J0D01*
G01*
G37*
G36*
G01*
X113475000Y-99600000D02*
X113275000Y-99600000D01*
G75*
G02*
X113175000Y-99500000I0J100000D01*
G01*
X113175000Y-98225000D01*
G75*
G02*
X113275000Y-98125000I100000J0D01*
G01*
X113475000Y-98125000D01*
G75*
G02*
X113575000Y-98225000I0J-100000D01*
G01*
X113575000Y-99500000D01*
G75*
G02*
X113475000Y-99600000I-100000J0D01*
G01*
G37*
G36*
G01*
X112825000Y-99600000D02*
X112625000Y-99600000D01*
G75*
G02*
X112525000Y-99500000I0J100000D01*
G01*
X112525000Y-98225000D01*
G75*
G02*
X112625000Y-98125000I100000J0D01*
G01*
X112825000Y-98125000D01*
G75*
G02*
X112925000Y-98225000I0J-100000D01*
G01*
X112925000Y-99500000D01*
G75*
G02*
X112825000Y-99600000I-100000J0D01*
G01*
G37*
G36*
G01*
X112175000Y-99600000D02*
X111975000Y-99600000D01*
G75*
G02*
X111875000Y-99500000I0J100000D01*
G01*
X111875000Y-98225000D01*
G75*
G02*
X111975000Y-98125000I100000J0D01*
G01*
X112175000Y-98125000D01*
G75*
G02*
X112275000Y-98225000I0J-100000D01*
G01*
X112275000Y-99500000D01*
G75*
G02*
X112175000Y-99600000I-100000J0D01*
G01*
G37*
G36*
G01*
X111525000Y-99600000D02*
X111325000Y-99600000D01*
G75*
G02*
X111225000Y-99500000I0J100000D01*
G01*
X111225000Y-98225000D01*
G75*
G02*
X111325000Y-98125000I100000J0D01*
G01*
X111525000Y-98125000D01*
G75*
G02*
X111625000Y-98225000I0J-100000D01*
G01*
X111625000Y-99500000D01*
G75*
G02*
X111525000Y-99600000I-100000J0D01*
G01*
G37*
G36*
G01*
X110875000Y-99600000D02*
X110675000Y-99600000D01*
G75*
G02*
X110575000Y-99500000I0J100000D01*
G01*
X110575000Y-98225000D01*
G75*
G02*
X110675000Y-98125000I100000J0D01*
G01*
X110875000Y-98125000D01*
G75*
G02*
X110975000Y-98225000I0J-100000D01*
G01*
X110975000Y-99500000D01*
G75*
G02*
X110875000Y-99600000I-100000J0D01*
G01*
G37*
%TD*%
D10*
%TO.C,pi1*%
X105000000Y-125000000D03*
D11*
X102460000Y-125000000D03*
X105000000Y-122460000D03*
X102460000Y-122460000D03*
X105000000Y-119920000D03*
X102460000Y-119920000D03*
X105000000Y-117380000D03*
X102460000Y-117380000D03*
X105000000Y-114840000D03*
X102460000Y-114840000D03*
X105000000Y-112300000D03*
X102460000Y-112300000D03*
X105000000Y-109760000D03*
X102460000Y-109760000D03*
X105000000Y-107220000D03*
X102460000Y-107220000D03*
X105000000Y-104680000D03*
X102460000Y-104680000D03*
X105000000Y-102140000D03*
X102460000Y-102140000D03*
X105000000Y-99600000D03*
X102460000Y-99600000D03*
X105000000Y-97060000D03*
X102460000Y-97060000D03*
X105000000Y-94520000D03*
X102460000Y-94520000D03*
X105000000Y-91980000D03*
X102460000Y-91980000D03*
X105000000Y-89440000D03*
X102460000Y-89440000D03*
X105000000Y-86900000D03*
X102460000Y-86900000D03*
X105000000Y-84360000D03*
X102460000Y-84360000D03*
X105000000Y-81820000D03*
X102460000Y-81820000D03*
X105000000Y-79280000D03*
X102460000Y-79280000D03*
X105000000Y-76740000D03*
X102460000Y-76740000D03*
%TD*%
%TO.C,R8*%
G36*
G01*
X116659999Y-85540000D02*
X117560001Y-85540000D01*
G75*
G02*
X117810000Y-85789999I0J-249999D01*
G01*
X117810000Y-86440001D01*
G75*
G02*
X117560001Y-86690000I-249999J0D01*
G01*
X116659999Y-86690000D01*
G75*
G02*
X116410000Y-86440001I0J249999D01*
G01*
X116410000Y-85789999D01*
G75*
G02*
X116659999Y-85540000I249999J0D01*
G01*
G37*
G36*
G01*
X116659999Y-83490000D02*
X117560001Y-83490000D01*
G75*
G02*
X117810000Y-83739999I0J-249999D01*
G01*
X117810000Y-84390001D01*
G75*
G02*
X117560001Y-84640000I-249999J0D01*
G01*
X116659999Y-84640000D01*
G75*
G02*
X116410000Y-84390001I0J249999D01*
G01*
X116410000Y-83739999D01*
G75*
G02*
X116659999Y-83490000I249999J0D01*
G01*
G37*
%TD*%
%TO.C,R5*%
G36*
G01*
X109039999Y-85540000D02*
X109940001Y-85540000D01*
G75*
G02*
X110190000Y-85789999I0J-249999D01*
G01*
X110190000Y-86440001D01*
G75*
G02*
X109940001Y-86690000I-249999J0D01*
G01*
X109039999Y-86690000D01*
G75*
G02*
X108790000Y-86440001I0J249999D01*
G01*
X108790000Y-85789999D01*
G75*
G02*
X109039999Y-85540000I249999J0D01*
G01*
G37*
G36*
G01*
X109039999Y-83490000D02*
X109940001Y-83490000D01*
G75*
G02*
X110190000Y-83739999I0J-249999D01*
G01*
X110190000Y-84390001D01*
G75*
G02*
X109940001Y-84640000I-249999J0D01*
G01*
X109039999Y-84640000D01*
G75*
G02*
X108790000Y-84390001I0J249999D01*
G01*
X108790000Y-83739999D01*
G75*
G02*
X109039999Y-83490000I249999J0D01*
G01*
G37*
%TD*%
D10*
%TO.C,J3*%
X127381000Y-103075740D03*
D11*
X129921000Y-103075740D03*
X132461000Y-103075740D03*
%TD*%
D10*
%TO.C,J0*%
X127393700Y-111028480D03*
D11*
X129933700Y-111028480D03*
X132473700Y-111028480D03*
%TD*%
%TO.C,R12*%
G36*
G01*
X114550000Y-118549999D02*
X114550000Y-119450001D01*
G75*
G02*
X114300001Y-119700000I-249999J0D01*
G01*
X113649999Y-119700000D01*
G75*
G02*
X113400000Y-119450001I0J249999D01*
G01*
X113400000Y-118549999D01*
G75*
G02*
X113649999Y-118300000I249999J0D01*
G01*
X114300001Y-118300000D01*
G75*
G02*
X114550000Y-118549999I0J-249999D01*
G01*
G37*
G36*
G01*
X116600000Y-118549999D02*
X116600000Y-119450001D01*
G75*
G02*
X116350001Y-119700000I-249999J0D01*
G01*
X115699999Y-119700000D01*
G75*
G02*
X115450000Y-119450001I0J249999D01*
G01*
X115450000Y-118549999D01*
G75*
G02*
X115699999Y-118300000I249999J0D01*
G01*
X116350001Y-118300000D01*
G75*
G02*
X116600000Y-118549999I0J-249999D01*
G01*
G37*
%TD*%
%TO.C,R11*%
G36*
G01*
X114550000Y-115549999D02*
X114550000Y-116450001D01*
G75*
G02*
X114300001Y-116700000I-249999J0D01*
G01*
X113649999Y-116700000D01*
G75*
G02*
X113400000Y-116450001I0J249999D01*
G01*
X113400000Y-115549999D01*
G75*
G02*
X113649999Y-115300000I249999J0D01*
G01*
X114300001Y-115300000D01*
G75*
G02*
X114550000Y-115549999I0J-249999D01*
G01*
G37*
G36*
G01*
X116600000Y-115549999D02*
X116600000Y-116450001D01*
G75*
G02*
X116350001Y-116700000I-249999J0D01*
G01*
X115699999Y-116700000D01*
G75*
G02*
X115450000Y-116450001I0J249999D01*
G01*
X115450000Y-115549999D01*
G75*
G02*
X115699999Y-115300000I249999J0D01*
G01*
X116350001Y-115300000D01*
G75*
G02*
X116600000Y-115549999I0J-249999D01*
G01*
G37*
%TD*%
%TO.C,R10*%
G36*
G01*
X114550000Y-112549999D02*
X114550000Y-113450001D01*
G75*
G02*
X114300001Y-113700000I-249999J0D01*
G01*
X113649999Y-113700000D01*
G75*
G02*
X113400000Y-113450001I0J249999D01*
G01*
X113400000Y-112549999D01*
G75*
G02*
X113649999Y-112300000I249999J0D01*
G01*
X114300001Y-112300000D01*
G75*
G02*
X114550000Y-112549999I0J-249999D01*
G01*
G37*
G36*
G01*
X116600000Y-112549999D02*
X116600000Y-113450001D01*
G75*
G02*
X116350001Y-113700000I-249999J0D01*
G01*
X115699999Y-113700000D01*
G75*
G02*
X115450000Y-113450001I0J249999D01*
G01*
X115450000Y-112549999D01*
G75*
G02*
X115699999Y-112300000I249999J0D01*
G01*
X116350001Y-112300000D01*
G75*
G02*
X116600000Y-112549999I0J-249999D01*
G01*
G37*
%TD*%
%TO.C,D3*%
G36*
G01*
X110450000Y-119450001D02*
X110450000Y-118549999D01*
G75*
G02*
X110699999Y-118300000I249999J0D01*
G01*
X111350001Y-118300000D01*
G75*
G02*
X111600000Y-118549999I0J-249999D01*
G01*
X111600000Y-119450001D01*
G75*
G02*
X111350001Y-119700000I-249999J0D01*
G01*
X110699999Y-119700000D01*
G75*
G02*
X110450000Y-119450001I0J249999D01*
G01*
G37*
G36*
G01*
X108400000Y-119450001D02*
X108400000Y-118549999D01*
G75*
G02*
X108649999Y-118300000I249999J0D01*
G01*
X109300001Y-118300000D01*
G75*
G02*
X109550000Y-118549999I0J-249999D01*
G01*
X109550000Y-119450001D01*
G75*
G02*
X109300001Y-119700000I-249999J0D01*
G01*
X108649999Y-119700000D01*
G75*
G02*
X108400000Y-119450001I0J249999D01*
G01*
G37*
%TD*%
%TO.C,D2*%
G36*
G01*
X110450000Y-116450001D02*
X110450000Y-115549999D01*
G75*
G02*
X110699999Y-115300000I249999J0D01*
G01*
X111350001Y-115300000D01*
G75*
G02*
X111600000Y-115549999I0J-249999D01*
G01*
X111600000Y-116450001D01*
G75*
G02*
X111350001Y-116700000I-249999J0D01*
G01*
X110699999Y-116700000D01*
G75*
G02*
X110450000Y-116450001I0J249999D01*
G01*
G37*
G36*
G01*
X108400000Y-116450001D02*
X108400000Y-115549999D01*
G75*
G02*
X108649999Y-115300000I249999J0D01*
G01*
X109300001Y-115300000D01*
G75*
G02*
X109550000Y-115549999I0J-249999D01*
G01*
X109550000Y-116450001D01*
G75*
G02*
X109300001Y-116700000I-249999J0D01*
G01*
X108649999Y-116700000D01*
G75*
G02*
X108400000Y-116450001I0J249999D01*
G01*
G37*
%TD*%
%TO.C,D1*%
G36*
G01*
X110450000Y-113450001D02*
X110450000Y-112549999D01*
G75*
G02*
X110699999Y-112300000I249999J0D01*
G01*
X111350001Y-112300000D01*
G75*
G02*
X111600000Y-112549999I0J-249999D01*
G01*
X111600000Y-113450001D01*
G75*
G02*
X111350001Y-113700000I-249999J0D01*
G01*
X110699999Y-113700000D01*
G75*
G02*
X110450000Y-113450001I0J249999D01*
G01*
G37*
G36*
G01*
X108400000Y-113450001D02*
X108400000Y-112549999D01*
G75*
G02*
X108649999Y-112300000I249999J0D01*
G01*
X109300001Y-112300000D01*
G75*
G02*
X109550000Y-112549999I0J-249999D01*
G01*
X109550000Y-113450001D01*
G75*
G02*
X109300001Y-113700000I-249999J0D01*
G01*
X108649999Y-113700000D01*
G75*
G02*
X108400000Y-113450001I0J249999D01*
G01*
G37*
%TD*%
%TO.C,R9*%
G36*
G01*
X119199999Y-85540000D02*
X120100001Y-85540000D01*
G75*
G02*
X120350000Y-85789999I0J-249999D01*
G01*
X120350000Y-86440001D01*
G75*
G02*
X120100001Y-86690000I-249999J0D01*
G01*
X119199999Y-86690000D01*
G75*
G02*
X118950000Y-86440001I0J249999D01*
G01*
X118950000Y-85789999D01*
G75*
G02*
X119199999Y-85540000I249999J0D01*
G01*
G37*
G36*
G01*
X119199999Y-83490000D02*
X120100001Y-83490000D01*
G75*
G02*
X120350000Y-83739999I0J-249999D01*
G01*
X120350000Y-84390001D01*
G75*
G02*
X120100001Y-84640000I-249999J0D01*
G01*
X119199999Y-84640000D01*
G75*
G02*
X118950000Y-84390001I0J249999D01*
G01*
X118950000Y-83739999D01*
G75*
G02*
X119199999Y-83490000I249999J0D01*
G01*
G37*
%TD*%
%TO.C,R7*%
G36*
G01*
X114119999Y-85540000D02*
X115020001Y-85540000D01*
G75*
G02*
X115270000Y-85789999I0J-249999D01*
G01*
X115270000Y-86440001D01*
G75*
G02*
X115020001Y-86690000I-249999J0D01*
G01*
X114119999Y-86690000D01*
G75*
G02*
X113870000Y-86440001I0J249999D01*
G01*
X113870000Y-85789999D01*
G75*
G02*
X114119999Y-85540000I249999J0D01*
G01*
G37*
G36*
G01*
X114119999Y-83490000D02*
X115020001Y-83490000D01*
G75*
G02*
X115270000Y-83739999I0J-249999D01*
G01*
X115270000Y-84390001D01*
G75*
G02*
X115020001Y-84640000I-249999J0D01*
G01*
X114119999Y-84640000D01*
G75*
G02*
X113870000Y-84390001I0J249999D01*
G01*
X113870000Y-83739999D01*
G75*
G02*
X114119999Y-83490000I249999J0D01*
G01*
G37*
%TD*%
%TO.C,R6*%
G36*
G01*
X111579999Y-85540000D02*
X112480001Y-85540000D01*
G75*
G02*
X112730000Y-85789999I0J-249999D01*
G01*
X112730000Y-86440001D01*
G75*
G02*
X112480001Y-86690000I-249999J0D01*
G01*
X111579999Y-86690000D01*
G75*
G02*
X111330000Y-86440001I0J249999D01*
G01*
X111330000Y-85789999D01*
G75*
G02*
X111579999Y-85540000I249999J0D01*
G01*
G37*
G36*
G01*
X111579999Y-83490000D02*
X112480001Y-83490000D01*
G75*
G02*
X112730000Y-83739999I0J-249999D01*
G01*
X112730000Y-84390001D01*
G75*
G02*
X112480001Y-84640000I-249999J0D01*
G01*
X111579999Y-84640000D01*
G75*
G02*
X111330000Y-84390001I0J249999D01*
G01*
X111330000Y-83739999D01*
G75*
G02*
X111579999Y-83490000I249999J0D01*
G01*
G37*
%TD*%
%TO.C,R4*%
G36*
G01*
X119199999Y-78920000D02*
X120100001Y-78920000D01*
G75*
G02*
X120350000Y-79169999I0J-249999D01*
G01*
X120350000Y-79820001D01*
G75*
G02*
X120100001Y-80070000I-249999J0D01*
G01*
X119199999Y-80070000D01*
G75*
G02*
X118950000Y-79820001I0J249999D01*
G01*
X118950000Y-79169999D01*
G75*
G02*
X119199999Y-78920000I249999J0D01*
G01*
G37*
G36*
G01*
X119199999Y-76870000D02*
X120100001Y-76870000D01*
G75*
G02*
X120350000Y-77119999I0J-249999D01*
G01*
X120350000Y-77770001D01*
G75*
G02*
X120100001Y-78020000I-249999J0D01*
G01*
X119199999Y-78020000D01*
G75*
G02*
X118950000Y-77770001I0J249999D01*
G01*
X118950000Y-77119999D01*
G75*
G02*
X119199999Y-76870000I249999J0D01*
G01*
G37*
%TD*%
%TO.C,R3*%
G36*
G01*
X116659999Y-78920000D02*
X117560001Y-78920000D01*
G75*
G02*
X117810000Y-79169999I0J-249999D01*
G01*
X117810000Y-79820001D01*
G75*
G02*
X117560001Y-80070000I-249999J0D01*
G01*
X116659999Y-80070000D01*
G75*
G02*
X116410000Y-79820001I0J249999D01*
G01*
X116410000Y-79169999D01*
G75*
G02*
X116659999Y-78920000I249999J0D01*
G01*
G37*
G36*
G01*
X116659999Y-76870000D02*
X117560001Y-76870000D01*
G75*
G02*
X117810000Y-77119999I0J-249999D01*
G01*
X117810000Y-77770001D01*
G75*
G02*
X117560001Y-78020000I-249999J0D01*
G01*
X116659999Y-78020000D01*
G75*
G02*
X116410000Y-77770001I0J249999D01*
G01*
X116410000Y-77119999D01*
G75*
G02*
X116659999Y-76870000I249999J0D01*
G01*
G37*
%TD*%
%TO.C,R2*%
G36*
G01*
X114119999Y-78920000D02*
X115020001Y-78920000D01*
G75*
G02*
X115270000Y-79169999I0J-249999D01*
G01*
X115270000Y-79820001D01*
G75*
G02*
X115020001Y-80070000I-249999J0D01*
G01*
X114119999Y-80070000D01*
G75*
G02*
X113870000Y-79820001I0J249999D01*
G01*
X113870000Y-79169999D01*
G75*
G02*
X114119999Y-78920000I249999J0D01*
G01*
G37*
G36*
G01*
X114119999Y-76870000D02*
X115020001Y-76870000D01*
G75*
G02*
X115270000Y-77119999I0J-249999D01*
G01*
X115270000Y-77770001D01*
G75*
G02*
X115020001Y-78020000I-249999J0D01*
G01*
X114119999Y-78020000D01*
G75*
G02*
X113870000Y-77770001I0J249999D01*
G01*
X113870000Y-77119999D01*
G75*
G02*
X114119999Y-76870000I249999J0D01*
G01*
G37*
%TD*%
%TO.C,R1*%
G36*
G01*
X111579999Y-78920000D02*
X112480001Y-78920000D01*
G75*
G02*
X112730000Y-79169999I0J-249999D01*
G01*
X112730000Y-79820001D01*
G75*
G02*
X112480001Y-80070000I-249999J0D01*
G01*
X111579999Y-80070000D01*
G75*
G02*
X111330000Y-79820001I0J249999D01*
G01*
X111330000Y-79169999D01*
G75*
G02*
X111579999Y-78920000I249999J0D01*
G01*
G37*
G36*
G01*
X111579999Y-76870000D02*
X112480001Y-76870000D01*
G75*
G02*
X112730000Y-77119999I0J-249999D01*
G01*
X112730000Y-77770001D01*
G75*
G02*
X112480001Y-78020000I-249999J0D01*
G01*
X111579999Y-78020000D01*
G75*
G02*
X111330000Y-77770001I0J249999D01*
G01*
X111330000Y-77119999D01*
G75*
G02*
X111579999Y-76870000I249999J0D01*
G01*
G37*
%TD*%
%TO.C,R0*%
G36*
G01*
X109039999Y-78920000D02*
X109940001Y-78920000D01*
G75*
G02*
X110190000Y-79169999I0J-249999D01*
G01*
X110190000Y-79820001D01*
G75*
G02*
X109940001Y-80070000I-249999J0D01*
G01*
X109039999Y-80070000D01*
G75*
G02*
X108790000Y-79820001I0J249999D01*
G01*
X108790000Y-79169999D01*
G75*
G02*
X109039999Y-78920000I249999J0D01*
G01*
G37*
G36*
G01*
X109039999Y-76870000D02*
X109940001Y-76870000D01*
G75*
G02*
X110190000Y-77119999I0J-249999D01*
G01*
X110190000Y-77770001D01*
G75*
G02*
X109940001Y-78020000I-249999J0D01*
G01*
X109039999Y-78020000D01*
G75*
G02*
X108790000Y-77770001I0J249999D01*
G01*
X108790000Y-77119999D01*
G75*
G02*
X109039999Y-76870000I249999J0D01*
G01*
G37*
%TD*%
D10*
%TO.C,J15*%
X127345440Y-71198740D03*
D11*
X129885440Y-71198740D03*
X132425440Y-71198740D03*
%TD*%
D10*
%TO.C,J14*%
X127345440Y-73873360D03*
D11*
X129885440Y-73873360D03*
X132425440Y-73873360D03*
%TD*%
D10*
%TO.C,J13*%
X127345440Y-76540360D03*
D11*
X129885440Y-76540360D03*
X132425440Y-76540360D03*
%TD*%
D10*
%TO.C,J12*%
X127345440Y-79220060D03*
D11*
X129885440Y-79220060D03*
X132425440Y-79220060D03*
%TD*%
%TO.C,J17*%
G36*
G01*
X117250000Y-131575000D02*
X117250000Y-129825000D01*
G75*
G02*
X118125000Y-128950000I875000J0D01*
G01*
X119875000Y-128950000D01*
G75*
G02*
X120750000Y-129825000I0J-875000D01*
G01*
X120750000Y-131575000D01*
G75*
G02*
X119875000Y-132450000I-875000J0D01*
G01*
X118125000Y-132450000D01*
G75*
G02*
X117250000Y-131575000I0J875000D01*
G01*
G37*
G36*
G01*
X114500000Y-127000000D02*
X114500000Y-125000000D01*
G75*
G02*
X115250000Y-124250000I750000J0D01*
G01*
X116750000Y-124250000D01*
G75*
G02*
X117500000Y-125000000I0J-750000D01*
G01*
X117500000Y-127000000D01*
G75*
G02*
X116750000Y-127750000I-750000J0D01*
G01*
X115250000Y-127750000D01*
G75*
G02*
X114500000Y-127000000I0J750000D01*
G01*
G37*
D12*
X122000000Y-126000000D03*
%TD*%
D13*
%TO.C,M3_bottom*%
X104000000Y-130000000D03*
%TD*%
%TO.C,M3_top*%
X104000000Y-72000000D03*
%TD*%
D14*
%TO.C,C1*%
X111760000Y-107950000D03*
D15*
X109260000Y-107950000D03*
%TD*%
D11*
%TO.C,J1*%
X132473700Y-108381800D03*
X129933700Y-108381800D03*
D10*
X127393700Y-108381800D03*
%TD*%
D11*
%TO.C,J2*%
X132461000Y-105722420D03*
X129921000Y-105722420D03*
D10*
X127381000Y-105722420D03*
%TD*%
%TO.C,J4*%
X127370840Y-100451920D03*
D11*
X129910840Y-100451920D03*
X132450840Y-100451920D03*
%TD*%
%TO.C,J5*%
X132450840Y-97792540D03*
X129910840Y-97792540D03*
D10*
X127370840Y-97792540D03*
%TD*%
D11*
%TO.C,J6*%
X132450840Y-95148400D03*
X129910840Y-95148400D03*
D10*
X127370840Y-95148400D03*
%TD*%
D11*
%TO.C,J7*%
X132440680Y-92489020D03*
X129900680Y-92489020D03*
D10*
X127360680Y-92489020D03*
%TD*%
%TO.C,J8*%
X127360680Y-89842340D03*
D11*
X129900680Y-89842340D03*
X132440680Y-89842340D03*
%TD*%
D10*
%TO.C,J9*%
X127360680Y-87195660D03*
D11*
X129900680Y-87195660D03*
X132440680Y-87195660D03*
%TD*%
D10*
%TO.C,J10*%
X127370840Y-84548980D03*
D11*
X129910840Y-84548980D03*
X132450840Y-84548980D03*
%TD*%
%TO.C,J11*%
X132427980Y-81904840D03*
X129887980Y-81904840D03*
D10*
X127347980Y-81904840D03*
%TD*%
D16*
%TO.C,J20*%
X130000000Y-119800000D03*
G36*
G01*
X131500000Y-130000000D02*
X128500000Y-130000000D01*
G75*
G02*
X127000000Y-128500000I0J1500000D01*
G01*
X127000000Y-125500000D01*
G75*
G02*
X128500000Y-124000000I1500000J0D01*
G01*
X131500000Y-124000000D01*
G75*
G02*
X133000000Y-125500000I0J-1500000D01*
G01*
X133000000Y-128500000D01*
G75*
G02*
X131500000Y-130000000I-1500000J0D01*
G01*
G37*
%TD*%
D10*
%TO.C,J16*%
X121000000Y-119000000D03*
D11*
X121000000Y-116460000D03*
X121000000Y-113920000D03*
X121000000Y-111380000D03*
X121000000Y-108840000D03*
X121000000Y-106300000D03*
%TD*%
D10*
%TO.C,J_POE0*%
X111300000Y-70310000D03*
D11*
X111300000Y-72850000D03*
%TD*%
%TO.C,J_POE2*%
X108760000Y-72850000D03*
D10*
X108760000Y-70310000D03*
%TD*%
M02*
