%TF.GenerationSoftware,KiCad,Pcbnew,(5.1.6)-1*%
%TF.CreationDate,2020-06-14T06:25:32-07:00*%
%TF.ProjectId,pcb,7063622e-6b69-4636-9164-5f7063625858,rev?*%
%TF.SameCoordinates,Original*%
%TF.FileFunction,Copper,L1,Top*%
%TF.FilePolarity,Positive*%
%FSLAX46Y46*%
G04 Gerber Fmt 4.6, Leading zero omitted, Abs format (unit mm)*
G04 Created by KiCad (PCBNEW (5.1.6)-1) date 2020-06-14 06:25:32*
%MOMM*%
%LPD*%
G01*
G04 APERTURE LIST*
%TA.AperFunction,ComponentPad*%
%ADD10R,1.700000X1.700000*%
%TD*%
%TA.AperFunction,ComponentPad*%
%ADD11O,1.700000X1.700000*%
%TD*%
%TA.AperFunction,ComponentPad*%
%ADD12R,3.500000X3.500000*%
%TD*%
%TA.AperFunction,ComponentPad*%
%ADD13R,1.600000X1.600000*%
%TD*%
%TA.AperFunction,ComponentPad*%
%ADD14C,1.600000*%
%TD*%
%TA.AperFunction,ComponentPad*%
%ADD15C,6.000000*%
%TD*%
%TA.AperFunction,ViaPad*%
%ADD16C,0.800000*%
%TD*%
%TA.AperFunction,Conductor*%
%ADD17C,0.400000*%
%TD*%
%TA.AperFunction,Conductor*%
%ADD18C,0.250000*%
%TD*%
%TA.AperFunction,Conductor*%
%ADD19C,0.254000*%
%TD*%
G04 APERTURE END LIST*
%TO.P,U0,28*%
%TO.N,+3V3*%
%TA.AperFunction,SMDPad,CuDef*%
G36*
G01*
X110875000Y-93875000D02*
X110675000Y-93875000D01*
G75*
G02*
X110575000Y-93775000I0J100000D01*
G01*
X110575000Y-92500000D01*
G75*
G02*
X110675000Y-92400000I100000J0D01*
G01*
X110875000Y-92400000D01*
G75*
G02*
X110975000Y-92500000I0J-100000D01*
G01*
X110975000Y-93775000D01*
G75*
G02*
X110875000Y-93875000I-100000J0D01*
G01*
G37*
%TD.AperFunction*%
%TO.P,U0,27*%
%TO.N,/SDA*%
%TA.AperFunction,SMDPad,CuDef*%
G36*
G01*
X111525000Y-93875000D02*
X111325000Y-93875000D01*
G75*
G02*
X111225000Y-93775000I0J100000D01*
G01*
X111225000Y-92500000D01*
G75*
G02*
X111325000Y-92400000I100000J0D01*
G01*
X111525000Y-92400000D01*
G75*
G02*
X111625000Y-92500000I0J-100000D01*
G01*
X111625000Y-93775000D01*
G75*
G02*
X111525000Y-93875000I-100000J0D01*
G01*
G37*
%TD.AperFunction*%
%TO.P,U0,26*%
%TO.N,/SCL*%
%TA.AperFunction,SMDPad,CuDef*%
G36*
G01*
X112175000Y-93875000D02*
X111975000Y-93875000D01*
G75*
G02*
X111875000Y-93775000I0J100000D01*
G01*
X111875000Y-92500000D01*
G75*
G02*
X111975000Y-92400000I100000J0D01*
G01*
X112175000Y-92400000D01*
G75*
G02*
X112275000Y-92500000I0J-100000D01*
G01*
X112275000Y-93775000D01*
G75*
G02*
X112175000Y-93875000I-100000J0D01*
G01*
G37*
%TD.AperFunction*%
%TO.P,U0,25*%
%TO.N,GND*%
%TA.AperFunction,SMDPad,CuDef*%
G36*
G01*
X112825000Y-93875000D02*
X112625000Y-93875000D01*
G75*
G02*
X112525000Y-93775000I0J100000D01*
G01*
X112525000Y-92500000D01*
G75*
G02*
X112625000Y-92400000I100000J0D01*
G01*
X112825000Y-92400000D01*
G75*
G02*
X112925000Y-92500000I0J-100000D01*
G01*
X112925000Y-93775000D01*
G75*
G02*
X112825000Y-93875000I-100000J0D01*
G01*
G37*
%TD.AperFunction*%
%TO.P,U0,24*%
%TA.AperFunction,SMDPad,CuDef*%
G36*
G01*
X113475000Y-93875000D02*
X113275000Y-93875000D01*
G75*
G02*
X113175000Y-93775000I0J100000D01*
G01*
X113175000Y-92500000D01*
G75*
G02*
X113275000Y-92400000I100000J0D01*
G01*
X113475000Y-92400000D01*
G75*
G02*
X113575000Y-92500000I0J-100000D01*
G01*
X113575000Y-93775000D01*
G75*
G02*
X113475000Y-93875000I-100000J0D01*
G01*
G37*
%TD.AperFunction*%
%TO.P,U0,23*%
%TA.AperFunction,SMDPad,CuDef*%
G36*
G01*
X114125000Y-93875000D02*
X113925000Y-93875000D01*
G75*
G02*
X113825000Y-93775000I0J100000D01*
G01*
X113825000Y-92500000D01*
G75*
G02*
X113925000Y-92400000I100000J0D01*
G01*
X114125000Y-92400000D01*
G75*
G02*
X114225000Y-92500000I0J-100000D01*
G01*
X114225000Y-93775000D01*
G75*
G02*
X114125000Y-93875000I-100000J0D01*
G01*
G37*
%TD.AperFunction*%
%TO.P,U0,22*%
%TO.N,/S15*%
%TA.AperFunction,SMDPad,CuDef*%
G36*
G01*
X114775000Y-93875000D02*
X114575000Y-93875000D01*
G75*
G02*
X114475000Y-93775000I0J100000D01*
G01*
X114475000Y-92500000D01*
G75*
G02*
X114575000Y-92400000I100000J0D01*
G01*
X114775000Y-92400000D01*
G75*
G02*
X114875000Y-92500000I0J-100000D01*
G01*
X114875000Y-93775000D01*
G75*
G02*
X114775000Y-93875000I-100000J0D01*
G01*
G37*
%TD.AperFunction*%
%TO.P,U0,21*%
%TO.N,/S14*%
%TA.AperFunction,SMDPad,CuDef*%
G36*
G01*
X115425000Y-93875000D02*
X115225000Y-93875000D01*
G75*
G02*
X115125000Y-93775000I0J100000D01*
G01*
X115125000Y-92500000D01*
G75*
G02*
X115225000Y-92400000I100000J0D01*
G01*
X115425000Y-92400000D01*
G75*
G02*
X115525000Y-92500000I0J-100000D01*
G01*
X115525000Y-93775000D01*
G75*
G02*
X115425000Y-93875000I-100000J0D01*
G01*
G37*
%TD.AperFunction*%
%TO.P,U0,20*%
%TO.N,/S13*%
%TA.AperFunction,SMDPad,CuDef*%
G36*
G01*
X116075000Y-93875000D02*
X115875000Y-93875000D01*
G75*
G02*
X115775000Y-93775000I0J100000D01*
G01*
X115775000Y-92500000D01*
G75*
G02*
X115875000Y-92400000I100000J0D01*
G01*
X116075000Y-92400000D01*
G75*
G02*
X116175000Y-92500000I0J-100000D01*
G01*
X116175000Y-93775000D01*
G75*
G02*
X116075000Y-93875000I-100000J0D01*
G01*
G37*
%TD.AperFunction*%
%TO.P,U0,19*%
%TO.N,/S12*%
%TA.AperFunction,SMDPad,CuDef*%
G36*
G01*
X116725000Y-93875000D02*
X116525000Y-93875000D01*
G75*
G02*
X116425000Y-93775000I0J100000D01*
G01*
X116425000Y-92500000D01*
G75*
G02*
X116525000Y-92400000I100000J0D01*
G01*
X116725000Y-92400000D01*
G75*
G02*
X116825000Y-92500000I0J-100000D01*
G01*
X116825000Y-93775000D01*
G75*
G02*
X116725000Y-93875000I-100000J0D01*
G01*
G37*
%TD.AperFunction*%
%TO.P,U0,18*%
%TO.N,/S11*%
%TA.AperFunction,SMDPad,CuDef*%
G36*
G01*
X117375000Y-93875000D02*
X117175000Y-93875000D01*
G75*
G02*
X117075000Y-93775000I0J100000D01*
G01*
X117075000Y-92500000D01*
G75*
G02*
X117175000Y-92400000I100000J0D01*
G01*
X117375000Y-92400000D01*
G75*
G02*
X117475000Y-92500000I0J-100000D01*
G01*
X117475000Y-93775000D01*
G75*
G02*
X117375000Y-93875000I-100000J0D01*
G01*
G37*
%TD.AperFunction*%
%TO.P,U0,17*%
%TO.N,/S10*%
%TA.AperFunction,SMDPad,CuDef*%
G36*
G01*
X118025000Y-93875000D02*
X117825000Y-93875000D01*
G75*
G02*
X117725000Y-93775000I0J100000D01*
G01*
X117725000Y-92500000D01*
G75*
G02*
X117825000Y-92400000I100000J0D01*
G01*
X118025000Y-92400000D01*
G75*
G02*
X118125000Y-92500000I0J-100000D01*
G01*
X118125000Y-93775000D01*
G75*
G02*
X118025000Y-93875000I-100000J0D01*
G01*
G37*
%TD.AperFunction*%
%TO.P,U0,16*%
%TO.N,/S9*%
%TA.AperFunction,SMDPad,CuDef*%
G36*
G01*
X118675000Y-93875000D02*
X118475000Y-93875000D01*
G75*
G02*
X118375000Y-93775000I0J100000D01*
G01*
X118375000Y-92500000D01*
G75*
G02*
X118475000Y-92400000I100000J0D01*
G01*
X118675000Y-92400000D01*
G75*
G02*
X118775000Y-92500000I0J-100000D01*
G01*
X118775000Y-93775000D01*
G75*
G02*
X118675000Y-93875000I-100000J0D01*
G01*
G37*
%TD.AperFunction*%
%TO.P,U0,15*%
%TO.N,/S8*%
%TA.AperFunction,SMDPad,CuDef*%
G36*
G01*
X119325000Y-93875000D02*
X119125000Y-93875000D01*
G75*
G02*
X119025000Y-93775000I0J100000D01*
G01*
X119025000Y-92500000D01*
G75*
G02*
X119125000Y-92400000I100000J0D01*
G01*
X119325000Y-92400000D01*
G75*
G02*
X119425000Y-92500000I0J-100000D01*
G01*
X119425000Y-93775000D01*
G75*
G02*
X119325000Y-93875000I-100000J0D01*
G01*
G37*
%TD.AperFunction*%
%TO.P,U0,14*%
%TO.N,GND*%
%TA.AperFunction,SMDPad,CuDef*%
G36*
G01*
X119325000Y-99600000D02*
X119125000Y-99600000D01*
G75*
G02*
X119025000Y-99500000I0J100000D01*
G01*
X119025000Y-98225000D01*
G75*
G02*
X119125000Y-98125000I100000J0D01*
G01*
X119325000Y-98125000D01*
G75*
G02*
X119425000Y-98225000I0J-100000D01*
G01*
X119425000Y-99500000D01*
G75*
G02*
X119325000Y-99600000I-100000J0D01*
G01*
G37*
%TD.AperFunction*%
%TO.P,U0,13*%
%TO.N,/S7*%
%TA.AperFunction,SMDPad,CuDef*%
G36*
G01*
X118675000Y-99600000D02*
X118475000Y-99600000D01*
G75*
G02*
X118375000Y-99500000I0J100000D01*
G01*
X118375000Y-98225000D01*
G75*
G02*
X118475000Y-98125000I100000J0D01*
G01*
X118675000Y-98125000D01*
G75*
G02*
X118775000Y-98225000I0J-100000D01*
G01*
X118775000Y-99500000D01*
G75*
G02*
X118675000Y-99600000I-100000J0D01*
G01*
G37*
%TD.AperFunction*%
%TO.P,U0,12*%
%TO.N,/S6*%
%TA.AperFunction,SMDPad,CuDef*%
G36*
G01*
X118025000Y-99600000D02*
X117825000Y-99600000D01*
G75*
G02*
X117725000Y-99500000I0J100000D01*
G01*
X117725000Y-98225000D01*
G75*
G02*
X117825000Y-98125000I100000J0D01*
G01*
X118025000Y-98125000D01*
G75*
G02*
X118125000Y-98225000I0J-100000D01*
G01*
X118125000Y-99500000D01*
G75*
G02*
X118025000Y-99600000I-100000J0D01*
G01*
G37*
%TD.AperFunction*%
%TO.P,U0,11*%
%TO.N,/S5*%
%TA.AperFunction,SMDPad,CuDef*%
G36*
G01*
X117375000Y-99600000D02*
X117175000Y-99600000D01*
G75*
G02*
X117075000Y-99500000I0J100000D01*
G01*
X117075000Y-98225000D01*
G75*
G02*
X117175000Y-98125000I100000J0D01*
G01*
X117375000Y-98125000D01*
G75*
G02*
X117475000Y-98225000I0J-100000D01*
G01*
X117475000Y-99500000D01*
G75*
G02*
X117375000Y-99600000I-100000J0D01*
G01*
G37*
%TD.AperFunction*%
%TO.P,U0,10*%
%TO.N,/S4*%
%TA.AperFunction,SMDPad,CuDef*%
G36*
G01*
X116725000Y-99600000D02*
X116525000Y-99600000D01*
G75*
G02*
X116425000Y-99500000I0J100000D01*
G01*
X116425000Y-98225000D01*
G75*
G02*
X116525000Y-98125000I100000J0D01*
G01*
X116725000Y-98125000D01*
G75*
G02*
X116825000Y-98225000I0J-100000D01*
G01*
X116825000Y-99500000D01*
G75*
G02*
X116725000Y-99600000I-100000J0D01*
G01*
G37*
%TD.AperFunction*%
%TO.P,U0,9*%
%TO.N,/S3*%
%TA.AperFunction,SMDPad,CuDef*%
G36*
G01*
X116075000Y-99600000D02*
X115875000Y-99600000D01*
G75*
G02*
X115775000Y-99500000I0J100000D01*
G01*
X115775000Y-98225000D01*
G75*
G02*
X115875000Y-98125000I100000J0D01*
G01*
X116075000Y-98125000D01*
G75*
G02*
X116175000Y-98225000I0J-100000D01*
G01*
X116175000Y-99500000D01*
G75*
G02*
X116075000Y-99600000I-100000J0D01*
G01*
G37*
%TD.AperFunction*%
%TO.P,U0,8*%
%TO.N,/S2*%
%TA.AperFunction,SMDPad,CuDef*%
G36*
G01*
X115425000Y-99600000D02*
X115225000Y-99600000D01*
G75*
G02*
X115125000Y-99500000I0J100000D01*
G01*
X115125000Y-98225000D01*
G75*
G02*
X115225000Y-98125000I100000J0D01*
G01*
X115425000Y-98125000D01*
G75*
G02*
X115525000Y-98225000I0J-100000D01*
G01*
X115525000Y-99500000D01*
G75*
G02*
X115425000Y-99600000I-100000J0D01*
G01*
G37*
%TD.AperFunction*%
%TO.P,U0,7*%
%TO.N,/S1*%
%TA.AperFunction,SMDPad,CuDef*%
G36*
G01*
X114775000Y-99600000D02*
X114575000Y-99600000D01*
G75*
G02*
X114475000Y-99500000I0J100000D01*
G01*
X114475000Y-98225000D01*
G75*
G02*
X114575000Y-98125000I100000J0D01*
G01*
X114775000Y-98125000D01*
G75*
G02*
X114875000Y-98225000I0J-100000D01*
G01*
X114875000Y-99500000D01*
G75*
G02*
X114775000Y-99600000I-100000J0D01*
G01*
G37*
%TD.AperFunction*%
%TO.P,U0,6*%
%TO.N,/S0*%
%TA.AperFunction,SMDPad,CuDef*%
G36*
G01*
X114125000Y-99600000D02*
X113925000Y-99600000D01*
G75*
G02*
X113825000Y-99500000I0J100000D01*
G01*
X113825000Y-98225000D01*
G75*
G02*
X113925000Y-98125000I100000J0D01*
G01*
X114125000Y-98125000D01*
G75*
G02*
X114225000Y-98225000I0J-100000D01*
G01*
X114225000Y-99500000D01*
G75*
G02*
X114125000Y-99600000I-100000J0D01*
G01*
G37*
%TD.AperFunction*%
%TO.P,U0,5*%
%TO.N,/A4*%
%TA.AperFunction,SMDPad,CuDef*%
G36*
G01*
X113475000Y-99600000D02*
X113275000Y-99600000D01*
G75*
G02*
X113175000Y-99500000I0J100000D01*
G01*
X113175000Y-98225000D01*
G75*
G02*
X113275000Y-98125000I100000J0D01*
G01*
X113475000Y-98125000D01*
G75*
G02*
X113575000Y-98225000I0J-100000D01*
G01*
X113575000Y-99500000D01*
G75*
G02*
X113475000Y-99600000I-100000J0D01*
G01*
G37*
%TD.AperFunction*%
%TO.P,U0,4*%
%TO.N,/A3*%
%TA.AperFunction,SMDPad,CuDef*%
G36*
G01*
X112825000Y-99600000D02*
X112625000Y-99600000D01*
G75*
G02*
X112525000Y-99500000I0J100000D01*
G01*
X112525000Y-98225000D01*
G75*
G02*
X112625000Y-98125000I100000J0D01*
G01*
X112825000Y-98125000D01*
G75*
G02*
X112925000Y-98225000I0J-100000D01*
G01*
X112925000Y-99500000D01*
G75*
G02*
X112825000Y-99600000I-100000J0D01*
G01*
G37*
%TD.AperFunction*%
%TO.P,U0,3*%
%TO.N,/A2*%
%TA.AperFunction,SMDPad,CuDef*%
G36*
G01*
X112175000Y-99600000D02*
X111975000Y-99600000D01*
G75*
G02*
X111875000Y-99500000I0J100000D01*
G01*
X111875000Y-98225000D01*
G75*
G02*
X111975000Y-98125000I100000J0D01*
G01*
X112175000Y-98125000D01*
G75*
G02*
X112275000Y-98225000I0J-100000D01*
G01*
X112275000Y-99500000D01*
G75*
G02*
X112175000Y-99600000I-100000J0D01*
G01*
G37*
%TD.AperFunction*%
%TO.P,U0,2*%
%TO.N,/A1*%
%TA.AperFunction,SMDPad,CuDef*%
G36*
G01*
X111525000Y-99600000D02*
X111325000Y-99600000D01*
G75*
G02*
X111225000Y-99500000I0J100000D01*
G01*
X111225000Y-98225000D01*
G75*
G02*
X111325000Y-98125000I100000J0D01*
G01*
X111525000Y-98125000D01*
G75*
G02*
X111625000Y-98225000I0J-100000D01*
G01*
X111625000Y-99500000D01*
G75*
G02*
X111525000Y-99600000I-100000J0D01*
G01*
G37*
%TD.AperFunction*%
%TO.P,U0,1*%
%TO.N,/A0*%
%TA.AperFunction,SMDPad,CuDef*%
G36*
G01*
X110875000Y-99600000D02*
X110675000Y-99600000D01*
G75*
G02*
X110575000Y-99500000I0J100000D01*
G01*
X110575000Y-98225000D01*
G75*
G02*
X110675000Y-98125000I100000J0D01*
G01*
X110875000Y-98125000D01*
G75*
G02*
X110975000Y-98225000I0J-100000D01*
G01*
X110975000Y-99500000D01*
G75*
G02*
X110875000Y-99600000I-100000J0D01*
G01*
G37*
%TD.AperFunction*%
%TD*%
D10*
%TO.P,pi1,1*%
%TO.N,+3V3*%
X105000000Y-125000000D03*
D11*
%TO.P,pi1,2*%
%TO.N,+5V*%
X102460000Y-125000000D03*
%TO.P,pi1,3*%
%TO.N,/SDA*%
X105000000Y-122460000D03*
%TO.P,pi1,4*%
%TO.N,+5V*%
X102460000Y-122460000D03*
%TO.P,pi1,5*%
%TO.N,/SCL*%
X105000000Y-119920000D03*
%TO.P,pi1,6*%
%TO.N,GND*%
X102460000Y-119920000D03*
%TO.P,pi1,7*%
%TO.N,Net-(pi1-Pad7)*%
X105000000Y-117380000D03*
%TO.P,pi1,8*%
%TO.N,Net-(pi1-Pad8)*%
X102460000Y-117380000D03*
%TO.P,pi1,9*%
%TO.N,GND*%
X105000000Y-114840000D03*
%TO.P,pi1,10*%
%TO.N,Net-(pi1-Pad10)*%
X102460000Y-114840000D03*
%TO.P,pi1,11*%
%TO.N,Net-(pi1-Pad11)*%
X105000000Y-112300000D03*
%TO.P,pi1,12*%
%TO.N,Net-(pi1-Pad12)*%
X102460000Y-112300000D03*
%TO.P,pi1,13*%
%TO.N,Net-(pi1-Pad13)*%
X105000000Y-109760000D03*
%TO.P,pi1,14*%
%TO.N,GND*%
X102460000Y-109760000D03*
%TO.P,pi1,15*%
%TO.N,Net-(pi1-Pad15)*%
X105000000Y-107220000D03*
%TO.P,pi1,16*%
%TO.N,Net-(pi1-Pad16)*%
X102460000Y-107220000D03*
%TO.P,pi1,17*%
%TO.N,+3V3*%
X105000000Y-104680000D03*
%TO.P,pi1,18*%
%TO.N,Net-(pi1-Pad18)*%
X102460000Y-104680000D03*
%TO.P,pi1,19*%
%TO.N,Net-(pi1-Pad19)*%
X105000000Y-102140000D03*
%TO.P,pi1,20*%
%TO.N,GND*%
X102460000Y-102140000D03*
%TO.P,pi1,21*%
%TO.N,Net-(pi1-Pad21)*%
X105000000Y-99600000D03*
%TO.P,pi1,22*%
%TO.N,Net-(pi1-Pad22)*%
X102460000Y-99600000D03*
%TO.P,pi1,23*%
%TO.N,Net-(pi1-Pad23)*%
X105000000Y-97060000D03*
%TO.P,pi1,24*%
%TO.N,Net-(pi1-Pad24)*%
X102460000Y-97060000D03*
%TO.P,pi1,25*%
%TO.N,GND*%
X105000000Y-94520000D03*
%TO.P,pi1,26*%
%TO.N,Net-(pi1-Pad26)*%
X102460000Y-94520000D03*
%TO.P,pi1,27*%
%TO.N,Net-(pi1-Pad27)*%
X105000000Y-91980000D03*
%TO.P,pi1,28*%
%TO.N,Net-(pi1-Pad28)*%
X102460000Y-91980000D03*
%TO.P,pi1,29*%
%TO.N,Net-(pi1-Pad29)*%
X105000000Y-89440000D03*
%TO.P,pi1,30*%
%TO.N,GND*%
X102460000Y-89440000D03*
%TO.P,pi1,31*%
%TO.N,Net-(pi1-Pad31)*%
X105000000Y-86900000D03*
%TO.P,pi1,32*%
%TO.N,Net-(pi1-Pad32)*%
X102460000Y-86900000D03*
%TO.P,pi1,33*%
%TO.N,Net-(pi1-Pad33)*%
X105000000Y-84360000D03*
%TO.P,pi1,34*%
%TO.N,GND*%
X102460000Y-84360000D03*
%TO.P,pi1,35*%
%TO.N,Net-(pi1-Pad35)*%
X105000000Y-81820000D03*
%TO.P,pi1,36*%
%TO.N,Net-(pi1-Pad36)*%
X102460000Y-81820000D03*
%TO.P,pi1,37*%
%TO.N,Net-(pi1-Pad37)*%
X105000000Y-79280000D03*
%TO.P,pi1,38*%
%TO.N,Net-(pi1-Pad38)*%
X102460000Y-79280000D03*
%TO.P,pi1,39*%
%TO.N,GND*%
X105000000Y-76740000D03*
%TO.P,pi1,40*%
%TO.N,Net-(pi1-Pad40)*%
X102460000Y-76740000D03*
%TD*%
%TO.P,R8,2*%
%TO.N,GND*%
%TA.AperFunction,SMDPad,CuDef*%
G36*
G01*
X116659999Y-85540000D02*
X117560001Y-85540000D01*
G75*
G02*
X117810000Y-85789999I0J-249999D01*
G01*
X117810000Y-86440001D01*
G75*
G02*
X117560001Y-86690000I-249999J0D01*
G01*
X116659999Y-86690000D01*
G75*
G02*
X116410000Y-86440001I0J249999D01*
G01*
X116410000Y-85789999D01*
G75*
G02*
X116659999Y-85540000I249999J0D01*
G01*
G37*
%TD.AperFunction*%
%TO.P,R8,1*%
%TO.N,/A3*%
%TA.AperFunction,SMDPad,CuDef*%
G36*
G01*
X116659999Y-83490000D02*
X117560001Y-83490000D01*
G75*
G02*
X117810000Y-83739999I0J-249999D01*
G01*
X117810000Y-84390001D01*
G75*
G02*
X117560001Y-84640000I-249999J0D01*
G01*
X116659999Y-84640000D01*
G75*
G02*
X116410000Y-84390001I0J249999D01*
G01*
X116410000Y-83739999D01*
G75*
G02*
X116659999Y-83490000I249999J0D01*
G01*
G37*
%TD.AperFunction*%
%TD*%
%TO.P,R5,2*%
%TO.N,GND*%
%TA.AperFunction,SMDPad,CuDef*%
G36*
G01*
X109039999Y-85540000D02*
X109940001Y-85540000D01*
G75*
G02*
X110190000Y-85789999I0J-249999D01*
G01*
X110190000Y-86440001D01*
G75*
G02*
X109940001Y-86690000I-249999J0D01*
G01*
X109039999Y-86690000D01*
G75*
G02*
X108790000Y-86440001I0J249999D01*
G01*
X108790000Y-85789999D01*
G75*
G02*
X109039999Y-85540000I249999J0D01*
G01*
G37*
%TD.AperFunction*%
%TO.P,R5,1*%
%TO.N,/A0*%
%TA.AperFunction,SMDPad,CuDef*%
G36*
G01*
X109039999Y-83490000D02*
X109940001Y-83490000D01*
G75*
G02*
X110190000Y-83739999I0J-249999D01*
G01*
X110190000Y-84390001D01*
G75*
G02*
X109940001Y-84640000I-249999J0D01*
G01*
X109039999Y-84640000D01*
G75*
G02*
X108790000Y-84390001I0J249999D01*
G01*
X108790000Y-83739999D01*
G75*
G02*
X109039999Y-83490000I249999J0D01*
G01*
G37*
%TD.AperFunction*%
%TD*%
D10*
%TO.P,J3,1*%
%TO.N,/S3*%
X127381000Y-103075740D03*
D11*
%TO.P,J3,2*%
%TO.N,VDD*%
X129921000Y-103075740D03*
%TO.P,J3,3*%
%TO.N,GND*%
X132461000Y-103075740D03*
%TD*%
D10*
%TO.P,J0,1*%
%TO.N,/S0*%
X127393700Y-111028480D03*
D11*
%TO.P,J0,2*%
%TO.N,VDD*%
X129933700Y-111028480D03*
%TO.P,J0,3*%
%TO.N,GND*%
X132473700Y-111028480D03*
%TD*%
%TO.P,R12,2*%
%TO.N,Net-(D3-Pad2)*%
%TA.AperFunction,SMDPad,CuDef*%
G36*
G01*
X114550000Y-118549999D02*
X114550000Y-119450001D01*
G75*
G02*
X114300001Y-119700000I-249999J0D01*
G01*
X113649999Y-119700000D01*
G75*
G02*
X113400000Y-119450001I0J249999D01*
G01*
X113400000Y-118549999D01*
G75*
G02*
X113649999Y-118300000I249999J0D01*
G01*
X114300001Y-118300000D01*
G75*
G02*
X114550000Y-118549999I0J-249999D01*
G01*
G37*
%TD.AperFunction*%
%TO.P,R12,1*%
%TO.N,VDD*%
%TA.AperFunction,SMDPad,CuDef*%
G36*
G01*
X116600000Y-118549999D02*
X116600000Y-119450001D01*
G75*
G02*
X116350001Y-119700000I-249999J0D01*
G01*
X115699999Y-119700000D01*
G75*
G02*
X115450000Y-119450001I0J249999D01*
G01*
X115450000Y-118549999D01*
G75*
G02*
X115699999Y-118300000I249999J0D01*
G01*
X116350001Y-118300000D01*
G75*
G02*
X116600000Y-118549999I0J-249999D01*
G01*
G37*
%TD.AperFunction*%
%TD*%
%TO.P,R11,2*%
%TO.N,Net-(D2-Pad2)*%
%TA.AperFunction,SMDPad,CuDef*%
G36*
G01*
X114550000Y-115549999D02*
X114550000Y-116450001D01*
G75*
G02*
X114300001Y-116700000I-249999J0D01*
G01*
X113649999Y-116700000D01*
G75*
G02*
X113400000Y-116450001I0J249999D01*
G01*
X113400000Y-115549999D01*
G75*
G02*
X113649999Y-115300000I249999J0D01*
G01*
X114300001Y-115300000D01*
G75*
G02*
X114550000Y-115549999I0J-249999D01*
G01*
G37*
%TD.AperFunction*%
%TO.P,R11,1*%
%TO.N,+5V*%
%TA.AperFunction,SMDPad,CuDef*%
G36*
G01*
X116600000Y-115549999D02*
X116600000Y-116450001D01*
G75*
G02*
X116350001Y-116700000I-249999J0D01*
G01*
X115699999Y-116700000D01*
G75*
G02*
X115450000Y-116450001I0J249999D01*
G01*
X115450000Y-115549999D01*
G75*
G02*
X115699999Y-115300000I249999J0D01*
G01*
X116350001Y-115300000D01*
G75*
G02*
X116600000Y-115549999I0J-249999D01*
G01*
G37*
%TD.AperFunction*%
%TD*%
%TO.P,R10,2*%
%TO.N,Net-(D1-Pad2)*%
%TA.AperFunction,SMDPad,CuDef*%
G36*
G01*
X114550000Y-112549999D02*
X114550000Y-113450001D01*
G75*
G02*
X114300001Y-113700000I-249999J0D01*
G01*
X113649999Y-113700000D01*
G75*
G02*
X113400000Y-113450001I0J249999D01*
G01*
X113400000Y-112549999D01*
G75*
G02*
X113649999Y-112300000I249999J0D01*
G01*
X114300001Y-112300000D01*
G75*
G02*
X114550000Y-112549999I0J-249999D01*
G01*
G37*
%TD.AperFunction*%
%TO.P,R10,1*%
%TO.N,+3V3*%
%TA.AperFunction,SMDPad,CuDef*%
G36*
G01*
X116600000Y-112549999D02*
X116600000Y-113450001D01*
G75*
G02*
X116350001Y-113700000I-249999J0D01*
G01*
X115699999Y-113700000D01*
G75*
G02*
X115450000Y-113450001I0J249999D01*
G01*
X115450000Y-112549999D01*
G75*
G02*
X115699999Y-112300000I249999J0D01*
G01*
X116350001Y-112300000D01*
G75*
G02*
X116600000Y-112549999I0J-249999D01*
G01*
G37*
%TD.AperFunction*%
%TD*%
%TO.P,D3,2*%
%TO.N,Net-(D3-Pad2)*%
%TA.AperFunction,SMDPad,CuDef*%
G36*
G01*
X110450000Y-119450001D02*
X110450000Y-118549999D01*
G75*
G02*
X110699999Y-118300000I249999J0D01*
G01*
X111350001Y-118300000D01*
G75*
G02*
X111600000Y-118549999I0J-249999D01*
G01*
X111600000Y-119450001D01*
G75*
G02*
X111350001Y-119700000I-249999J0D01*
G01*
X110699999Y-119700000D01*
G75*
G02*
X110450000Y-119450001I0J249999D01*
G01*
G37*
%TD.AperFunction*%
%TO.P,D3,1*%
%TO.N,GND*%
%TA.AperFunction,SMDPad,CuDef*%
G36*
G01*
X108400000Y-119450001D02*
X108400000Y-118549999D01*
G75*
G02*
X108649999Y-118300000I249999J0D01*
G01*
X109300001Y-118300000D01*
G75*
G02*
X109550000Y-118549999I0J-249999D01*
G01*
X109550000Y-119450001D01*
G75*
G02*
X109300001Y-119700000I-249999J0D01*
G01*
X108649999Y-119700000D01*
G75*
G02*
X108400000Y-119450001I0J249999D01*
G01*
G37*
%TD.AperFunction*%
%TD*%
%TO.P,D2,2*%
%TO.N,Net-(D2-Pad2)*%
%TA.AperFunction,SMDPad,CuDef*%
G36*
G01*
X110450000Y-116450001D02*
X110450000Y-115549999D01*
G75*
G02*
X110699999Y-115300000I249999J0D01*
G01*
X111350001Y-115300000D01*
G75*
G02*
X111600000Y-115549999I0J-249999D01*
G01*
X111600000Y-116450001D01*
G75*
G02*
X111350001Y-116700000I-249999J0D01*
G01*
X110699999Y-116700000D01*
G75*
G02*
X110450000Y-116450001I0J249999D01*
G01*
G37*
%TD.AperFunction*%
%TO.P,D2,1*%
%TO.N,GND*%
%TA.AperFunction,SMDPad,CuDef*%
G36*
G01*
X108400000Y-116450001D02*
X108400000Y-115549999D01*
G75*
G02*
X108649999Y-115300000I249999J0D01*
G01*
X109300001Y-115300000D01*
G75*
G02*
X109550000Y-115549999I0J-249999D01*
G01*
X109550000Y-116450001D01*
G75*
G02*
X109300001Y-116700000I-249999J0D01*
G01*
X108649999Y-116700000D01*
G75*
G02*
X108400000Y-116450001I0J249999D01*
G01*
G37*
%TD.AperFunction*%
%TD*%
%TO.P,D1,2*%
%TO.N,Net-(D1-Pad2)*%
%TA.AperFunction,SMDPad,CuDef*%
G36*
G01*
X110450000Y-113450001D02*
X110450000Y-112549999D01*
G75*
G02*
X110699999Y-112300000I249999J0D01*
G01*
X111350001Y-112300000D01*
G75*
G02*
X111600000Y-112549999I0J-249999D01*
G01*
X111600000Y-113450001D01*
G75*
G02*
X111350001Y-113700000I-249999J0D01*
G01*
X110699999Y-113700000D01*
G75*
G02*
X110450000Y-113450001I0J249999D01*
G01*
G37*
%TD.AperFunction*%
%TO.P,D1,1*%
%TO.N,GND*%
%TA.AperFunction,SMDPad,CuDef*%
G36*
G01*
X108400000Y-113450001D02*
X108400000Y-112549999D01*
G75*
G02*
X108649999Y-112300000I249999J0D01*
G01*
X109300001Y-112300000D01*
G75*
G02*
X109550000Y-112549999I0J-249999D01*
G01*
X109550000Y-113450001D01*
G75*
G02*
X109300001Y-113700000I-249999J0D01*
G01*
X108649999Y-113700000D01*
G75*
G02*
X108400000Y-113450001I0J249999D01*
G01*
G37*
%TD.AperFunction*%
%TD*%
%TO.P,R9,2*%
%TO.N,GND*%
%TA.AperFunction,SMDPad,CuDef*%
G36*
G01*
X119199999Y-85540000D02*
X120100001Y-85540000D01*
G75*
G02*
X120350000Y-85789999I0J-249999D01*
G01*
X120350000Y-86440001D01*
G75*
G02*
X120100001Y-86690000I-249999J0D01*
G01*
X119199999Y-86690000D01*
G75*
G02*
X118950000Y-86440001I0J249999D01*
G01*
X118950000Y-85789999D01*
G75*
G02*
X119199999Y-85540000I249999J0D01*
G01*
G37*
%TD.AperFunction*%
%TO.P,R9,1*%
%TO.N,/A4*%
%TA.AperFunction,SMDPad,CuDef*%
G36*
G01*
X119199999Y-83490000D02*
X120100001Y-83490000D01*
G75*
G02*
X120350000Y-83739999I0J-249999D01*
G01*
X120350000Y-84390001D01*
G75*
G02*
X120100001Y-84640000I-249999J0D01*
G01*
X119199999Y-84640000D01*
G75*
G02*
X118950000Y-84390001I0J249999D01*
G01*
X118950000Y-83739999D01*
G75*
G02*
X119199999Y-83490000I249999J0D01*
G01*
G37*
%TD.AperFunction*%
%TD*%
%TO.P,R7,2*%
%TO.N,GND*%
%TA.AperFunction,SMDPad,CuDef*%
G36*
G01*
X114119999Y-85540000D02*
X115020001Y-85540000D01*
G75*
G02*
X115270000Y-85789999I0J-249999D01*
G01*
X115270000Y-86440001D01*
G75*
G02*
X115020001Y-86690000I-249999J0D01*
G01*
X114119999Y-86690000D01*
G75*
G02*
X113870000Y-86440001I0J249999D01*
G01*
X113870000Y-85789999D01*
G75*
G02*
X114119999Y-85540000I249999J0D01*
G01*
G37*
%TD.AperFunction*%
%TO.P,R7,1*%
%TO.N,/A2*%
%TA.AperFunction,SMDPad,CuDef*%
G36*
G01*
X114119999Y-83490000D02*
X115020001Y-83490000D01*
G75*
G02*
X115270000Y-83739999I0J-249999D01*
G01*
X115270000Y-84390001D01*
G75*
G02*
X115020001Y-84640000I-249999J0D01*
G01*
X114119999Y-84640000D01*
G75*
G02*
X113870000Y-84390001I0J249999D01*
G01*
X113870000Y-83739999D01*
G75*
G02*
X114119999Y-83490000I249999J0D01*
G01*
G37*
%TD.AperFunction*%
%TD*%
%TO.P,R6,2*%
%TO.N,GND*%
%TA.AperFunction,SMDPad,CuDef*%
G36*
G01*
X111579999Y-85540000D02*
X112480001Y-85540000D01*
G75*
G02*
X112730000Y-85789999I0J-249999D01*
G01*
X112730000Y-86440001D01*
G75*
G02*
X112480001Y-86690000I-249999J0D01*
G01*
X111579999Y-86690000D01*
G75*
G02*
X111330000Y-86440001I0J249999D01*
G01*
X111330000Y-85789999D01*
G75*
G02*
X111579999Y-85540000I249999J0D01*
G01*
G37*
%TD.AperFunction*%
%TO.P,R6,1*%
%TO.N,/A1*%
%TA.AperFunction,SMDPad,CuDef*%
G36*
G01*
X111579999Y-83490000D02*
X112480001Y-83490000D01*
G75*
G02*
X112730000Y-83739999I0J-249999D01*
G01*
X112730000Y-84390001D01*
G75*
G02*
X112480001Y-84640000I-249999J0D01*
G01*
X111579999Y-84640000D01*
G75*
G02*
X111330000Y-84390001I0J249999D01*
G01*
X111330000Y-83739999D01*
G75*
G02*
X111579999Y-83490000I249999J0D01*
G01*
G37*
%TD.AperFunction*%
%TD*%
%TO.P,R4,2*%
%TO.N,/A4*%
%TA.AperFunction,SMDPad,CuDef*%
G36*
G01*
X119199999Y-78920000D02*
X120100001Y-78920000D01*
G75*
G02*
X120350000Y-79169999I0J-249999D01*
G01*
X120350000Y-79820001D01*
G75*
G02*
X120100001Y-80070000I-249999J0D01*
G01*
X119199999Y-80070000D01*
G75*
G02*
X118950000Y-79820001I0J249999D01*
G01*
X118950000Y-79169999D01*
G75*
G02*
X119199999Y-78920000I249999J0D01*
G01*
G37*
%TD.AperFunction*%
%TO.P,R4,1*%
%TO.N,+3V3*%
%TA.AperFunction,SMDPad,CuDef*%
G36*
G01*
X119199999Y-76870000D02*
X120100001Y-76870000D01*
G75*
G02*
X120350000Y-77119999I0J-249999D01*
G01*
X120350000Y-77770001D01*
G75*
G02*
X120100001Y-78020000I-249999J0D01*
G01*
X119199999Y-78020000D01*
G75*
G02*
X118950000Y-77770001I0J249999D01*
G01*
X118950000Y-77119999D01*
G75*
G02*
X119199999Y-76870000I249999J0D01*
G01*
G37*
%TD.AperFunction*%
%TD*%
%TO.P,R3,2*%
%TO.N,/A3*%
%TA.AperFunction,SMDPad,CuDef*%
G36*
G01*
X116659999Y-78920000D02*
X117560001Y-78920000D01*
G75*
G02*
X117810000Y-79169999I0J-249999D01*
G01*
X117810000Y-79820001D01*
G75*
G02*
X117560001Y-80070000I-249999J0D01*
G01*
X116659999Y-80070000D01*
G75*
G02*
X116410000Y-79820001I0J249999D01*
G01*
X116410000Y-79169999D01*
G75*
G02*
X116659999Y-78920000I249999J0D01*
G01*
G37*
%TD.AperFunction*%
%TO.P,R3,1*%
%TO.N,+3V3*%
%TA.AperFunction,SMDPad,CuDef*%
G36*
G01*
X116659999Y-76870000D02*
X117560001Y-76870000D01*
G75*
G02*
X117810000Y-77119999I0J-249999D01*
G01*
X117810000Y-77770001D01*
G75*
G02*
X117560001Y-78020000I-249999J0D01*
G01*
X116659999Y-78020000D01*
G75*
G02*
X116410000Y-77770001I0J249999D01*
G01*
X116410000Y-77119999D01*
G75*
G02*
X116659999Y-76870000I249999J0D01*
G01*
G37*
%TD.AperFunction*%
%TD*%
%TO.P,R2,2*%
%TO.N,/A2*%
%TA.AperFunction,SMDPad,CuDef*%
G36*
G01*
X114119999Y-78920000D02*
X115020001Y-78920000D01*
G75*
G02*
X115270000Y-79169999I0J-249999D01*
G01*
X115270000Y-79820001D01*
G75*
G02*
X115020001Y-80070000I-249999J0D01*
G01*
X114119999Y-80070000D01*
G75*
G02*
X113870000Y-79820001I0J249999D01*
G01*
X113870000Y-79169999D01*
G75*
G02*
X114119999Y-78920000I249999J0D01*
G01*
G37*
%TD.AperFunction*%
%TO.P,R2,1*%
%TO.N,+3V3*%
%TA.AperFunction,SMDPad,CuDef*%
G36*
G01*
X114119999Y-76870000D02*
X115020001Y-76870000D01*
G75*
G02*
X115270000Y-77119999I0J-249999D01*
G01*
X115270000Y-77770001D01*
G75*
G02*
X115020001Y-78020000I-249999J0D01*
G01*
X114119999Y-78020000D01*
G75*
G02*
X113870000Y-77770001I0J249999D01*
G01*
X113870000Y-77119999D01*
G75*
G02*
X114119999Y-76870000I249999J0D01*
G01*
G37*
%TD.AperFunction*%
%TD*%
%TO.P,R1,2*%
%TO.N,/A1*%
%TA.AperFunction,SMDPad,CuDef*%
G36*
G01*
X111579999Y-78920000D02*
X112480001Y-78920000D01*
G75*
G02*
X112730000Y-79169999I0J-249999D01*
G01*
X112730000Y-79820001D01*
G75*
G02*
X112480001Y-80070000I-249999J0D01*
G01*
X111579999Y-80070000D01*
G75*
G02*
X111330000Y-79820001I0J249999D01*
G01*
X111330000Y-79169999D01*
G75*
G02*
X111579999Y-78920000I249999J0D01*
G01*
G37*
%TD.AperFunction*%
%TO.P,R1,1*%
%TO.N,+3V3*%
%TA.AperFunction,SMDPad,CuDef*%
G36*
G01*
X111579999Y-76870000D02*
X112480001Y-76870000D01*
G75*
G02*
X112730000Y-77119999I0J-249999D01*
G01*
X112730000Y-77770001D01*
G75*
G02*
X112480001Y-78020000I-249999J0D01*
G01*
X111579999Y-78020000D01*
G75*
G02*
X111330000Y-77770001I0J249999D01*
G01*
X111330000Y-77119999D01*
G75*
G02*
X111579999Y-76870000I249999J0D01*
G01*
G37*
%TD.AperFunction*%
%TD*%
%TO.P,R0,2*%
%TO.N,/A0*%
%TA.AperFunction,SMDPad,CuDef*%
G36*
G01*
X109039999Y-78920000D02*
X109940001Y-78920000D01*
G75*
G02*
X110190000Y-79169999I0J-249999D01*
G01*
X110190000Y-79820001D01*
G75*
G02*
X109940001Y-80070000I-249999J0D01*
G01*
X109039999Y-80070000D01*
G75*
G02*
X108790000Y-79820001I0J249999D01*
G01*
X108790000Y-79169999D01*
G75*
G02*
X109039999Y-78920000I249999J0D01*
G01*
G37*
%TD.AperFunction*%
%TO.P,R0,1*%
%TO.N,+3V3*%
%TA.AperFunction,SMDPad,CuDef*%
G36*
G01*
X109039999Y-76870000D02*
X109940001Y-76870000D01*
G75*
G02*
X110190000Y-77119999I0J-249999D01*
G01*
X110190000Y-77770001D01*
G75*
G02*
X109940001Y-78020000I-249999J0D01*
G01*
X109039999Y-78020000D01*
G75*
G02*
X108790000Y-77770001I0J249999D01*
G01*
X108790000Y-77119999D01*
G75*
G02*
X109039999Y-76870000I249999J0D01*
G01*
G37*
%TD.AperFunction*%
%TD*%
D10*
%TO.P,J15,1*%
%TO.N,/S15*%
X127345440Y-71198740D03*
D11*
%TO.P,J15,2*%
%TO.N,VDD*%
X129885440Y-71198740D03*
%TO.P,J15,3*%
%TO.N,GND*%
X132425440Y-71198740D03*
%TD*%
D10*
%TO.P,J14,1*%
%TO.N,/S14*%
X127345440Y-73873360D03*
D11*
%TO.P,J14,2*%
%TO.N,VDD*%
X129885440Y-73873360D03*
%TO.P,J14,3*%
%TO.N,GND*%
X132425440Y-73873360D03*
%TD*%
D10*
%TO.P,J13,1*%
%TO.N,/S13*%
X127345440Y-76540360D03*
D11*
%TO.P,J13,2*%
%TO.N,VDD*%
X129885440Y-76540360D03*
%TO.P,J13,3*%
%TO.N,GND*%
X132425440Y-76540360D03*
%TD*%
D10*
%TO.P,J12,1*%
%TO.N,/S12*%
X127345440Y-79220060D03*
D11*
%TO.P,J12,2*%
%TO.N,VDD*%
X129885440Y-79220060D03*
%TO.P,J12,3*%
%TO.N,GND*%
X132425440Y-79220060D03*
%TD*%
%TO.P,J17,3*%
%TO.N,N/C*%
%TA.AperFunction,ComponentPad*%
G36*
G01*
X117250000Y-131575000D02*
X117250000Y-129825000D01*
G75*
G02*
X118125000Y-128950000I875000J0D01*
G01*
X119875000Y-128950000D01*
G75*
G02*
X120750000Y-129825000I0J-875000D01*
G01*
X120750000Y-131575000D01*
G75*
G02*
X119875000Y-132450000I-875000J0D01*
G01*
X118125000Y-132450000D01*
G75*
G02*
X117250000Y-131575000I0J875000D01*
G01*
G37*
%TD.AperFunction*%
%TO.P,J17,2*%
%TO.N,GND*%
%TA.AperFunction,ComponentPad*%
G36*
G01*
X114500000Y-127000000D02*
X114500000Y-125000000D01*
G75*
G02*
X115250000Y-124250000I750000J0D01*
G01*
X116750000Y-124250000D01*
G75*
G02*
X117500000Y-125000000I0J-750000D01*
G01*
X117500000Y-127000000D01*
G75*
G02*
X116750000Y-127750000I-750000J0D01*
G01*
X115250000Y-127750000D01*
G75*
G02*
X114500000Y-127000000I0J750000D01*
G01*
G37*
%TD.AperFunction*%
D12*
%TO.P,J17,1*%
%TO.N,VDD*%
X122000000Y-126000000D03*
%TD*%
D13*
%TO.P,C1,1*%
%TO.N,+5V*%
X111760000Y-107950000D03*
D14*
%TO.P,C1,2*%
%TO.N,GND*%
X109260000Y-107950000D03*
%TD*%
D11*
%TO.P,J1,3*%
%TO.N,GND*%
X132473700Y-108381800D03*
%TO.P,J1,2*%
%TO.N,VDD*%
X129933700Y-108381800D03*
D10*
%TO.P,J1,1*%
%TO.N,/S1*%
X127393700Y-108381800D03*
%TD*%
D11*
%TO.P,J2,3*%
%TO.N,GND*%
X132461000Y-105722420D03*
%TO.P,J2,2*%
%TO.N,VDD*%
X129921000Y-105722420D03*
D10*
%TO.P,J2,1*%
%TO.N,/S2*%
X127381000Y-105722420D03*
%TD*%
%TO.P,J4,1*%
%TO.N,/S4*%
X127370840Y-100451920D03*
D11*
%TO.P,J4,2*%
%TO.N,VDD*%
X129910840Y-100451920D03*
%TO.P,J4,3*%
%TO.N,GND*%
X132450840Y-100451920D03*
%TD*%
%TO.P,J5,3*%
%TO.N,GND*%
X132450840Y-97792540D03*
%TO.P,J5,2*%
%TO.N,VDD*%
X129910840Y-97792540D03*
D10*
%TO.P,J5,1*%
%TO.N,/S5*%
X127370840Y-97792540D03*
%TD*%
D11*
%TO.P,J6,3*%
%TO.N,GND*%
X132450840Y-95148400D03*
%TO.P,J6,2*%
%TO.N,VDD*%
X129910840Y-95148400D03*
D10*
%TO.P,J6,1*%
%TO.N,/S6*%
X127370840Y-95148400D03*
%TD*%
D11*
%TO.P,J7,3*%
%TO.N,GND*%
X132440680Y-92489020D03*
%TO.P,J7,2*%
%TO.N,VDD*%
X129900680Y-92489020D03*
D10*
%TO.P,J7,1*%
%TO.N,/S7*%
X127360680Y-92489020D03*
%TD*%
%TO.P,J8,1*%
%TO.N,/S8*%
X127360680Y-89842340D03*
D11*
%TO.P,J8,2*%
%TO.N,VDD*%
X129900680Y-89842340D03*
%TO.P,J8,3*%
%TO.N,GND*%
X132440680Y-89842340D03*
%TD*%
D10*
%TO.P,J9,1*%
%TO.N,/S9*%
X127360680Y-87195660D03*
D11*
%TO.P,J9,2*%
%TO.N,VDD*%
X129900680Y-87195660D03*
%TO.P,J9,3*%
%TO.N,GND*%
X132440680Y-87195660D03*
%TD*%
D10*
%TO.P,J10,1*%
%TO.N,/S10*%
X127370840Y-84548980D03*
D11*
%TO.P,J10,2*%
%TO.N,VDD*%
X129910840Y-84548980D03*
%TO.P,J10,3*%
%TO.N,GND*%
X132450840Y-84548980D03*
%TD*%
%TO.P,J11,3*%
%TO.N,GND*%
X132427980Y-81904840D03*
%TO.P,J11,2*%
%TO.N,VDD*%
X129887980Y-81904840D03*
D10*
%TO.P,J11,1*%
%TO.N,/S11*%
X127347980Y-81904840D03*
%TD*%
D15*
%TO.P,J20,2*%
%TO.N,VDD*%
X130000000Y-119800000D03*
%TO.P,J20,1*%
%TO.N,GND*%
%TA.AperFunction,ComponentPad*%
G36*
G01*
X131500000Y-130000000D02*
X128500000Y-130000000D01*
G75*
G02*
X127000000Y-128500000I0J1500000D01*
G01*
X127000000Y-125500000D01*
G75*
G02*
X128500000Y-124000000I1500000J0D01*
G01*
X131500000Y-124000000D01*
G75*
G02*
X133000000Y-125500000I0J-1500000D01*
G01*
X133000000Y-128500000D01*
G75*
G02*
X131500000Y-130000000I-1500000J0D01*
G01*
G37*
%TD.AperFunction*%
%TD*%
D10*
%TO.P,J16,1*%
%TO.N,VDD*%
X121000000Y-119000000D03*
D11*
%TO.P,J16,2*%
%TO.N,+5V*%
X121000000Y-116460000D03*
%TO.P,J16,3*%
%TO.N,+3V3*%
X121000000Y-113920000D03*
%TO.P,J16,4*%
%TO.N,/SDA*%
X121000000Y-111380000D03*
%TO.P,J16,5*%
%TO.N,/SCL*%
X121000000Y-108840000D03*
%TO.P,J16,6*%
%TO.N,GND*%
X121000000Y-106300000D03*
%TD*%
D10*
%TO.P,J_POE0,1*%
%TO.N,Net-(J_POE0-Pad1)*%
X111300000Y-70310000D03*
D11*
%TO.P,J_POE0,2*%
%TO.N,Net-(J_POE0-Pad2)*%
X111300000Y-72850000D03*
%TD*%
%TO.P,J_POE2,2*%
%TO.N,Net-(J_POE2-Pad2)*%
X108760000Y-72850000D03*
D10*
%TO.P,J_POE2,1*%
%TO.N,Net-(J_POE2-Pad1)*%
X108760000Y-70310000D03*
%TD*%
D16*
%TO.N,*%
X114300000Y-128270000D03*
X130810000Y-113030000D03*
X130810000Y-114300000D03*
%TO.N,GND*%
X123190000Y-96520000D03*
X114300000Y-69850000D03*
X116840000Y-69850000D03*
X119380000Y-69850000D03*
X121920000Y-69850000D03*
X124460000Y-69850000D03*
X124460000Y-71120000D03*
X121920000Y-71120000D03*
X114300000Y-71120000D03*
X114300000Y-72390000D03*
X114300000Y-73660000D03*
X114300000Y-74930000D03*
X116840000Y-73660000D03*
X116840000Y-74930000D03*
X119380000Y-73660000D03*
X119380000Y-74930000D03*
X121920000Y-72390000D03*
X121920000Y-73660000D03*
X121920000Y-74930000D03*
X113030000Y-74930000D03*
X111760000Y-74930000D03*
X110490000Y-74930000D03*
X109220000Y-74930000D03*
X107950000Y-74930000D03*
X106680000Y-74930000D03*
X115570000Y-74930000D03*
X118110000Y-74930000D03*
X120650000Y-74930000D03*
X120650000Y-73660000D03*
X120650000Y-72390000D03*
X120650000Y-69850000D03*
X118110000Y-69850000D03*
X118110000Y-73660000D03*
X115570000Y-69850000D03*
X115570000Y-73660000D03*
X123190000Y-69850000D03*
X123190000Y-71120000D03*
X123190000Y-72390000D03*
X123190000Y-73660000D03*
X124460000Y-72390000D03*
X110490000Y-87630000D03*
X110490000Y-88900000D03*
X110490000Y-90170000D03*
X110490000Y-91440000D03*
X113030000Y-87630000D03*
X113030000Y-88900000D03*
X113030000Y-90170000D03*
X113030000Y-91440000D03*
X118110000Y-123190000D03*
X116840000Y-123190000D03*
X115570000Y-123190000D03*
X114300000Y-123190000D03*
X113030000Y-123190000D03*
X113030000Y-124460000D03*
X111760000Y-124460000D03*
X110490000Y-125730000D03*
X109220000Y-127000000D03*
X109220000Y-128270000D03*
X109220000Y-129540000D03*
X110490000Y-129540000D03*
X110490000Y-128270000D03*
X110490000Y-127000000D03*
X111760000Y-125730000D03*
X111760000Y-127000000D03*
X111760000Y-128270000D03*
X111760000Y-129540000D03*
X113030000Y-129540000D03*
X113030000Y-128270000D03*
X113030000Y-127000000D03*
X113030000Y-125730000D03*
X114300000Y-129540000D03*
X124460000Y-113030000D03*
X125730000Y-113030000D03*
X127000000Y-113030000D03*
X128270000Y-113030000D03*
X132080000Y-113030000D03*
X133350000Y-113030000D03*
X133350000Y-114300000D03*
X132080000Y-114300000D03*
X128270000Y-114300000D03*
X127000000Y-114300000D03*
X125730000Y-114300000D03*
X124460000Y-114300000D03*
X124460000Y-115570000D03*
X124460000Y-116840000D03*
X124460000Y-120650000D03*
X124460000Y-121920000D03*
X124460000Y-123190000D03*
X124460000Y-129540000D03*
X124460000Y-130810000D03*
X123190000Y-132080000D03*
X124460000Y-132080000D03*
X125730000Y-132080000D03*
X127000000Y-132080000D03*
X125730000Y-130810000D03*
X121920000Y-132080000D03*
X124460000Y-95250000D03*
X124460000Y-93980000D03*
X123190000Y-95250000D03*
X121920000Y-96520000D03*
X121920000Y-97790000D03*
X120650000Y-97790000D03*
X120847500Y-98862500D03*
%TO.N,+5V*%
X118000000Y-116000000D03*
%TO.N,/SCL*%
X110490000Y-101600000D03*
%TO.N,/SDA*%
X109220000Y-104140000D03*
%TO.N,+3V3*%
X118080000Y-113000000D03*
%TO.N,/A0*%
X109490000Y-81010000D03*
X111760000Y-95250000D03*
%TO.N,/A1*%
X112030000Y-81010000D03*
X113030000Y-95250000D03*
%TO.N,/A2*%
X114570000Y-81010000D03*
X114300000Y-95250000D03*
%TO.N,/A3*%
X117110000Y-81010000D03*
X115570000Y-95250000D03*
%TO.N,/A4*%
X119650000Y-81010000D03*
X116840000Y-95250000D03*
%TD*%
D17*
%TO.N,VDD*%
X123800000Y-126000000D02*
X122000000Y-126000000D01*
X130000000Y-119800000D02*
X123800000Y-126000000D01*
X129270000Y-119070000D02*
X130000000Y-119800000D01*
X130000000Y-119800000D02*
X130000000Y-111300000D01*
X129200000Y-119000000D02*
X130000000Y-119800000D01*
X121000000Y-119000000D02*
X129200000Y-119000000D01*
X121000000Y-119000000D02*
X116025000Y-119000000D01*
X129885440Y-71198740D02*
X129885440Y-73873360D01*
X129885440Y-73873360D02*
X129885440Y-76540360D01*
X129885440Y-76540360D02*
X129885440Y-79220060D01*
X129885440Y-81902300D02*
X129887980Y-81904840D01*
X129885440Y-79220060D02*
X129885440Y-81902300D01*
X129887980Y-84526120D02*
X129910840Y-84548980D01*
X129887980Y-81904840D02*
X129887980Y-84526120D01*
X129910840Y-87185500D02*
X129900680Y-87195660D01*
X129910840Y-84548980D02*
X129910840Y-87185500D01*
X129900680Y-87195660D02*
X129900680Y-89842340D01*
X129900680Y-92489020D02*
X129900680Y-89842340D01*
X129900680Y-95138240D02*
X129910840Y-95148400D01*
X129900680Y-92489020D02*
X129900680Y-95138240D01*
X129910840Y-95148400D02*
X129910840Y-97792540D01*
X129910840Y-97792540D02*
X129910840Y-100451920D01*
X129910840Y-103065580D02*
X129921000Y-103075740D01*
X129910840Y-100451920D02*
X129910840Y-103065580D01*
X129921000Y-103075740D02*
X129921000Y-105722420D01*
X129921000Y-108369100D02*
X129933700Y-108381800D01*
X129921000Y-105722420D02*
X129921000Y-108369100D01*
X129933700Y-108381800D02*
X129933700Y-111028480D01*
D18*
%TO.N,GND*%
X114025000Y-93137500D02*
X113375000Y-93137500D01*
X113375000Y-93137500D02*
X112725000Y-93137500D01*
X113375000Y-93137500D02*
X113375000Y-92365000D01*
X113375000Y-92365000D02*
X113375000Y-91785000D01*
D17*
X131810000Y-92790000D02*
X131810000Y-90250000D01*
X131810000Y-92790000D02*
X131810000Y-95330000D01*
X119650000Y-86090000D02*
X121920000Y-83820000D01*
X119650000Y-86115000D02*
X119650000Y-86090000D01*
X120847500Y-98862500D02*
X120847500Y-98862500D01*
X119225000Y-98862500D02*
X120847500Y-98862500D01*
D18*
X113375000Y-91785000D02*
X113375000Y-91785000D01*
X113375000Y-91785000D02*
X113375000Y-91785000D01*
D17*
X121920000Y-97790000D02*
X123190000Y-96520000D01*
X120847500Y-98862500D02*
X121920000Y-97790000D01*
D18*
%TO.N,/S11*%
X117275000Y-92400000D02*
X118675000Y-91000000D01*
X117275000Y-93137500D02*
X117275000Y-92400000D01*
X118675000Y-91000000D02*
X122000000Y-91000000D01*
X122000000Y-91000000D02*
X125000000Y-88000000D01*
X125000000Y-88000000D02*
X125000000Y-84360000D01*
X127347980Y-82012020D02*
X125000000Y-84360000D01*
X127347980Y-81904840D02*
X127347980Y-82012020D01*
%TO.N,/S12*%
X116625000Y-93137500D02*
X116625000Y-92435352D01*
X122000000Y-90000000D02*
X124549990Y-87450010D01*
X124549990Y-87450010D02*
X124549990Y-82270010D01*
X116625000Y-91375000D02*
X118000000Y-90000000D01*
X116625000Y-93137500D02*
X116625000Y-91375000D01*
X118000000Y-90000000D02*
X122000000Y-90000000D01*
X127345440Y-79474560D02*
X124549990Y-82270010D01*
X127345440Y-79220060D02*
X127345440Y-79474560D01*
%TO.N,/S13*%
X115975000Y-93137500D02*
X115975000Y-92448942D01*
X115975000Y-93137500D02*
X115975000Y-90025000D01*
X115975000Y-90025000D02*
X117000000Y-89000000D01*
X122000000Y-89000000D02*
X124000000Y-87000000D01*
X117000000Y-89000000D02*
X122000000Y-89000000D01*
X124000000Y-87000000D02*
X124000000Y-80534998D01*
X124000000Y-79885800D02*
X124000000Y-80534998D01*
X127345440Y-76540360D02*
X124000000Y-79885800D01*
D17*
%TO.N,+5V*%
X116025000Y-116000000D02*
X118000000Y-116000000D01*
X120540000Y-116000000D02*
X121000000Y-116460000D01*
X118000000Y-116000000D02*
X120540000Y-116000000D01*
%TO.N,/SDA*%
X120620000Y-111000000D02*
X121000000Y-111380000D01*
D18*
%TO.N,/SCL*%
X112000000Y-93212500D02*
X112075000Y-93137500D01*
D17*
X120840000Y-109000000D02*
X121000000Y-108840000D01*
D18*
X113760000Y-101600000D02*
X121000000Y-108840000D01*
X110490000Y-101600000D02*
X113760000Y-101600000D01*
X110090001Y-95859999D02*
X112075000Y-93875000D01*
X112075000Y-93875000D02*
X112075000Y-93137500D01*
X110090001Y-101200001D02*
X110090001Y-95859999D01*
X110490000Y-101600000D02*
X110090001Y-101200001D01*
%TO.N,/SDA*%
X113760000Y-104140000D02*
X121000000Y-111380000D01*
X109220000Y-104140000D02*
X113760000Y-104140000D01*
X111425000Y-93826058D02*
X111425000Y-93137500D01*
X109220000Y-96031058D02*
X111425000Y-93826058D01*
X109220000Y-104140000D02*
X109220000Y-96031058D01*
%TO.N,/S0*%
X114025000Y-98862500D02*
X114025000Y-100025000D01*
X123000000Y-104000000D02*
X124099980Y-105099980D01*
X114025000Y-100025000D02*
X118000000Y-104000000D01*
X118000000Y-104000000D02*
X123000000Y-104000000D01*
X124099980Y-105099980D02*
X124099980Y-107939980D01*
X124099980Y-107939980D02*
X124099980Y-108217360D01*
X126911100Y-111028480D02*
X127393700Y-111028480D01*
X124099980Y-108217360D02*
X126911100Y-111028480D01*
%TO.N,/S1*%
X114675000Y-98862500D02*
X114675000Y-99675000D01*
X114675000Y-99675000D02*
X118000000Y-103000000D01*
X122636410Y-103000000D02*
X122641030Y-103004620D01*
X118000000Y-103000000D02*
X122636410Y-103000000D01*
X122636410Y-103000000D02*
X122966940Y-103000000D01*
X126205999Y-107194099D02*
X127393700Y-108381800D01*
X126205999Y-106239059D02*
X126205999Y-107194099D01*
X122966940Y-103000000D02*
X126205999Y-106239059D01*
%TO.N,/S2*%
X126730000Y-105235002D02*
X126730000Y-105490000D01*
X115325000Y-99586410D02*
X117738590Y-102000000D01*
X115325000Y-98862500D02*
X115325000Y-99586410D01*
X127381000Y-105360742D02*
X127381000Y-105722420D01*
X124020258Y-102000000D02*
X127381000Y-105360742D01*
X117738590Y-102000000D02*
X124020258Y-102000000D01*
%TO.N,/S3*%
X115975000Y-99600000D02*
X117375000Y-101000000D01*
X115975000Y-98862500D02*
X115975000Y-99600000D01*
X125580299Y-101275039D02*
X127381000Y-103075740D01*
X117663629Y-101275039D02*
X125580299Y-101275039D01*
X117375000Y-101000000D02*
X117388590Y-101000000D01*
X117388590Y-101000000D02*
X117663629Y-101275039D01*
%TO.N,/S4*%
X126997731Y-100825029D02*
X127370840Y-100451920D01*
X117850029Y-100825029D02*
X126997731Y-100825029D01*
X116625000Y-98862500D02*
X116625000Y-99600000D01*
X116625000Y-99600000D02*
X117850029Y-100825029D01*
%TO.N,/S5*%
X117275000Y-99600000D02*
X118050020Y-100375020D01*
X117275000Y-98862500D02*
X117275000Y-99600000D01*
X124788360Y-100375020D02*
X127370840Y-97792540D01*
X117399990Y-99711400D02*
X118063610Y-100375020D01*
X118063610Y-100375020D02*
X124788360Y-100375020D01*
%TO.N,/S6*%
X118250010Y-99925010D02*
X122594230Y-99925010D01*
X117925000Y-98862500D02*
X117925000Y-99600000D01*
X122594230Y-99925010D02*
X127370840Y-95148400D01*
X117925000Y-99600000D02*
X118250010Y-99925010D01*
%TO.N,/S7*%
X118575000Y-98125000D02*
X118575000Y-98862500D01*
X127360680Y-92489020D02*
X124210980Y-92489020D01*
X124210980Y-92489020D02*
X118575000Y-98125000D01*
%TO.N,/S8*%
X127360680Y-89842340D02*
X126157660Y-89842340D01*
X122862500Y-93137500D02*
X119225000Y-93137500D01*
X126157660Y-89842340D02*
X122862500Y-93137500D01*
%TO.N,/S9*%
X118575000Y-92400000D02*
X118975000Y-92000000D01*
X118575000Y-93137500D02*
X118575000Y-92400000D01*
X126730000Y-87964998D02*
X126730000Y-87710000D01*
X118975000Y-92000000D02*
X122694998Y-92000000D01*
X127360680Y-87334318D02*
X122694998Y-92000000D01*
X127360680Y-87195660D02*
X127360680Y-87334318D01*
%TO.N,/S10*%
X126730000Y-85270000D02*
X126730000Y-85170000D01*
X117925000Y-92413590D02*
X118788600Y-91549990D01*
X122086420Y-91549990D02*
X125554999Y-88081411D01*
X117925000Y-93137500D02*
X117925000Y-92413590D01*
X118788600Y-91549990D02*
X122086420Y-91549990D01*
X125554999Y-88081411D02*
X125554999Y-86445001D01*
X127370840Y-84629160D02*
X125554999Y-86445001D01*
X127370840Y-84548980D02*
X127370840Y-84629160D01*
D17*
%TO.N,+3V3*%
X114137500Y-77012500D02*
X114570000Y-77445000D01*
X119650000Y-77445000D02*
X117110000Y-77445000D01*
X117110000Y-77445000D02*
X114570000Y-77445000D01*
X114570000Y-77445000D02*
X112030000Y-77445000D01*
X112030000Y-77445000D02*
X109490000Y-77445000D01*
X115669256Y-113000000D02*
X116025000Y-113000000D01*
X120080000Y-113000000D02*
X121000000Y-113920000D01*
X105000000Y-104680000D02*
X108000000Y-101680000D01*
X110775000Y-93225000D02*
X110775000Y-93137500D01*
X108000000Y-96000000D02*
X110775000Y-93225000D01*
X108000000Y-101680000D02*
X108000000Y-96000000D01*
X108000000Y-78935000D02*
X109490000Y-77445000D01*
X108000000Y-96000000D02*
X108000000Y-78935000D01*
X116025000Y-113000000D02*
X118080000Y-113000000D01*
X118080000Y-113000000D02*
X120080000Y-113000000D01*
X105849999Y-105529999D02*
X112910001Y-105529999D01*
X105000000Y-104680000D02*
X105849999Y-105529999D01*
X116025000Y-108644998D02*
X116025000Y-113000000D01*
X112910001Y-105529999D02*
X116025000Y-108644998D01*
D18*
%TO.N,/S14*%
X115325000Y-93137500D02*
X115325000Y-92400000D01*
X115325000Y-89675000D02*
X115325000Y-93137500D01*
X117000000Y-88000000D02*
X115325000Y-89675000D01*
X127345440Y-73873360D02*
X126245440Y-73873360D01*
X126245440Y-73873360D02*
X123549991Y-76568809D01*
X123549991Y-76568809D02*
X123549991Y-86086419D01*
X123549991Y-86086419D02*
X121636410Y-88000000D01*
X121636410Y-88000000D02*
X117000000Y-88000000D01*
%TO.N,/S15*%
X114675000Y-93137500D02*
X114675000Y-92325000D01*
X114675000Y-93137500D02*
X114675000Y-89340010D01*
X118961820Y-87015010D02*
X120000000Y-87015010D01*
X117000000Y-87015010D02*
X118961820Y-87015010D01*
X116007505Y-88007505D02*
X117000000Y-87015010D01*
X114675000Y-89340010D02*
X116007505Y-88007505D01*
X123000000Y-75544180D02*
X127345440Y-71198740D01*
X116007505Y-87992495D02*
X116984990Y-87015010D01*
X116984990Y-87015010D02*
X121015010Y-87015010D01*
X121015010Y-86984990D02*
X123000000Y-85000000D01*
X123000000Y-85000000D02*
X123000000Y-75544180D01*
X116007505Y-88007505D02*
X116007505Y-87992495D01*
X121015010Y-87015010D02*
X121015010Y-86984990D01*
%TO.N,/A0*%
X109490000Y-79495000D02*
X109490000Y-81010000D01*
X109490000Y-81010000D02*
X109490000Y-84065000D01*
X110775000Y-96235000D02*
X110775000Y-98862500D01*
X111760000Y-95250000D02*
X110775000Y-96235000D01*
%TO.N,/A1*%
X112030000Y-79495000D02*
X112030000Y-81010000D01*
X112030000Y-81010000D02*
X112030000Y-84065000D01*
X111425000Y-96855000D02*
X111425000Y-98862500D01*
X113030000Y-95250000D02*
X111425000Y-96855000D01*
%TO.N,/A2*%
X114570000Y-79495000D02*
X114570000Y-81010000D01*
X114570000Y-81010000D02*
X114570000Y-84065000D01*
X114300000Y-95250000D02*
X112075000Y-97475000D01*
X112075000Y-97475000D02*
X112075000Y-98862500D01*
X112075000Y-98862500D02*
X112075000Y-97998002D01*
%TO.N,/A3*%
X112725000Y-98138590D02*
X112725000Y-98862500D01*
X117110000Y-79495000D02*
X117110000Y-81010000D01*
X117110000Y-81010000D02*
X117110000Y-84065000D01*
X115570000Y-95250000D02*
X112725000Y-98095000D01*
X112725000Y-98095000D02*
X112725000Y-98862500D01*
%TO.N,/A4*%
X119650000Y-84065000D02*
X118950000Y-84065000D01*
X119650000Y-79495000D02*
X119650000Y-81010000D01*
X119650000Y-81010000D02*
X119650000Y-84065000D01*
X113375000Y-98173942D02*
X113375000Y-98862500D01*
X113758942Y-97790000D02*
X113375000Y-98173942D01*
X114300000Y-97790000D02*
X113758942Y-97790000D01*
X116840000Y-95250000D02*
X114300000Y-97790000D01*
%TO.N,Net-(D1-Pad2)*%
X113975000Y-113000000D02*
X111025000Y-113000000D01*
%TO.N,Net-(D2-Pad2)*%
X113975000Y-116000000D02*
X111025000Y-116000000D01*
%TO.N,Net-(D3-Pad2)*%
X113975000Y-119000000D02*
X111025000Y-119000000D01*
%TD*%
D19*
%TO.N,GND*%
G36*
X133254782Y-68713267D02*
G01*
X133499855Y-68787259D01*
X133725890Y-68907443D01*
X133924281Y-69069248D01*
X134087460Y-69266497D01*
X134209220Y-69491687D01*
X134284924Y-69736247D01*
X134315000Y-70022399D01*
X134315001Y-70966353D01*
X134315000Y-72033646D01*
X134315001Y-72033656D01*
X134315000Y-130033646D01*
X134315001Y-130033656D01*
X134315000Y-130966495D01*
X134267688Y-131449016D01*
X134137287Y-131880927D01*
X133925480Y-132279280D01*
X133640325Y-132628914D01*
X133292697Y-132916497D01*
X132895825Y-133131085D01*
X132464834Y-133264500D01*
X131984346Y-133315000D01*
X103033504Y-133315000D01*
X102550984Y-133267688D01*
X102119073Y-133137287D01*
X101720720Y-132925480D01*
X101371086Y-132640325D01*
X101083503Y-132292697D01*
X100868915Y-131895825D01*
X100735500Y-131464834D01*
X100685000Y-130984346D01*
X100685000Y-129779872D01*
X101765000Y-129779872D01*
X101765000Y-130220128D01*
X101850890Y-130651925D01*
X102019369Y-131058669D01*
X102263962Y-131424729D01*
X102575271Y-131736038D01*
X102941331Y-131980631D01*
X103348075Y-132149110D01*
X103779872Y-132235000D01*
X104220128Y-132235000D01*
X104651925Y-132149110D01*
X105058669Y-131980631D01*
X105424729Y-131736038D01*
X105736038Y-131424729D01*
X105980631Y-131058669D01*
X106149110Y-130651925D01*
X106235000Y-130220128D01*
X106235000Y-129779872D01*
X106149110Y-129348075D01*
X105980631Y-128941331D01*
X105736038Y-128575271D01*
X105424729Y-128263962D01*
X105281203Y-128168061D01*
X113265000Y-128168061D01*
X113265000Y-128371939D01*
X113304774Y-128571898D01*
X113382795Y-128760256D01*
X113496063Y-128929774D01*
X113640226Y-129073937D01*
X113809744Y-129187205D01*
X113998102Y-129265226D01*
X114198061Y-129305000D01*
X114401939Y-129305000D01*
X114601898Y-129265226D01*
X114790256Y-129187205D01*
X114959774Y-129073937D01*
X115103937Y-128929774D01*
X115217205Y-128760256D01*
X115295226Y-128571898D01*
X115332210Y-128385967D01*
X115714250Y-128385000D01*
X115873000Y-128226250D01*
X115873000Y-126127000D01*
X116127000Y-126127000D01*
X116127000Y-128226250D01*
X116285750Y-128385000D01*
X117500000Y-128388072D01*
X117624482Y-128375812D01*
X117744180Y-128339502D01*
X117854494Y-128280537D01*
X117951185Y-128201185D01*
X118030537Y-128104494D01*
X118089502Y-127994180D01*
X118125812Y-127874482D01*
X118138072Y-127750000D01*
X118135000Y-126285750D01*
X117976250Y-126127000D01*
X116127000Y-126127000D01*
X115873000Y-126127000D01*
X114023750Y-126127000D01*
X113865000Y-126285750D01*
X113862807Y-127330815D01*
X113809744Y-127352795D01*
X113640226Y-127466063D01*
X113496063Y-127610226D01*
X113382795Y-127779744D01*
X113304774Y-127968102D01*
X113265000Y-128168061D01*
X105281203Y-128168061D01*
X105058669Y-128019369D01*
X104651925Y-127850890D01*
X104220128Y-127765000D01*
X103779872Y-127765000D01*
X103348075Y-127850890D01*
X102941331Y-128019369D01*
X102575271Y-128263962D01*
X102263962Y-128575271D01*
X102019369Y-128941331D01*
X101850890Y-129348075D01*
X101765000Y-129779872D01*
X100685000Y-129779872D01*
X100685000Y-76593740D01*
X100975000Y-76593740D01*
X100975000Y-76886260D01*
X101032068Y-77173158D01*
X101144010Y-77443411D01*
X101306525Y-77686632D01*
X101513368Y-77893475D01*
X101687760Y-78010000D01*
X101513368Y-78126525D01*
X101306525Y-78333368D01*
X101144010Y-78576589D01*
X101032068Y-78846842D01*
X100975000Y-79133740D01*
X100975000Y-79426260D01*
X101032068Y-79713158D01*
X101144010Y-79983411D01*
X101306525Y-80226632D01*
X101513368Y-80433475D01*
X101687760Y-80550000D01*
X101513368Y-80666525D01*
X101306525Y-80873368D01*
X101144010Y-81116589D01*
X101032068Y-81386842D01*
X100975000Y-81673740D01*
X100975000Y-81966260D01*
X101032068Y-82253158D01*
X101144010Y-82523411D01*
X101306525Y-82766632D01*
X101513368Y-82973475D01*
X101695534Y-83095195D01*
X101578645Y-83164822D01*
X101362412Y-83359731D01*
X101188359Y-83593080D01*
X101063175Y-83855901D01*
X101018524Y-84003110D01*
X101139845Y-84233000D01*
X102333000Y-84233000D01*
X102333000Y-84213000D01*
X102587000Y-84213000D01*
X102587000Y-84233000D01*
X102607000Y-84233000D01*
X102607000Y-84487000D01*
X102587000Y-84487000D01*
X102587000Y-84507000D01*
X102333000Y-84507000D01*
X102333000Y-84487000D01*
X101139845Y-84487000D01*
X101018524Y-84716890D01*
X101063175Y-84864099D01*
X101188359Y-85126920D01*
X101362412Y-85360269D01*
X101578645Y-85555178D01*
X101695534Y-85624805D01*
X101513368Y-85746525D01*
X101306525Y-85953368D01*
X101144010Y-86196589D01*
X101032068Y-86466842D01*
X100975000Y-86753740D01*
X100975000Y-87046260D01*
X101032068Y-87333158D01*
X101144010Y-87603411D01*
X101306525Y-87846632D01*
X101513368Y-88053475D01*
X101695534Y-88175195D01*
X101578645Y-88244822D01*
X101362412Y-88439731D01*
X101188359Y-88673080D01*
X101063175Y-88935901D01*
X101018524Y-89083110D01*
X101139845Y-89313000D01*
X102333000Y-89313000D01*
X102333000Y-89293000D01*
X102587000Y-89293000D01*
X102587000Y-89313000D01*
X102607000Y-89313000D01*
X102607000Y-89567000D01*
X102587000Y-89567000D01*
X102587000Y-89587000D01*
X102333000Y-89587000D01*
X102333000Y-89567000D01*
X101139845Y-89567000D01*
X101018524Y-89796890D01*
X101063175Y-89944099D01*
X101188359Y-90206920D01*
X101362412Y-90440269D01*
X101578645Y-90635178D01*
X101695534Y-90704805D01*
X101513368Y-90826525D01*
X101306525Y-91033368D01*
X101144010Y-91276589D01*
X101032068Y-91546842D01*
X100975000Y-91833740D01*
X100975000Y-92126260D01*
X101032068Y-92413158D01*
X101144010Y-92683411D01*
X101306525Y-92926632D01*
X101513368Y-93133475D01*
X101687760Y-93250000D01*
X101513368Y-93366525D01*
X101306525Y-93573368D01*
X101144010Y-93816589D01*
X101032068Y-94086842D01*
X100975000Y-94373740D01*
X100975000Y-94666260D01*
X101032068Y-94953158D01*
X101144010Y-95223411D01*
X101306525Y-95466632D01*
X101513368Y-95673475D01*
X101687760Y-95790000D01*
X101513368Y-95906525D01*
X101306525Y-96113368D01*
X101144010Y-96356589D01*
X101032068Y-96626842D01*
X100975000Y-96913740D01*
X100975000Y-97206260D01*
X101032068Y-97493158D01*
X101144010Y-97763411D01*
X101306525Y-98006632D01*
X101513368Y-98213475D01*
X101687760Y-98330000D01*
X101513368Y-98446525D01*
X101306525Y-98653368D01*
X101144010Y-98896589D01*
X101032068Y-99166842D01*
X100975000Y-99453740D01*
X100975000Y-99746260D01*
X101032068Y-100033158D01*
X101144010Y-100303411D01*
X101306525Y-100546632D01*
X101513368Y-100753475D01*
X101695534Y-100875195D01*
X101578645Y-100944822D01*
X101362412Y-101139731D01*
X101188359Y-101373080D01*
X101063175Y-101635901D01*
X101018524Y-101783110D01*
X101139845Y-102013000D01*
X102333000Y-102013000D01*
X102333000Y-101993000D01*
X102587000Y-101993000D01*
X102587000Y-102013000D01*
X102607000Y-102013000D01*
X102607000Y-102267000D01*
X102587000Y-102267000D01*
X102587000Y-102287000D01*
X102333000Y-102287000D01*
X102333000Y-102267000D01*
X101139845Y-102267000D01*
X101018524Y-102496890D01*
X101063175Y-102644099D01*
X101188359Y-102906920D01*
X101362412Y-103140269D01*
X101578645Y-103335178D01*
X101695534Y-103404805D01*
X101513368Y-103526525D01*
X101306525Y-103733368D01*
X101144010Y-103976589D01*
X101032068Y-104246842D01*
X100975000Y-104533740D01*
X100975000Y-104826260D01*
X101032068Y-105113158D01*
X101144010Y-105383411D01*
X101306525Y-105626632D01*
X101513368Y-105833475D01*
X101687760Y-105950000D01*
X101513368Y-106066525D01*
X101306525Y-106273368D01*
X101144010Y-106516589D01*
X101032068Y-106786842D01*
X100975000Y-107073740D01*
X100975000Y-107366260D01*
X101032068Y-107653158D01*
X101144010Y-107923411D01*
X101306525Y-108166632D01*
X101513368Y-108373475D01*
X101695534Y-108495195D01*
X101578645Y-108564822D01*
X101362412Y-108759731D01*
X101188359Y-108993080D01*
X101063175Y-109255901D01*
X101018524Y-109403110D01*
X101139845Y-109633000D01*
X102333000Y-109633000D01*
X102333000Y-109613000D01*
X102587000Y-109613000D01*
X102587000Y-109633000D01*
X102607000Y-109633000D01*
X102607000Y-109887000D01*
X102587000Y-109887000D01*
X102587000Y-109907000D01*
X102333000Y-109907000D01*
X102333000Y-109887000D01*
X101139845Y-109887000D01*
X101018524Y-110116890D01*
X101063175Y-110264099D01*
X101188359Y-110526920D01*
X101362412Y-110760269D01*
X101578645Y-110955178D01*
X101695534Y-111024805D01*
X101513368Y-111146525D01*
X101306525Y-111353368D01*
X101144010Y-111596589D01*
X101032068Y-111866842D01*
X100975000Y-112153740D01*
X100975000Y-112446260D01*
X101032068Y-112733158D01*
X101144010Y-113003411D01*
X101306525Y-113246632D01*
X101513368Y-113453475D01*
X101687760Y-113570000D01*
X101513368Y-113686525D01*
X101306525Y-113893368D01*
X101144010Y-114136589D01*
X101032068Y-114406842D01*
X100975000Y-114693740D01*
X100975000Y-114986260D01*
X101032068Y-115273158D01*
X101144010Y-115543411D01*
X101306525Y-115786632D01*
X101513368Y-115993475D01*
X101687760Y-116110000D01*
X101513368Y-116226525D01*
X101306525Y-116433368D01*
X101144010Y-116676589D01*
X101032068Y-116946842D01*
X100975000Y-117233740D01*
X100975000Y-117526260D01*
X101032068Y-117813158D01*
X101144010Y-118083411D01*
X101306525Y-118326632D01*
X101513368Y-118533475D01*
X101695534Y-118655195D01*
X101578645Y-118724822D01*
X101362412Y-118919731D01*
X101188359Y-119153080D01*
X101063175Y-119415901D01*
X101018524Y-119563110D01*
X101139845Y-119793000D01*
X102333000Y-119793000D01*
X102333000Y-119773000D01*
X102587000Y-119773000D01*
X102587000Y-119793000D01*
X102607000Y-119793000D01*
X102607000Y-120047000D01*
X102587000Y-120047000D01*
X102587000Y-120067000D01*
X102333000Y-120067000D01*
X102333000Y-120047000D01*
X101139845Y-120047000D01*
X101018524Y-120276890D01*
X101063175Y-120424099D01*
X101188359Y-120686920D01*
X101362412Y-120920269D01*
X101578645Y-121115178D01*
X101695534Y-121184805D01*
X101513368Y-121306525D01*
X101306525Y-121513368D01*
X101144010Y-121756589D01*
X101032068Y-122026842D01*
X100975000Y-122313740D01*
X100975000Y-122606260D01*
X101032068Y-122893158D01*
X101144010Y-123163411D01*
X101306525Y-123406632D01*
X101513368Y-123613475D01*
X101687760Y-123730000D01*
X101513368Y-123846525D01*
X101306525Y-124053368D01*
X101144010Y-124296589D01*
X101032068Y-124566842D01*
X100975000Y-124853740D01*
X100975000Y-125146260D01*
X101032068Y-125433158D01*
X101144010Y-125703411D01*
X101306525Y-125946632D01*
X101513368Y-126153475D01*
X101756589Y-126315990D01*
X102026842Y-126427932D01*
X102313740Y-126485000D01*
X102606260Y-126485000D01*
X102893158Y-126427932D01*
X103163411Y-126315990D01*
X103406632Y-126153475D01*
X103538487Y-126021620D01*
X103560498Y-126094180D01*
X103619463Y-126204494D01*
X103698815Y-126301185D01*
X103795506Y-126380537D01*
X103905820Y-126439502D01*
X104025518Y-126475812D01*
X104150000Y-126488072D01*
X105850000Y-126488072D01*
X105974482Y-126475812D01*
X106094180Y-126439502D01*
X106204494Y-126380537D01*
X106301185Y-126301185D01*
X106380537Y-126204494D01*
X106439502Y-126094180D01*
X106475812Y-125974482D01*
X106488072Y-125850000D01*
X106488072Y-124250000D01*
X113861928Y-124250000D01*
X113865000Y-125714250D01*
X114023750Y-125873000D01*
X115873000Y-125873000D01*
X115873000Y-123773750D01*
X116127000Y-123773750D01*
X116127000Y-125873000D01*
X117976250Y-125873000D01*
X118135000Y-125714250D01*
X118138072Y-124250000D01*
X118125812Y-124125518D01*
X118089502Y-124005820D01*
X118030537Y-123895506D01*
X117951185Y-123798815D01*
X117854494Y-123719463D01*
X117744180Y-123660498D01*
X117624482Y-123624188D01*
X117500000Y-123611928D01*
X116285750Y-123615000D01*
X116127000Y-123773750D01*
X115873000Y-123773750D01*
X115714250Y-123615000D01*
X114500000Y-123611928D01*
X114375518Y-123624188D01*
X114255820Y-123660498D01*
X114145506Y-123719463D01*
X114048815Y-123798815D01*
X113969463Y-123895506D01*
X113910498Y-124005820D01*
X113874188Y-124125518D01*
X113861928Y-124250000D01*
X106488072Y-124250000D01*
X106488072Y-124150000D01*
X106475812Y-124025518D01*
X106439502Y-123905820D01*
X106380537Y-123795506D01*
X106301185Y-123698815D01*
X106204494Y-123619463D01*
X106094180Y-123560498D01*
X106021620Y-123538487D01*
X106153475Y-123406632D01*
X106315990Y-123163411D01*
X106427932Y-122893158D01*
X106485000Y-122606260D01*
X106485000Y-122313740D01*
X106427932Y-122026842D01*
X106315990Y-121756589D01*
X106153475Y-121513368D01*
X105946632Y-121306525D01*
X105772240Y-121190000D01*
X105946632Y-121073475D01*
X106153475Y-120866632D01*
X106315990Y-120623411D01*
X106427932Y-120353158D01*
X106485000Y-120066260D01*
X106485000Y-119773740D01*
X106470333Y-119700000D01*
X107761928Y-119700000D01*
X107774188Y-119824482D01*
X107810498Y-119944180D01*
X107869463Y-120054494D01*
X107948815Y-120151185D01*
X108045506Y-120230537D01*
X108155820Y-120289502D01*
X108275518Y-120325812D01*
X108400000Y-120338072D01*
X108689250Y-120335000D01*
X108848000Y-120176250D01*
X108848000Y-119127000D01*
X107923750Y-119127000D01*
X107765000Y-119285750D01*
X107761928Y-119700000D01*
X106470333Y-119700000D01*
X106427932Y-119486842D01*
X106315990Y-119216589D01*
X106153475Y-118973368D01*
X105946632Y-118766525D01*
X105772240Y-118650000D01*
X105946632Y-118533475D01*
X106153475Y-118326632D01*
X106171269Y-118300000D01*
X107761928Y-118300000D01*
X107765000Y-118714250D01*
X107923750Y-118873000D01*
X108848000Y-118873000D01*
X108848000Y-117823750D01*
X108689250Y-117665000D01*
X108400000Y-117661928D01*
X108275518Y-117674188D01*
X108155820Y-117710498D01*
X108045506Y-117769463D01*
X107948815Y-117848815D01*
X107869463Y-117945506D01*
X107810498Y-118055820D01*
X107774188Y-118175518D01*
X107761928Y-118300000D01*
X106171269Y-118300000D01*
X106315990Y-118083411D01*
X106427932Y-117813158D01*
X106485000Y-117526260D01*
X106485000Y-117233740D01*
X106427932Y-116946842D01*
X106325688Y-116700000D01*
X107761928Y-116700000D01*
X107774188Y-116824482D01*
X107810498Y-116944180D01*
X107869463Y-117054494D01*
X107948815Y-117151185D01*
X108045506Y-117230537D01*
X108155820Y-117289502D01*
X108275518Y-117325812D01*
X108400000Y-117338072D01*
X108689250Y-117335000D01*
X108848000Y-117176250D01*
X108848000Y-116127000D01*
X107923750Y-116127000D01*
X107765000Y-116285750D01*
X107761928Y-116700000D01*
X106325688Y-116700000D01*
X106315990Y-116676589D01*
X106153475Y-116433368D01*
X105946632Y-116226525D01*
X105764466Y-116104805D01*
X105881355Y-116035178D01*
X106097588Y-115840269D01*
X106271641Y-115606920D01*
X106396825Y-115344099D01*
X106410200Y-115300000D01*
X107761928Y-115300000D01*
X107765000Y-115714250D01*
X107923750Y-115873000D01*
X108848000Y-115873000D01*
X108848000Y-114823750D01*
X108689250Y-114665000D01*
X108400000Y-114661928D01*
X108275518Y-114674188D01*
X108155820Y-114710498D01*
X108045506Y-114769463D01*
X107948815Y-114848815D01*
X107869463Y-114945506D01*
X107810498Y-115055820D01*
X107774188Y-115175518D01*
X107761928Y-115300000D01*
X106410200Y-115300000D01*
X106441476Y-115196890D01*
X106320155Y-114967000D01*
X105127000Y-114967000D01*
X105127000Y-114987000D01*
X104873000Y-114987000D01*
X104873000Y-114967000D01*
X104853000Y-114967000D01*
X104853000Y-114713000D01*
X104873000Y-114713000D01*
X104873000Y-114693000D01*
X105127000Y-114693000D01*
X105127000Y-114713000D01*
X106320155Y-114713000D01*
X106441476Y-114483110D01*
X106396825Y-114335901D01*
X106271641Y-114073080D01*
X106097588Y-113839731D01*
X105942570Y-113700000D01*
X107761928Y-113700000D01*
X107774188Y-113824482D01*
X107810498Y-113944180D01*
X107869463Y-114054494D01*
X107948815Y-114151185D01*
X108045506Y-114230537D01*
X108155820Y-114289502D01*
X108275518Y-114325812D01*
X108400000Y-114338072D01*
X108689250Y-114335000D01*
X108848000Y-114176250D01*
X108848000Y-113127000D01*
X107923750Y-113127000D01*
X107765000Y-113285750D01*
X107761928Y-113700000D01*
X105942570Y-113700000D01*
X105881355Y-113644822D01*
X105764466Y-113575195D01*
X105946632Y-113453475D01*
X106153475Y-113246632D01*
X106315990Y-113003411D01*
X106427932Y-112733158D01*
X106485000Y-112446260D01*
X106485000Y-112300000D01*
X107761928Y-112300000D01*
X107765000Y-112714250D01*
X107923750Y-112873000D01*
X108848000Y-112873000D01*
X108848000Y-111823750D01*
X108689250Y-111665000D01*
X108400000Y-111661928D01*
X108275518Y-111674188D01*
X108155820Y-111710498D01*
X108045506Y-111769463D01*
X107948815Y-111848815D01*
X107869463Y-111945506D01*
X107810498Y-112055820D01*
X107774188Y-112175518D01*
X107761928Y-112300000D01*
X106485000Y-112300000D01*
X106485000Y-112153740D01*
X106427932Y-111866842D01*
X106315990Y-111596589D01*
X106153475Y-111353368D01*
X105946632Y-111146525D01*
X105772240Y-111030000D01*
X105946632Y-110913475D01*
X106153475Y-110706632D01*
X106315990Y-110463411D01*
X106427932Y-110193158D01*
X106485000Y-109906260D01*
X106485000Y-109613740D01*
X106427932Y-109326842D01*
X106315990Y-109056589D01*
X106239894Y-108942702D01*
X108446903Y-108942702D01*
X108518486Y-109186671D01*
X108773996Y-109307571D01*
X109048184Y-109376300D01*
X109330512Y-109390217D01*
X109610130Y-109348787D01*
X109876292Y-109253603D01*
X110001514Y-109186671D01*
X110073097Y-108942702D01*
X109260000Y-108129605D01*
X108446903Y-108942702D01*
X106239894Y-108942702D01*
X106153475Y-108813368D01*
X105946632Y-108606525D01*
X105772240Y-108490000D01*
X105946632Y-108373475D01*
X106153475Y-108166632D01*
X106251109Y-108020512D01*
X107819783Y-108020512D01*
X107861213Y-108300130D01*
X107956397Y-108566292D01*
X108023329Y-108691514D01*
X108267298Y-108763097D01*
X109080395Y-107950000D01*
X108267298Y-107136903D01*
X108023329Y-107208486D01*
X107902429Y-107463996D01*
X107833700Y-107738184D01*
X107819783Y-108020512D01*
X106251109Y-108020512D01*
X106315990Y-107923411D01*
X106427932Y-107653158D01*
X106485000Y-107366260D01*
X106485000Y-107073740D01*
X106461839Y-106957298D01*
X108446903Y-106957298D01*
X109260000Y-107770395D01*
X110073097Y-106957298D01*
X110001514Y-106713329D01*
X109746004Y-106592429D01*
X109471816Y-106523700D01*
X109189488Y-106509783D01*
X108909870Y-106551213D01*
X108643708Y-106646397D01*
X108518486Y-106713329D01*
X108446903Y-106957298D01*
X106461839Y-106957298D01*
X106427932Y-106786842D01*
X106315990Y-106516589D01*
X106214701Y-106364999D01*
X112564134Y-106364999D01*
X112740235Y-106541101D01*
X112684482Y-106524188D01*
X112560000Y-106511928D01*
X110960000Y-106511928D01*
X110835518Y-106524188D01*
X110715820Y-106560498D01*
X110605506Y-106619463D01*
X110508815Y-106698815D01*
X110429463Y-106795506D01*
X110370498Y-106905820D01*
X110334188Y-107025518D01*
X110321928Y-107150000D01*
X110321928Y-107157215D01*
X110252702Y-107136903D01*
X109439605Y-107950000D01*
X110252702Y-108763097D01*
X110321928Y-108742785D01*
X110321928Y-108750000D01*
X110334188Y-108874482D01*
X110370498Y-108994180D01*
X110429463Y-109104494D01*
X110508815Y-109201185D01*
X110605506Y-109280537D01*
X110715820Y-109339502D01*
X110835518Y-109375812D01*
X110960000Y-109388072D01*
X112560000Y-109388072D01*
X112684482Y-109375812D01*
X112804180Y-109339502D01*
X112914494Y-109280537D01*
X113011185Y-109201185D01*
X113090537Y-109104494D01*
X113149502Y-108994180D01*
X113185812Y-108874482D01*
X113198072Y-108750000D01*
X113198072Y-107150000D01*
X113185812Y-107025518D01*
X113168900Y-106969765D01*
X115190000Y-108990867D01*
X115190001Y-111825228D01*
X115072038Y-111922038D01*
X115000000Y-112009816D01*
X114927962Y-111922038D01*
X114793387Y-111811595D01*
X114639851Y-111729528D01*
X114473255Y-111678992D01*
X114300001Y-111661928D01*
X113649999Y-111661928D01*
X113476745Y-111678992D01*
X113310149Y-111729528D01*
X113156613Y-111811595D01*
X113022038Y-111922038D01*
X112911595Y-112056613D01*
X112829528Y-112210149D01*
X112820473Y-112240000D01*
X112179527Y-112240000D01*
X112170472Y-112210149D01*
X112088405Y-112056613D01*
X111977962Y-111922038D01*
X111843387Y-111811595D01*
X111689851Y-111729528D01*
X111523255Y-111678992D01*
X111350001Y-111661928D01*
X110699999Y-111661928D01*
X110526745Y-111678992D01*
X110360149Y-111729528D01*
X110206613Y-111811595D01*
X110072038Y-111922038D01*
X110066658Y-111928594D01*
X110001185Y-111848815D01*
X109904494Y-111769463D01*
X109794180Y-111710498D01*
X109674482Y-111674188D01*
X109550000Y-111661928D01*
X109260750Y-111665000D01*
X109102000Y-111823750D01*
X109102000Y-112873000D01*
X109122000Y-112873000D01*
X109122000Y-113127000D01*
X109102000Y-113127000D01*
X109102000Y-114176250D01*
X109260750Y-114335000D01*
X109550000Y-114338072D01*
X109674482Y-114325812D01*
X109794180Y-114289502D01*
X109904494Y-114230537D01*
X110001185Y-114151185D01*
X110066658Y-114071406D01*
X110072038Y-114077962D01*
X110206613Y-114188405D01*
X110360149Y-114270472D01*
X110526745Y-114321008D01*
X110699999Y-114338072D01*
X111350001Y-114338072D01*
X111523255Y-114321008D01*
X111689851Y-114270472D01*
X111843387Y-114188405D01*
X111977962Y-114077962D01*
X112088405Y-113943387D01*
X112170472Y-113789851D01*
X112179527Y-113760000D01*
X112820473Y-113760000D01*
X112829528Y-113789851D01*
X112911595Y-113943387D01*
X113022038Y-114077962D01*
X113156613Y-114188405D01*
X113310149Y-114270472D01*
X113476745Y-114321008D01*
X113649999Y-114338072D01*
X114300001Y-114338072D01*
X114473255Y-114321008D01*
X114639851Y-114270472D01*
X114793387Y-114188405D01*
X114927962Y-114077962D01*
X115000000Y-113990184D01*
X115072038Y-114077962D01*
X115206613Y-114188405D01*
X115360149Y-114270472D01*
X115526745Y-114321008D01*
X115699999Y-114338072D01*
X116350001Y-114338072D01*
X116523255Y-114321008D01*
X116689851Y-114270472D01*
X116843387Y-114188405D01*
X116977962Y-114077962D01*
X117088405Y-113943387D01*
X117146339Y-113835000D01*
X117466715Y-113835000D01*
X117589744Y-113917205D01*
X117778102Y-113995226D01*
X117978061Y-114035000D01*
X118181939Y-114035000D01*
X118381898Y-113995226D01*
X118570256Y-113917205D01*
X118693285Y-113835000D01*
X119515000Y-113835000D01*
X119515000Y-114066260D01*
X119572068Y-114353158D01*
X119684010Y-114623411D01*
X119846525Y-114866632D01*
X120053368Y-115073475D01*
X120190345Y-115165000D01*
X118613285Y-115165000D01*
X118490256Y-115082795D01*
X118301898Y-115004774D01*
X118101939Y-114965000D01*
X117898061Y-114965000D01*
X117698102Y-115004774D01*
X117509744Y-115082795D01*
X117386715Y-115165000D01*
X117146339Y-115165000D01*
X117088405Y-115056613D01*
X116977962Y-114922038D01*
X116843387Y-114811595D01*
X116689851Y-114729528D01*
X116523255Y-114678992D01*
X116350001Y-114661928D01*
X115699999Y-114661928D01*
X115526745Y-114678992D01*
X115360149Y-114729528D01*
X115206613Y-114811595D01*
X115072038Y-114922038D01*
X115000000Y-115009816D01*
X114927962Y-114922038D01*
X114793387Y-114811595D01*
X114639851Y-114729528D01*
X114473255Y-114678992D01*
X114300001Y-114661928D01*
X113649999Y-114661928D01*
X113476745Y-114678992D01*
X113310149Y-114729528D01*
X113156613Y-114811595D01*
X113022038Y-114922038D01*
X112911595Y-115056613D01*
X112829528Y-115210149D01*
X112820473Y-115240000D01*
X112179527Y-115240000D01*
X112170472Y-115210149D01*
X112088405Y-115056613D01*
X111977962Y-114922038D01*
X111843387Y-114811595D01*
X111689851Y-114729528D01*
X111523255Y-114678992D01*
X111350001Y-114661928D01*
X110699999Y-114661928D01*
X110526745Y-114678992D01*
X110360149Y-114729528D01*
X110206613Y-114811595D01*
X110072038Y-114922038D01*
X110066658Y-114928594D01*
X110001185Y-114848815D01*
X109904494Y-114769463D01*
X109794180Y-114710498D01*
X109674482Y-114674188D01*
X109550000Y-114661928D01*
X109260750Y-114665000D01*
X109102000Y-114823750D01*
X109102000Y-115873000D01*
X109122000Y-115873000D01*
X109122000Y-116127000D01*
X109102000Y-116127000D01*
X109102000Y-117176250D01*
X109260750Y-117335000D01*
X109550000Y-117338072D01*
X109674482Y-117325812D01*
X109794180Y-117289502D01*
X109904494Y-117230537D01*
X110001185Y-117151185D01*
X110066658Y-117071406D01*
X110072038Y-117077962D01*
X110206613Y-117188405D01*
X110360149Y-117270472D01*
X110526745Y-117321008D01*
X110699999Y-117338072D01*
X111350001Y-117338072D01*
X111523255Y-117321008D01*
X111689851Y-117270472D01*
X111843387Y-117188405D01*
X111977962Y-117077962D01*
X112088405Y-116943387D01*
X112170472Y-116789851D01*
X112179527Y-116760000D01*
X112820473Y-116760000D01*
X112829528Y-116789851D01*
X112911595Y-116943387D01*
X113022038Y-117077962D01*
X113156613Y-117188405D01*
X113310149Y-117270472D01*
X113476745Y-117321008D01*
X113649999Y-117338072D01*
X114300001Y-117338072D01*
X114473255Y-117321008D01*
X114639851Y-117270472D01*
X114793387Y-117188405D01*
X114927962Y-117077962D01*
X115000000Y-116990184D01*
X115072038Y-117077962D01*
X115206613Y-117188405D01*
X115360149Y-117270472D01*
X115526745Y-117321008D01*
X115699999Y-117338072D01*
X116350001Y-117338072D01*
X116523255Y-117321008D01*
X116689851Y-117270472D01*
X116843387Y-117188405D01*
X116977962Y-117077962D01*
X117088405Y-116943387D01*
X117146339Y-116835000D01*
X117386715Y-116835000D01*
X117509744Y-116917205D01*
X117698102Y-116995226D01*
X117898061Y-117035000D01*
X118101939Y-117035000D01*
X118301898Y-116995226D01*
X118490256Y-116917205D01*
X118613285Y-116835000D01*
X119560500Y-116835000D01*
X119572068Y-116893158D01*
X119684010Y-117163411D01*
X119846525Y-117406632D01*
X119978380Y-117538487D01*
X119905820Y-117560498D01*
X119795506Y-117619463D01*
X119698815Y-117698815D01*
X119619463Y-117795506D01*
X119560498Y-117905820D01*
X119524188Y-118025518D01*
X119511928Y-118150000D01*
X119511928Y-118165000D01*
X117146339Y-118165000D01*
X117088405Y-118056613D01*
X116977962Y-117922038D01*
X116843387Y-117811595D01*
X116689851Y-117729528D01*
X116523255Y-117678992D01*
X116350001Y-117661928D01*
X115699999Y-117661928D01*
X115526745Y-117678992D01*
X115360149Y-117729528D01*
X115206613Y-117811595D01*
X115072038Y-117922038D01*
X115000000Y-118009816D01*
X114927962Y-117922038D01*
X114793387Y-117811595D01*
X114639851Y-117729528D01*
X114473255Y-117678992D01*
X114300001Y-117661928D01*
X113649999Y-117661928D01*
X113476745Y-117678992D01*
X113310149Y-117729528D01*
X113156613Y-117811595D01*
X113022038Y-117922038D01*
X112911595Y-118056613D01*
X112829528Y-118210149D01*
X112820473Y-118240000D01*
X112179527Y-118240000D01*
X112170472Y-118210149D01*
X112088405Y-118056613D01*
X111977962Y-117922038D01*
X111843387Y-117811595D01*
X111689851Y-117729528D01*
X111523255Y-117678992D01*
X111350001Y-117661928D01*
X110699999Y-117661928D01*
X110526745Y-117678992D01*
X110360149Y-117729528D01*
X110206613Y-117811595D01*
X110072038Y-117922038D01*
X110066658Y-117928594D01*
X110001185Y-117848815D01*
X109904494Y-117769463D01*
X109794180Y-117710498D01*
X109674482Y-117674188D01*
X109550000Y-117661928D01*
X109260750Y-117665000D01*
X109102000Y-117823750D01*
X109102000Y-118873000D01*
X109122000Y-118873000D01*
X109122000Y-119127000D01*
X109102000Y-119127000D01*
X109102000Y-120176250D01*
X109260750Y-120335000D01*
X109550000Y-120338072D01*
X109674482Y-120325812D01*
X109794180Y-120289502D01*
X109904494Y-120230537D01*
X110001185Y-120151185D01*
X110066658Y-120071406D01*
X110072038Y-120077962D01*
X110206613Y-120188405D01*
X110360149Y-120270472D01*
X110526745Y-120321008D01*
X110699999Y-120338072D01*
X111350001Y-120338072D01*
X111523255Y-120321008D01*
X111689851Y-120270472D01*
X111843387Y-120188405D01*
X111977962Y-120077962D01*
X112088405Y-119943387D01*
X112170472Y-119789851D01*
X112179527Y-119760000D01*
X112820473Y-119760000D01*
X112829528Y-119789851D01*
X112911595Y-119943387D01*
X113022038Y-120077962D01*
X113156613Y-120188405D01*
X113310149Y-120270472D01*
X113476745Y-120321008D01*
X113649999Y-120338072D01*
X114300001Y-120338072D01*
X114473255Y-120321008D01*
X114639851Y-120270472D01*
X114793387Y-120188405D01*
X114927962Y-120077962D01*
X115000000Y-119990184D01*
X115072038Y-120077962D01*
X115206613Y-120188405D01*
X115360149Y-120270472D01*
X115526745Y-120321008D01*
X115699999Y-120338072D01*
X116350001Y-120338072D01*
X116523255Y-120321008D01*
X116689851Y-120270472D01*
X116843387Y-120188405D01*
X116977962Y-120077962D01*
X117088405Y-119943387D01*
X117146339Y-119835000D01*
X119511928Y-119835000D01*
X119511928Y-119850000D01*
X119524188Y-119974482D01*
X119560498Y-120094180D01*
X119619463Y-120204494D01*
X119698815Y-120301185D01*
X119795506Y-120380537D01*
X119905820Y-120439502D01*
X120025518Y-120475812D01*
X120150000Y-120488072D01*
X121850000Y-120488072D01*
X121974482Y-120475812D01*
X122094180Y-120439502D01*
X122204494Y-120380537D01*
X122301185Y-120301185D01*
X122380537Y-120204494D01*
X122439502Y-120094180D01*
X122475812Y-119974482D01*
X122488072Y-119850000D01*
X122488072Y-119835000D01*
X126365000Y-119835000D01*
X126365000Y-120158016D01*
X126504691Y-120860290D01*
X126778705Y-121521818D01*
X126906322Y-121712810D01*
X124386374Y-124232759D01*
X124375812Y-124125518D01*
X124339502Y-124005820D01*
X124280537Y-123895506D01*
X124201185Y-123798815D01*
X124104494Y-123719463D01*
X123994180Y-123660498D01*
X123874482Y-123624188D01*
X123750000Y-123611928D01*
X120250000Y-123611928D01*
X120125518Y-123624188D01*
X120005820Y-123660498D01*
X119895506Y-123719463D01*
X119798815Y-123798815D01*
X119719463Y-123895506D01*
X119660498Y-124005820D01*
X119624188Y-124125518D01*
X119611928Y-124250000D01*
X119611928Y-127750000D01*
X119624188Y-127874482D01*
X119660498Y-127994180D01*
X119719463Y-128104494D01*
X119798815Y-128201185D01*
X119895506Y-128280537D01*
X119972131Y-128321494D01*
X119875000Y-128311928D01*
X118125000Y-128311928D01*
X117829814Y-128341001D01*
X117545972Y-128427104D01*
X117284382Y-128566927D01*
X117055097Y-128755097D01*
X116866927Y-128984382D01*
X116727104Y-129245972D01*
X116641001Y-129529814D01*
X116611928Y-129825000D01*
X116611928Y-131575000D01*
X116641001Y-131870186D01*
X116727104Y-132154028D01*
X116866927Y-132415618D01*
X117055097Y-132644903D01*
X117284382Y-132833073D01*
X117545972Y-132972896D01*
X117829814Y-133058999D01*
X118125000Y-133088072D01*
X119875000Y-133088072D01*
X120170186Y-133058999D01*
X120454028Y-132972896D01*
X120715618Y-132833073D01*
X120944903Y-132644903D01*
X121133073Y-132415618D01*
X121272896Y-132154028D01*
X121358999Y-131870186D01*
X121388072Y-131575000D01*
X121388072Y-130000000D01*
X126361928Y-130000000D01*
X126374188Y-130124482D01*
X126410498Y-130244180D01*
X126469463Y-130354494D01*
X126548815Y-130451185D01*
X126645506Y-130530537D01*
X126755820Y-130589502D01*
X126875518Y-130625812D01*
X127000000Y-130638072D01*
X129714250Y-130635000D01*
X129873000Y-130476250D01*
X129873000Y-127127000D01*
X130127000Y-127127000D01*
X130127000Y-130476250D01*
X130285750Y-130635000D01*
X133000000Y-130638072D01*
X133124482Y-130625812D01*
X133244180Y-130589502D01*
X133354494Y-130530537D01*
X133451185Y-130451185D01*
X133530537Y-130354494D01*
X133589502Y-130244180D01*
X133625812Y-130124482D01*
X133638072Y-130000000D01*
X133635000Y-127285750D01*
X133476250Y-127127000D01*
X130127000Y-127127000D01*
X129873000Y-127127000D01*
X126523750Y-127127000D01*
X126365000Y-127285750D01*
X126361928Y-130000000D01*
X121388072Y-130000000D01*
X121388072Y-129825000D01*
X121358999Y-129529814D01*
X121272896Y-129245972D01*
X121133073Y-128984382D01*
X120944903Y-128755097D01*
X120715618Y-128566927D01*
X120454028Y-128427104D01*
X120325357Y-128388072D01*
X123750000Y-128388072D01*
X123874482Y-128375812D01*
X123994180Y-128339502D01*
X124104494Y-128280537D01*
X124201185Y-128201185D01*
X124280537Y-128104494D01*
X124339502Y-127994180D01*
X124375812Y-127874482D01*
X124388072Y-127750000D01*
X124388072Y-126597574D01*
X124393291Y-126593291D01*
X124419446Y-126561421D01*
X126362628Y-124618240D01*
X126365000Y-126714250D01*
X126523750Y-126873000D01*
X129873000Y-126873000D01*
X129873000Y-126853000D01*
X130127000Y-126853000D01*
X130127000Y-126873000D01*
X133476250Y-126873000D01*
X133635000Y-126714250D01*
X133638072Y-124000000D01*
X133625812Y-123875518D01*
X133589502Y-123755820D01*
X133530537Y-123645506D01*
X133451185Y-123548815D01*
X133354494Y-123469463D01*
X133244180Y-123410498D01*
X133124482Y-123374188D01*
X133000000Y-123361928D01*
X130712357Y-123364517D01*
X131060290Y-123295309D01*
X131721818Y-123021295D01*
X132317177Y-122623489D01*
X132823489Y-122117177D01*
X133221295Y-121521818D01*
X133495309Y-120860290D01*
X133635000Y-120158016D01*
X133635000Y-119441984D01*
X133495309Y-118739710D01*
X133221295Y-118078182D01*
X132823489Y-117482823D01*
X132317177Y-116976511D01*
X131721818Y-116578705D01*
X131060290Y-116304691D01*
X130835000Y-116259878D01*
X130835000Y-115335000D01*
X130911939Y-115335000D01*
X131111898Y-115295226D01*
X131300256Y-115217205D01*
X131469774Y-115103937D01*
X131613937Y-114959774D01*
X131727205Y-114790256D01*
X131805226Y-114601898D01*
X131845000Y-114401939D01*
X131845000Y-114198061D01*
X131805226Y-113998102D01*
X131727205Y-113809744D01*
X131630490Y-113665000D01*
X131727205Y-113520256D01*
X131805226Y-113331898D01*
X131845000Y-113131939D01*
X131845000Y-112928061D01*
X131805226Y-112728102D01*
X131727205Y-112539744D01*
X131613937Y-112370226D01*
X131469774Y-112226063D01*
X131300256Y-112112795D01*
X131111898Y-112034774D01*
X131041513Y-112020774D01*
X131087175Y-111975112D01*
X131208895Y-111792946D01*
X131278522Y-111909835D01*
X131473431Y-112126068D01*
X131706780Y-112300121D01*
X131969601Y-112425305D01*
X132116810Y-112469956D01*
X132346700Y-112348635D01*
X132346700Y-111155480D01*
X132600700Y-111155480D01*
X132600700Y-112348635D01*
X132830590Y-112469956D01*
X132977799Y-112425305D01*
X133240620Y-112300121D01*
X133473969Y-112126068D01*
X133668878Y-111909835D01*
X133817857Y-111659732D01*
X133915181Y-111385371D01*
X133794514Y-111155480D01*
X132600700Y-111155480D01*
X132346700Y-111155480D01*
X132326700Y-111155480D01*
X132326700Y-110901480D01*
X132346700Y-110901480D01*
X132346700Y-109708325D01*
X132340665Y-109705140D01*
X132346700Y-109701955D01*
X132346700Y-108508800D01*
X132600700Y-108508800D01*
X132600700Y-109701955D01*
X132606735Y-109705140D01*
X132600700Y-109708325D01*
X132600700Y-110901480D01*
X133794514Y-110901480D01*
X133915181Y-110671589D01*
X133817857Y-110397228D01*
X133668878Y-110147125D01*
X133473969Y-109930892D01*
X133240620Y-109756839D01*
X133132079Y-109705140D01*
X133240620Y-109653441D01*
X133473969Y-109479388D01*
X133668878Y-109263155D01*
X133817857Y-109013052D01*
X133915181Y-108738691D01*
X133794514Y-108508800D01*
X132600700Y-108508800D01*
X132346700Y-108508800D01*
X132326700Y-108508800D01*
X132326700Y-108254800D01*
X132346700Y-108254800D01*
X132346700Y-107061645D01*
X132322282Y-107048759D01*
X132334000Y-107042575D01*
X132334000Y-105849420D01*
X132588000Y-105849420D01*
X132588000Y-107042575D01*
X132612418Y-107055461D01*
X132600700Y-107061645D01*
X132600700Y-108254800D01*
X133794514Y-108254800D01*
X133915181Y-108024909D01*
X133817857Y-107750548D01*
X133668878Y-107500445D01*
X133473969Y-107284212D01*
X133240620Y-107110159D01*
X133112397Y-107049085D01*
X133227920Y-106994061D01*
X133461269Y-106820008D01*
X133656178Y-106603775D01*
X133805157Y-106353672D01*
X133902481Y-106079311D01*
X133781814Y-105849420D01*
X132588000Y-105849420D01*
X132334000Y-105849420D01*
X132314000Y-105849420D01*
X132314000Y-105595420D01*
X132334000Y-105595420D01*
X132334000Y-104402265D01*
X132327965Y-104399080D01*
X132334000Y-104395895D01*
X132334000Y-103202740D01*
X132588000Y-103202740D01*
X132588000Y-104395895D01*
X132594035Y-104399080D01*
X132588000Y-104402265D01*
X132588000Y-105595420D01*
X133781814Y-105595420D01*
X133902481Y-105365529D01*
X133805157Y-105091168D01*
X133656178Y-104841065D01*
X133461269Y-104624832D01*
X133227920Y-104450779D01*
X133119379Y-104399080D01*
X133227920Y-104347381D01*
X133461269Y-104173328D01*
X133656178Y-103957095D01*
X133805157Y-103706992D01*
X133902481Y-103432631D01*
X133781814Y-103202740D01*
X132588000Y-103202740D01*
X132334000Y-103202740D01*
X132314000Y-103202740D01*
X132314000Y-102948740D01*
X132334000Y-102948740D01*
X132334000Y-101755585D01*
X132323840Y-101750223D01*
X132323840Y-100578920D01*
X132577840Y-100578920D01*
X132577840Y-101772075D01*
X132588000Y-101777437D01*
X132588000Y-102948740D01*
X133781814Y-102948740D01*
X133902481Y-102718849D01*
X133805157Y-102444488D01*
X133656178Y-102194385D01*
X133461269Y-101978152D01*
X133227920Y-101804099D01*
X133138296Y-101761410D01*
X133217760Y-101723561D01*
X133451109Y-101549508D01*
X133646018Y-101333275D01*
X133794997Y-101083172D01*
X133892321Y-100808811D01*
X133771654Y-100578920D01*
X132577840Y-100578920D01*
X132323840Y-100578920D01*
X132303840Y-100578920D01*
X132303840Y-100324920D01*
X132323840Y-100324920D01*
X132323840Y-99131765D01*
X132305772Y-99122230D01*
X132323840Y-99112695D01*
X132323840Y-97919540D01*
X132577840Y-97919540D01*
X132577840Y-99112695D01*
X132595908Y-99122230D01*
X132577840Y-99131765D01*
X132577840Y-100324920D01*
X133771654Y-100324920D01*
X133892321Y-100095029D01*
X133794997Y-99820668D01*
X133646018Y-99570565D01*
X133451109Y-99354332D01*
X133217760Y-99180279D01*
X133095887Y-99122230D01*
X133217760Y-99064181D01*
X133451109Y-98890128D01*
X133646018Y-98673895D01*
X133794997Y-98423792D01*
X133892321Y-98149431D01*
X133771654Y-97919540D01*
X132577840Y-97919540D01*
X132323840Y-97919540D01*
X132303840Y-97919540D01*
X132303840Y-97665540D01*
X132323840Y-97665540D01*
X132323840Y-96472385D01*
X132320211Y-96470470D01*
X132323840Y-96468555D01*
X132323840Y-95275400D01*
X132577840Y-95275400D01*
X132577840Y-96468555D01*
X132581469Y-96470470D01*
X132577840Y-96472385D01*
X132577840Y-97665540D01*
X133771654Y-97665540D01*
X133892321Y-97435649D01*
X133794997Y-97161288D01*
X133646018Y-96911185D01*
X133451109Y-96694952D01*
X133217760Y-96520899D01*
X133111885Y-96470470D01*
X133217760Y-96420041D01*
X133451109Y-96245988D01*
X133646018Y-96029755D01*
X133794997Y-95779652D01*
X133892321Y-95505291D01*
X133771654Y-95275400D01*
X132577840Y-95275400D01*
X132323840Y-95275400D01*
X132303840Y-95275400D01*
X132303840Y-95021400D01*
X132323840Y-95021400D01*
X132323840Y-93828245D01*
X132300692Y-93816029D01*
X132313680Y-93809175D01*
X132313680Y-92616020D01*
X132567680Y-92616020D01*
X132567680Y-93809175D01*
X132590828Y-93821391D01*
X132577840Y-93828245D01*
X132577840Y-95021400D01*
X133771654Y-95021400D01*
X133892321Y-94791509D01*
X133794997Y-94517148D01*
X133646018Y-94267045D01*
X133451109Y-94050812D01*
X133217760Y-93876759D01*
X133090807Y-93816290D01*
X133207600Y-93760661D01*
X133440949Y-93586608D01*
X133635858Y-93370375D01*
X133784837Y-93120272D01*
X133882161Y-92845911D01*
X133761494Y-92616020D01*
X132567680Y-92616020D01*
X132313680Y-92616020D01*
X132293680Y-92616020D01*
X132293680Y-92362020D01*
X132313680Y-92362020D01*
X132313680Y-91168865D01*
X132307645Y-91165680D01*
X132313680Y-91162495D01*
X132313680Y-89969340D01*
X132567680Y-89969340D01*
X132567680Y-91162495D01*
X132573715Y-91165680D01*
X132567680Y-91168865D01*
X132567680Y-92362020D01*
X133761494Y-92362020D01*
X133882161Y-92132129D01*
X133784837Y-91857768D01*
X133635858Y-91607665D01*
X133440949Y-91391432D01*
X133207600Y-91217379D01*
X133099059Y-91165680D01*
X133207600Y-91113981D01*
X133440949Y-90939928D01*
X133635858Y-90723695D01*
X133784837Y-90473592D01*
X133882161Y-90199231D01*
X133761494Y-89969340D01*
X132567680Y-89969340D01*
X132313680Y-89969340D01*
X132293680Y-89969340D01*
X132293680Y-89715340D01*
X132313680Y-89715340D01*
X132313680Y-88522185D01*
X132307645Y-88519000D01*
X132313680Y-88515815D01*
X132313680Y-87322660D01*
X132567680Y-87322660D01*
X132567680Y-88515815D01*
X132573715Y-88519000D01*
X132567680Y-88522185D01*
X132567680Y-89715340D01*
X133761494Y-89715340D01*
X133882161Y-89485449D01*
X133784837Y-89211088D01*
X133635858Y-88960985D01*
X133440949Y-88744752D01*
X133207600Y-88570699D01*
X133099059Y-88519000D01*
X133207600Y-88467301D01*
X133440949Y-88293248D01*
X133635858Y-88077015D01*
X133784837Y-87826912D01*
X133882161Y-87552551D01*
X133761494Y-87322660D01*
X132567680Y-87322660D01*
X132313680Y-87322660D01*
X132293680Y-87322660D01*
X132293680Y-87068660D01*
X132313680Y-87068660D01*
X132313680Y-85875505D01*
X132567680Y-85875505D01*
X132567680Y-87068660D01*
X133761494Y-87068660D01*
X133882161Y-86838769D01*
X133784837Y-86564408D01*
X133635858Y-86314305D01*
X133440949Y-86098072D01*
X133207600Y-85924019D01*
X133104139Y-85874740D01*
X133217760Y-85820621D01*
X133451109Y-85646568D01*
X133646018Y-85430335D01*
X133794997Y-85180232D01*
X133892321Y-84905871D01*
X133771654Y-84675980D01*
X132577840Y-84675980D01*
X132577840Y-85869135D01*
X132578795Y-85869639D01*
X132567680Y-85875505D01*
X132313680Y-85875505D01*
X132312725Y-85875001D01*
X132323840Y-85869135D01*
X132323840Y-84675980D01*
X132303840Y-84675980D01*
X132303840Y-84421980D01*
X132323840Y-84421980D01*
X132323840Y-83228825D01*
X132300980Y-83216761D01*
X132300980Y-82031840D01*
X132554980Y-82031840D01*
X132554980Y-83224995D01*
X132577840Y-83237059D01*
X132577840Y-84421980D01*
X133771654Y-84421980D01*
X133892321Y-84192089D01*
X133794997Y-83917728D01*
X133646018Y-83667625D01*
X133451109Y-83451392D01*
X133217760Y-83277339D01*
X133100455Y-83221466D01*
X133194900Y-83176481D01*
X133428249Y-83002428D01*
X133623158Y-82786195D01*
X133772137Y-82536092D01*
X133869461Y-82261731D01*
X133748794Y-82031840D01*
X132554980Y-82031840D01*
X132300980Y-82031840D01*
X132280980Y-82031840D01*
X132280980Y-81777840D01*
X132300980Y-81777840D01*
X132300980Y-80584685D01*
X132257577Y-80561780D01*
X132298440Y-80540215D01*
X132298440Y-79347060D01*
X132552440Y-79347060D01*
X132552440Y-80540215D01*
X132595843Y-80563120D01*
X132554980Y-80584685D01*
X132554980Y-81777840D01*
X133748794Y-81777840D01*
X133869461Y-81547949D01*
X133772137Y-81273588D01*
X133623158Y-81023485D01*
X133428249Y-80807252D01*
X133194900Y-80633199D01*
X133045094Y-80561845D01*
X133192360Y-80491701D01*
X133425709Y-80317648D01*
X133620618Y-80101415D01*
X133769597Y-79851312D01*
X133866921Y-79576951D01*
X133746254Y-79347060D01*
X132552440Y-79347060D01*
X132298440Y-79347060D01*
X132278440Y-79347060D01*
X132278440Y-79093060D01*
X132298440Y-79093060D01*
X132298440Y-77899905D01*
X132261120Y-77880210D01*
X132298440Y-77860515D01*
X132298440Y-76667360D01*
X132552440Y-76667360D01*
X132552440Y-77860515D01*
X132589760Y-77880210D01*
X132552440Y-77899905D01*
X132552440Y-79093060D01*
X133746254Y-79093060D01*
X133866921Y-78863169D01*
X133769597Y-78588808D01*
X133620618Y-78338705D01*
X133425709Y-78122472D01*
X133192360Y-77948419D01*
X133049157Y-77880210D01*
X133192360Y-77812001D01*
X133425709Y-77637948D01*
X133620618Y-77421715D01*
X133769597Y-77171612D01*
X133866921Y-76897251D01*
X133746254Y-76667360D01*
X132552440Y-76667360D01*
X132298440Y-76667360D01*
X132278440Y-76667360D01*
X132278440Y-76413360D01*
X132298440Y-76413360D01*
X132298440Y-75220205D01*
X132273153Y-75206860D01*
X132298440Y-75193515D01*
X132298440Y-74000360D01*
X132552440Y-74000360D01*
X132552440Y-75193515D01*
X132577727Y-75206860D01*
X132552440Y-75220205D01*
X132552440Y-76413360D01*
X133746254Y-76413360D01*
X133866921Y-76183469D01*
X133769597Y-75909108D01*
X133620618Y-75659005D01*
X133425709Y-75442772D01*
X133192360Y-75268719D01*
X133062488Y-75206860D01*
X133192360Y-75145001D01*
X133425709Y-74970948D01*
X133620618Y-74754715D01*
X133769597Y-74504612D01*
X133866921Y-74230251D01*
X133746254Y-74000360D01*
X132552440Y-74000360D01*
X132298440Y-74000360D01*
X132278440Y-74000360D01*
X132278440Y-73746360D01*
X132298440Y-73746360D01*
X132298440Y-72553205D01*
X132265933Y-72536050D01*
X132298440Y-72518895D01*
X132298440Y-71325740D01*
X132552440Y-71325740D01*
X132552440Y-72518895D01*
X132584947Y-72536050D01*
X132552440Y-72553205D01*
X132552440Y-73746360D01*
X133746254Y-73746360D01*
X133866921Y-73516469D01*
X133769597Y-73242108D01*
X133620618Y-72992005D01*
X133425709Y-72775772D01*
X133192360Y-72601719D01*
X133054489Y-72536050D01*
X133192360Y-72470381D01*
X133425709Y-72296328D01*
X133620618Y-72080095D01*
X133769597Y-71829992D01*
X133866921Y-71555631D01*
X133746254Y-71325740D01*
X132552440Y-71325740D01*
X132298440Y-71325740D01*
X132278440Y-71325740D01*
X132278440Y-71071740D01*
X132298440Y-71071740D01*
X132298440Y-69878585D01*
X132552440Y-69878585D01*
X132552440Y-71071740D01*
X133746254Y-71071740D01*
X133866921Y-70841849D01*
X133769597Y-70567488D01*
X133620618Y-70317385D01*
X133425709Y-70101152D01*
X133192360Y-69927099D01*
X132929539Y-69801915D01*
X132782330Y-69757264D01*
X132552440Y-69878585D01*
X132298440Y-69878585D01*
X132068550Y-69757264D01*
X131921341Y-69801915D01*
X131658520Y-69927099D01*
X131425171Y-70101152D01*
X131230262Y-70317385D01*
X131160635Y-70434274D01*
X131038915Y-70252108D01*
X130832072Y-70045265D01*
X130588851Y-69882750D01*
X130318598Y-69770808D01*
X130031700Y-69713740D01*
X129739180Y-69713740D01*
X129452282Y-69770808D01*
X129182029Y-69882750D01*
X128938808Y-70045265D01*
X128806953Y-70177120D01*
X128784942Y-70104560D01*
X128725977Y-69994246D01*
X128646625Y-69897555D01*
X128549934Y-69818203D01*
X128439620Y-69759238D01*
X128319922Y-69722928D01*
X128195440Y-69710668D01*
X126495440Y-69710668D01*
X126370958Y-69722928D01*
X126251260Y-69759238D01*
X126140946Y-69818203D01*
X126044255Y-69897555D01*
X125964903Y-69994246D01*
X125905938Y-70104560D01*
X125869628Y-70224258D01*
X125857368Y-70348740D01*
X125857368Y-71612010D01*
X122488998Y-74980381D01*
X122460000Y-75004179D01*
X122436202Y-75033177D01*
X122436201Y-75033178D01*
X122365026Y-75119904D01*
X122294454Y-75251934D01*
X122275374Y-75314836D01*
X122253519Y-75386885D01*
X122250998Y-75395195D01*
X122236324Y-75544180D01*
X122240001Y-75581512D01*
X122240000Y-84685198D01*
X120937201Y-85987998D01*
X120826252Y-85987998D01*
X120985000Y-85829250D01*
X120988072Y-85540000D01*
X120975812Y-85415518D01*
X120939502Y-85295820D01*
X120880537Y-85185506D01*
X120801185Y-85088815D01*
X120721406Y-85023342D01*
X120727962Y-85017962D01*
X120838405Y-84883387D01*
X120920472Y-84729851D01*
X120971008Y-84563255D01*
X120988072Y-84390001D01*
X120988072Y-83739999D01*
X120971008Y-83566745D01*
X120920472Y-83400149D01*
X120838405Y-83246613D01*
X120727962Y-83112038D01*
X120593387Y-83001595D01*
X120439851Y-82919528D01*
X120410000Y-82910473D01*
X120410000Y-81713711D01*
X120453937Y-81669774D01*
X120567205Y-81500256D01*
X120645226Y-81311898D01*
X120685000Y-81111939D01*
X120685000Y-80908061D01*
X120645226Y-80708102D01*
X120585062Y-80562855D01*
X120593387Y-80558405D01*
X120727962Y-80447962D01*
X120838405Y-80313387D01*
X120920472Y-80159851D01*
X120971008Y-79993255D01*
X120988072Y-79820001D01*
X120988072Y-79169999D01*
X120971008Y-78996745D01*
X120920472Y-78830149D01*
X120838405Y-78676613D01*
X120727962Y-78542038D01*
X120640184Y-78470000D01*
X120727962Y-78397962D01*
X120838405Y-78263387D01*
X120920472Y-78109851D01*
X120971008Y-77943255D01*
X120988072Y-77770001D01*
X120988072Y-77119999D01*
X120971008Y-76946745D01*
X120920472Y-76780149D01*
X120838405Y-76626613D01*
X120727962Y-76492038D01*
X120593387Y-76381595D01*
X120439851Y-76299528D01*
X120273255Y-76248992D01*
X120100001Y-76231928D01*
X119199999Y-76231928D01*
X119026745Y-76248992D01*
X118860149Y-76299528D01*
X118706613Y-76381595D01*
X118572038Y-76492038D01*
X118475229Y-76610000D01*
X118284771Y-76610000D01*
X118187962Y-76492038D01*
X118053387Y-76381595D01*
X117899851Y-76299528D01*
X117733255Y-76248992D01*
X117560001Y-76231928D01*
X116659999Y-76231928D01*
X116486745Y-76248992D01*
X116320149Y-76299528D01*
X116166613Y-76381595D01*
X116032038Y-76492038D01*
X115935229Y-76610000D01*
X115744771Y-76610000D01*
X115647962Y-76492038D01*
X115513387Y-76381595D01*
X115359851Y-76299528D01*
X115193255Y-76248992D01*
X115020001Y-76231928D01*
X114440785Y-76231928D01*
X114301188Y-76189582D01*
X114137500Y-76173460D01*
X113973812Y-76189582D01*
X113816414Y-76237328D01*
X113671355Y-76314864D01*
X113544210Y-76419210D01*
X113439864Y-76546355D01*
X113425674Y-76572903D01*
X113395229Y-76610000D01*
X113204771Y-76610000D01*
X113107962Y-76492038D01*
X112973387Y-76381595D01*
X112819851Y-76299528D01*
X112653255Y-76248992D01*
X112480001Y-76231928D01*
X111579999Y-76231928D01*
X111406745Y-76248992D01*
X111240149Y-76299528D01*
X111086613Y-76381595D01*
X110952038Y-76492038D01*
X110855229Y-76610000D01*
X110664771Y-76610000D01*
X110567962Y-76492038D01*
X110433387Y-76381595D01*
X110279851Y-76299528D01*
X110113255Y-76248992D01*
X109940001Y-76231928D01*
X109039999Y-76231928D01*
X108866745Y-76248992D01*
X108700149Y-76299528D01*
X108546613Y-76381595D01*
X108412038Y-76492038D01*
X108301595Y-76626613D01*
X108219528Y-76780149D01*
X108168992Y-76946745D01*
X108151928Y-77119999D01*
X108151928Y-77602205D01*
X107438574Y-78315559D01*
X107406710Y-78341709D01*
X107332943Y-78431595D01*
X107302364Y-78468855D01*
X107224828Y-78613914D01*
X107177082Y-78771312D01*
X107160960Y-78935000D01*
X107165001Y-78976029D01*
X107165000Y-95958981D01*
X107160960Y-96000000D01*
X107165000Y-96041018D01*
X107165001Y-96041028D01*
X107165000Y-101334131D01*
X106485000Y-102014132D01*
X106485000Y-101993740D01*
X106427932Y-101706842D01*
X106315990Y-101436589D01*
X106153475Y-101193368D01*
X105946632Y-100986525D01*
X105772240Y-100870000D01*
X105946632Y-100753475D01*
X106153475Y-100546632D01*
X106315990Y-100303411D01*
X106427932Y-100033158D01*
X106485000Y-99746260D01*
X106485000Y-99453740D01*
X106427932Y-99166842D01*
X106315990Y-98896589D01*
X106153475Y-98653368D01*
X105946632Y-98446525D01*
X105772240Y-98330000D01*
X105946632Y-98213475D01*
X106153475Y-98006632D01*
X106315990Y-97763411D01*
X106427932Y-97493158D01*
X106485000Y-97206260D01*
X106485000Y-96913740D01*
X106427932Y-96626842D01*
X106315990Y-96356589D01*
X106153475Y-96113368D01*
X105946632Y-95906525D01*
X105764466Y-95784805D01*
X105881355Y-95715178D01*
X106097588Y-95520269D01*
X106271641Y-95286920D01*
X106396825Y-95024099D01*
X106441476Y-94876890D01*
X106320155Y-94647000D01*
X105127000Y-94647000D01*
X105127000Y-94667000D01*
X104873000Y-94667000D01*
X104873000Y-94647000D01*
X104853000Y-94647000D01*
X104853000Y-94393000D01*
X104873000Y-94393000D01*
X104873000Y-94373000D01*
X105127000Y-94373000D01*
X105127000Y-94393000D01*
X106320155Y-94393000D01*
X106441476Y-94163110D01*
X106396825Y-94015901D01*
X106271641Y-93753080D01*
X106097588Y-93519731D01*
X105881355Y-93324822D01*
X105764466Y-93255195D01*
X105946632Y-93133475D01*
X106153475Y-92926632D01*
X106315990Y-92683411D01*
X106427932Y-92413158D01*
X106485000Y-92126260D01*
X106485000Y-91833740D01*
X106427932Y-91546842D01*
X106315990Y-91276589D01*
X106153475Y-91033368D01*
X105946632Y-90826525D01*
X105772240Y-90710000D01*
X105946632Y-90593475D01*
X106153475Y-90386632D01*
X106315990Y-90143411D01*
X106427932Y-89873158D01*
X106485000Y-89586260D01*
X106485000Y-89293740D01*
X106427932Y-89006842D01*
X106315990Y-88736589D01*
X106153475Y-88493368D01*
X105946632Y-88286525D01*
X105772240Y-88170000D01*
X105946632Y-88053475D01*
X106153475Y-87846632D01*
X106315990Y-87603411D01*
X106427932Y-87333158D01*
X106485000Y-87046260D01*
X106485000Y-86753740D01*
X106427932Y-86466842D01*
X106315990Y-86196589D01*
X106153475Y-85953368D01*
X105946632Y-85746525D01*
X105772240Y-85630000D01*
X105946632Y-85513475D01*
X106153475Y-85306632D01*
X106315990Y-85063411D01*
X106427932Y-84793158D01*
X106485000Y-84506260D01*
X106485000Y-84213740D01*
X106427932Y-83926842D01*
X106315990Y-83656589D01*
X106153475Y-83413368D01*
X105946632Y-83206525D01*
X105772240Y-83090000D01*
X105946632Y-82973475D01*
X106153475Y-82766632D01*
X106315990Y-82523411D01*
X106427932Y-82253158D01*
X106485000Y-81966260D01*
X106485000Y-81673740D01*
X106427932Y-81386842D01*
X106315990Y-81116589D01*
X106153475Y-80873368D01*
X105946632Y-80666525D01*
X105772240Y-80550000D01*
X105946632Y-80433475D01*
X106153475Y-80226632D01*
X106315990Y-79983411D01*
X106427932Y-79713158D01*
X106485000Y-79426260D01*
X106485000Y-79133740D01*
X106427932Y-78846842D01*
X106315990Y-78576589D01*
X106153475Y-78333368D01*
X105946632Y-78126525D01*
X105764466Y-78004805D01*
X105881355Y-77935178D01*
X106097588Y-77740269D01*
X106271641Y-77506920D01*
X106396825Y-77244099D01*
X106441476Y-77096890D01*
X106320155Y-76867000D01*
X105127000Y-76867000D01*
X105127000Y-76887000D01*
X104873000Y-76887000D01*
X104873000Y-76867000D01*
X104853000Y-76867000D01*
X104853000Y-76613000D01*
X104873000Y-76613000D01*
X104873000Y-75419186D01*
X105127000Y-75419186D01*
X105127000Y-76613000D01*
X106320155Y-76613000D01*
X106441476Y-76383110D01*
X106396825Y-76235901D01*
X106271641Y-75973080D01*
X106097588Y-75739731D01*
X105881355Y-75544822D01*
X105631252Y-75395843D01*
X105356891Y-75298519D01*
X105127000Y-75419186D01*
X104873000Y-75419186D01*
X104643109Y-75298519D01*
X104368748Y-75395843D01*
X104118645Y-75544822D01*
X103902412Y-75739731D01*
X103731100Y-75969406D01*
X103613475Y-75793368D01*
X103406632Y-75586525D01*
X103163411Y-75424010D01*
X102893158Y-75312068D01*
X102606260Y-75255000D01*
X102313740Y-75255000D01*
X102026842Y-75312068D01*
X101756589Y-75424010D01*
X101513368Y-75586525D01*
X101306525Y-75793368D01*
X101144010Y-76036589D01*
X101032068Y-76306842D01*
X100975000Y-76593740D01*
X100685000Y-76593740D01*
X100685000Y-71779872D01*
X101765000Y-71779872D01*
X101765000Y-72220128D01*
X101850890Y-72651925D01*
X102019369Y-73058669D01*
X102263962Y-73424729D01*
X102575271Y-73736038D01*
X102941331Y-73980631D01*
X103348075Y-74149110D01*
X103779872Y-74235000D01*
X104220128Y-74235000D01*
X104651925Y-74149110D01*
X105058669Y-73980631D01*
X105424729Y-73736038D01*
X105736038Y-73424729D01*
X105980631Y-73058669D01*
X106149110Y-72651925D01*
X106235000Y-72220128D01*
X106235000Y-71779872D01*
X106149110Y-71348075D01*
X105980631Y-70941331D01*
X105736038Y-70575271D01*
X105424729Y-70263962D01*
X105058669Y-70019369D01*
X104651925Y-69850890D01*
X104220128Y-69765000D01*
X103779872Y-69765000D01*
X103348075Y-69850890D01*
X102941331Y-70019369D01*
X102575271Y-70263962D01*
X102263962Y-70575271D01*
X102019369Y-70941331D01*
X101850890Y-71348075D01*
X101765000Y-71779872D01*
X100685000Y-71779872D01*
X100685000Y-71033505D01*
X100732312Y-70550984D01*
X100862714Y-70119070D01*
X101074524Y-69720715D01*
X101287158Y-69460000D01*
X107271928Y-69460000D01*
X107271928Y-71160000D01*
X107284188Y-71284482D01*
X107320498Y-71404180D01*
X107379463Y-71514494D01*
X107458815Y-71611185D01*
X107555506Y-71690537D01*
X107665820Y-71749502D01*
X107738380Y-71771513D01*
X107606525Y-71903368D01*
X107444010Y-72146589D01*
X107332068Y-72416842D01*
X107275000Y-72703740D01*
X107275000Y-72996260D01*
X107332068Y-73283158D01*
X107444010Y-73553411D01*
X107606525Y-73796632D01*
X107813368Y-74003475D01*
X108056589Y-74165990D01*
X108326842Y-74277932D01*
X108613740Y-74335000D01*
X108906260Y-74335000D01*
X109193158Y-74277932D01*
X109463411Y-74165990D01*
X109706632Y-74003475D01*
X109913475Y-73796632D01*
X110030000Y-73622240D01*
X110146525Y-73796632D01*
X110353368Y-74003475D01*
X110596589Y-74165990D01*
X110866842Y-74277932D01*
X111153740Y-74335000D01*
X111446260Y-74335000D01*
X111733158Y-74277932D01*
X112003411Y-74165990D01*
X112246632Y-74003475D01*
X112453475Y-73796632D01*
X112615990Y-73553411D01*
X112727932Y-73283158D01*
X112785000Y-72996260D01*
X112785000Y-72703740D01*
X112727932Y-72416842D01*
X112615990Y-72146589D01*
X112453475Y-71903368D01*
X112321620Y-71771513D01*
X112394180Y-71749502D01*
X112504494Y-71690537D01*
X112601185Y-71611185D01*
X112680537Y-71514494D01*
X112739502Y-71404180D01*
X112775812Y-71284482D01*
X112788072Y-71160000D01*
X112788072Y-69460000D01*
X112775812Y-69335518D01*
X112739502Y-69215820D01*
X112680537Y-69105506D01*
X112601185Y-69008815D01*
X112504494Y-68929463D01*
X112394180Y-68870498D01*
X112274482Y-68834188D01*
X112150000Y-68821928D01*
X110450000Y-68821928D01*
X110325518Y-68834188D01*
X110205820Y-68870498D01*
X110095506Y-68929463D01*
X110030000Y-68983222D01*
X109964494Y-68929463D01*
X109854180Y-68870498D01*
X109734482Y-68834188D01*
X109610000Y-68821928D01*
X107910000Y-68821928D01*
X107785518Y-68834188D01*
X107665820Y-68870498D01*
X107555506Y-68929463D01*
X107458815Y-69008815D01*
X107379463Y-69105506D01*
X107320498Y-69215820D01*
X107284188Y-69335518D01*
X107271928Y-69460000D01*
X101287158Y-69460000D01*
X101359675Y-69371086D01*
X101707303Y-69083503D01*
X102104177Y-68868914D01*
X102535161Y-68735502D01*
X103015654Y-68685000D01*
X132966495Y-68685000D01*
X133254782Y-68713267D01*
G37*
X133254782Y-68713267D02*
X133499855Y-68787259D01*
X133725890Y-68907443D01*
X133924281Y-69069248D01*
X134087460Y-69266497D01*
X134209220Y-69491687D01*
X134284924Y-69736247D01*
X134315000Y-70022399D01*
X134315001Y-70966353D01*
X134315000Y-72033646D01*
X134315001Y-72033656D01*
X134315000Y-130033646D01*
X134315001Y-130033656D01*
X134315000Y-130966495D01*
X134267688Y-131449016D01*
X134137287Y-131880927D01*
X133925480Y-132279280D01*
X133640325Y-132628914D01*
X133292697Y-132916497D01*
X132895825Y-133131085D01*
X132464834Y-133264500D01*
X131984346Y-133315000D01*
X103033504Y-133315000D01*
X102550984Y-133267688D01*
X102119073Y-133137287D01*
X101720720Y-132925480D01*
X101371086Y-132640325D01*
X101083503Y-132292697D01*
X100868915Y-131895825D01*
X100735500Y-131464834D01*
X100685000Y-130984346D01*
X100685000Y-129779872D01*
X101765000Y-129779872D01*
X101765000Y-130220128D01*
X101850890Y-130651925D01*
X102019369Y-131058669D01*
X102263962Y-131424729D01*
X102575271Y-131736038D01*
X102941331Y-131980631D01*
X103348075Y-132149110D01*
X103779872Y-132235000D01*
X104220128Y-132235000D01*
X104651925Y-132149110D01*
X105058669Y-131980631D01*
X105424729Y-131736038D01*
X105736038Y-131424729D01*
X105980631Y-131058669D01*
X106149110Y-130651925D01*
X106235000Y-130220128D01*
X106235000Y-129779872D01*
X106149110Y-129348075D01*
X105980631Y-128941331D01*
X105736038Y-128575271D01*
X105424729Y-128263962D01*
X105281203Y-128168061D01*
X113265000Y-128168061D01*
X113265000Y-128371939D01*
X113304774Y-128571898D01*
X113382795Y-128760256D01*
X113496063Y-128929774D01*
X113640226Y-129073937D01*
X113809744Y-129187205D01*
X113998102Y-129265226D01*
X114198061Y-129305000D01*
X114401939Y-129305000D01*
X114601898Y-129265226D01*
X114790256Y-129187205D01*
X114959774Y-129073937D01*
X115103937Y-128929774D01*
X115217205Y-128760256D01*
X115295226Y-128571898D01*
X115332210Y-128385967D01*
X115714250Y-128385000D01*
X115873000Y-128226250D01*
X115873000Y-126127000D01*
X116127000Y-126127000D01*
X116127000Y-128226250D01*
X116285750Y-128385000D01*
X117500000Y-128388072D01*
X117624482Y-128375812D01*
X117744180Y-128339502D01*
X117854494Y-128280537D01*
X117951185Y-128201185D01*
X118030537Y-128104494D01*
X118089502Y-127994180D01*
X118125812Y-127874482D01*
X118138072Y-127750000D01*
X118135000Y-126285750D01*
X117976250Y-126127000D01*
X116127000Y-126127000D01*
X115873000Y-126127000D01*
X114023750Y-126127000D01*
X113865000Y-126285750D01*
X113862807Y-127330815D01*
X113809744Y-127352795D01*
X113640226Y-127466063D01*
X113496063Y-127610226D01*
X113382795Y-127779744D01*
X113304774Y-127968102D01*
X113265000Y-128168061D01*
X105281203Y-128168061D01*
X105058669Y-128019369D01*
X104651925Y-127850890D01*
X104220128Y-127765000D01*
X103779872Y-127765000D01*
X103348075Y-127850890D01*
X102941331Y-128019369D01*
X102575271Y-128263962D01*
X102263962Y-128575271D01*
X102019369Y-128941331D01*
X101850890Y-129348075D01*
X101765000Y-129779872D01*
X100685000Y-129779872D01*
X100685000Y-76593740D01*
X100975000Y-76593740D01*
X100975000Y-76886260D01*
X101032068Y-77173158D01*
X101144010Y-77443411D01*
X101306525Y-77686632D01*
X101513368Y-77893475D01*
X101687760Y-78010000D01*
X101513368Y-78126525D01*
X101306525Y-78333368D01*
X101144010Y-78576589D01*
X101032068Y-78846842D01*
X100975000Y-79133740D01*
X100975000Y-79426260D01*
X101032068Y-79713158D01*
X101144010Y-79983411D01*
X101306525Y-80226632D01*
X101513368Y-80433475D01*
X101687760Y-80550000D01*
X101513368Y-80666525D01*
X101306525Y-80873368D01*
X101144010Y-81116589D01*
X101032068Y-81386842D01*
X100975000Y-81673740D01*
X100975000Y-81966260D01*
X101032068Y-82253158D01*
X101144010Y-82523411D01*
X101306525Y-82766632D01*
X101513368Y-82973475D01*
X101695534Y-83095195D01*
X101578645Y-83164822D01*
X101362412Y-83359731D01*
X101188359Y-83593080D01*
X101063175Y-83855901D01*
X101018524Y-84003110D01*
X101139845Y-84233000D01*
X102333000Y-84233000D01*
X102333000Y-84213000D01*
X102587000Y-84213000D01*
X102587000Y-84233000D01*
X102607000Y-84233000D01*
X102607000Y-84487000D01*
X102587000Y-84487000D01*
X102587000Y-84507000D01*
X102333000Y-84507000D01*
X102333000Y-84487000D01*
X101139845Y-84487000D01*
X101018524Y-84716890D01*
X101063175Y-84864099D01*
X101188359Y-85126920D01*
X101362412Y-85360269D01*
X101578645Y-85555178D01*
X101695534Y-85624805D01*
X101513368Y-85746525D01*
X101306525Y-85953368D01*
X101144010Y-86196589D01*
X101032068Y-86466842D01*
X100975000Y-86753740D01*
X100975000Y-87046260D01*
X101032068Y-87333158D01*
X101144010Y-87603411D01*
X101306525Y-87846632D01*
X101513368Y-88053475D01*
X101695534Y-88175195D01*
X101578645Y-88244822D01*
X101362412Y-88439731D01*
X101188359Y-88673080D01*
X101063175Y-88935901D01*
X101018524Y-89083110D01*
X101139845Y-89313000D01*
X102333000Y-89313000D01*
X102333000Y-89293000D01*
X102587000Y-89293000D01*
X102587000Y-89313000D01*
X102607000Y-89313000D01*
X102607000Y-89567000D01*
X102587000Y-89567000D01*
X102587000Y-89587000D01*
X102333000Y-89587000D01*
X102333000Y-89567000D01*
X101139845Y-89567000D01*
X101018524Y-89796890D01*
X101063175Y-89944099D01*
X101188359Y-90206920D01*
X101362412Y-90440269D01*
X101578645Y-90635178D01*
X101695534Y-90704805D01*
X101513368Y-90826525D01*
X101306525Y-91033368D01*
X101144010Y-91276589D01*
X101032068Y-91546842D01*
X100975000Y-91833740D01*
X100975000Y-92126260D01*
X101032068Y-92413158D01*
X101144010Y-92683411D01*
X101306525Y-92926632D01*
X101513368Y-93133475D01*
X101687760Y-93250000D01*
X101513368Y-93366525D01*
X101306525Y-93573368D01*
X101144010Y-93816589D01*
X101032068Y-94086842D01*
X100975000Y-94373740D01*
X100975000Y-94666260D01*
X101032068Y-94953158D01*
X101144010Y-95223411D01*
X101306525Y-95466632D01*
X101513368Y-95673475D01*
X101687760Y-95790000D01*
X101513368Y-95906525D01*
X101306525Y-96113368D01*
X101144010Y-96356589D01*
X101032068Y-96626842D01*
X100975000Y-96913740D01*
X100975000Y-97206260D01*
X101032068Y-97493158D01*
X101144010Y-97763411D01*
X101306525Y-98006632D01*
X101513368Y-98213475D01*
X101687760Y-98330000D01*
X101513368Y-98446525D01*
X101306525Y-98653368D01*
X101144010Y-98896589D01*
X101032068Y-99166842D01*
X100975000Y-99453740D01*
X100975000Y-99746260D01*
X101032068Y-100033158D01*
X101144010Y-100303411D01*
X101306525Y-100546632D01*
X101513368Y-100753475D01*
X101695534Y-100875195D01*
X101578645Y-100944822D01*
X101362412Y-101139731D01*
X101188359Y-101373080D01*
X101063175Y-101635901D01*
X101018524Y-101783110D01*
X101139845Y-102013000D01*
X102333000Y-102013000D01*
X102333000Y-101993000D01*
X102587000Y-101993000D01*
X102587000Y-102013000D01*
X102607000Y-102013000D01*
X102607000Y-102267000D01*
X102587000Y-102267000D01*
X102587000Y-102287000D01*
X102333000Y-102287000D01*
X102333000Y-102267000D01*
X101139845Y-102267000D01*
X101018524Y-102496890D01*
X101063175Y-102644099D01*
X101188359Y-102906920D01*
X101362412Y-103140269D01*
X101578645Y-103335178D01*
X101695534Y-103404805D01*
X101513368Y-103526525D01*
X101306525Y-103733368D01*
X101144010Y-103976589D01*
X101032068Y-104246842D01*
X100975000Y-104533740D01*
X100975000Y-104826260D01*
X101032068Y-105113158D01*
X101144010Y-105383411D01*
X101306525Y-105626632D01*
X101513368Y-105833475D01*
X101687760Y-105950000D01*
X101513368Y-106066525D01*
X101306525Y-106273368D01*
X101144010Y-106516589D01*
X101032068Y-106786842D01*
X100975000Y-107073740D01*
X100975000Y-107366260D01*
X101032068Y-107653158D01*
X101144010Y-107923411D01*
X101306525Y-108166632D01*
X101513368Y-108373475D01*
X101695534Y-108495195D01*
X101578645Y-108564822D01*
X101362412Y-108759731D01*
X101188359Y-108993080D01*
X101063175Y-109255901D01*
X101018524Y-109403110D01*
X101139845Y-109633000D01*
X102333000Y-109633000D01*
X102333000Y-109613000D01*
X102587000Y-109613000D01*
X102587000Y-109633000D01*
X102607000Y-109633000D01*
X102607000Y-109887000D01*
X102587000Y-109887000D01*
X102587000Y-109907000D01*
X102333000Y-109907000D01*
X102333000Y-109887000D01*
X101139845Y-109887000D01*
X101018524Y-110116890D01*
X101063175Y-110264099D01*
X101188359Y-110526920D01*
X101362412Y-110760269D01*
X101578645Y-110955178D01*
X101695534Y-111024805D01*
X101513368Y-111146525D01*
X101306525Y-111353368D01*
X101144010Y-111596589D01*
X101032068Y-111866842D01*
X100975000Y-112153740D01*
X100975000Y-112446260D01*
X101032068Y-112733158D01*
X101144010Y-113003411D01*
X101306525Y-113246632D01*
X101513368Y-113453475D01*
X101687760Y-113570000D01*
X101513368Y-113686525D01*
X101306525Y-113893368D01*
X101144010Y-114136589D01*
X101032068Y-114406842D01*
X100975000Y-114693740D01*
X100975000Y-114986260D01*
X101032068Y-115273158D01*
X101144010Y-115543411D01*
X101306525Y-115786632D01*
X101513368Y-115993475D01*
X101687760Y-116110000D01*
X101513368Y-116226525D01*
X101306525Y-116433368D01*
X101144010Y-116676589D01*
X101032068Y-116946842D01*
X100975000Y-117233740D01*
X100975000Y-117526260D01*
X101032068Y-117813158D01*
X101144010Y-118083411D01*
X101306525Y-118326632D01*
X101513368Y-118533475D01*
X101695534Y-118655195D01*
X101578645Y-118724822D01*
X101362412Y-118919731D01*
X101188359Y-119153080D01*
X101063175Y-119415901D01*
X101018524Y-119563110D01*
X101139845Y-119793000D01*
X102333000Y-119793000D01*
X102333000Y-119773000D01*
X102587000Y-119773000D01*
X102587000Y-119793000D01*
X102607000Y-119793000D01*
X102607000Y-120047000D01*
X102587000Y-120047000D01*
X102587000Y-120067000D01*
X102333000Y-120067000D01*
X102333000Y-120047000D01*
X101139845Y-120047000D01*
X101018524Y-120276890D01*
X101063175Y-120424099D01*
X101188359Y-120686920D01*
X101362412Y-120920269D01*
X101578645Y-121115178D01*
X101695534Y-121184805D01*
X101513368Y-121306525D01*
X101306525Y-121513368D01*
X101144010Y-121756589D01*
X101032068Y-122026842D01*
X100975000Y-122313740D01*
X100975000Y-122606260D01*
X101032068Y-122893158D01*
X101144010Y-123163411D01*
X101306525Y-123406632D01*
X101513368Y-123613475D01*
X101687760Y-123730000D01*
X101513368Y-123846525D01*
X101306525Y-124053368D01*
X101144010Y-124296589D01*
X101032068Y-124566842D01*
X100975000Y-124853740D01*
X100975000Y-125146260D01*
X101032068Y-125433158D01*
X101144010Y-125703411D01*
X101306525Y-125946632D01*
X101513368Y-126153475D01*
X101756589Y-126315990D01*
X102026842Y-126427932D01*
X102313740Y-126485000D01*
X102606260Y-126485000D01*
X102893158Y-126427932D01*
X103163411Y-126315990D01*
X103406632Y-126153475D01*
X103538487Y-126021620D01*
X103560498Y-126094180D01*
X103619463Y-126204494D01*
X103698815Y-126301185D01*
X103795506Y-126380537D01*
X103905820Y-126439502D01*
X104025518Y-126475812D01*
X104150000Y-126488072D01*
X105850000Y-126488072D01*
X105974482Y-126475812D01*
X106094180Y-126439502D01*
X106204494Y-126380537D01*
X106301185Y-126301185D01*
X106380537Y-126204494D01*
X106439502Y-126094180D01*
X106475812Y-125974482D01*
X106488072Y-125850000D01*
X106488072Y-124250000D01*
X113861928Y-124250000D01*
X113865000Y-125714250D01*
X114023750Y-125873000D01*
X115873000Y-125873000D01*
X115873000Y-123773750D01*
X116127000Y-123773750D01*
X116127000Y-125873000D01*
X117976250Y-125873000D01*
X118135000Y-125714250D01*
X118138072Y-124250000D01*
X118125812Y-124125518D01*
X118089502Y-124005820D01*
X118030537Y-123895506D01*
X117951185Y-123798815D01*
X117854494Y-123719463D01*
X117744180Y-123660498D01*
X117624482Y-123624188D01*
X117500000Y-123611928D01*
X116285750Y-123615000D01*
X116127000Y-123773750D01*
X115873000Y-123773750D01*
X115714250Y-123615000D01*
X114500000Y-123611928D01*
X114375518Y-123624188D01*
X114255820Y-123660498D01*
X114145506Y-123719463D01*
X114048815Y-123798815D01*
X113969463Y-123895506D01*
X113910498Y-124005820D01*
X113874188Y-124125518D01*
X113861928Y-124250000D01*
X106488072Y-124250000D01*
X106488072Y-124150000D01*
X106475812Y-124025518D01*
X106439502Y-123905820D01*
X106380537Y-123795506D01*
X106301185Y-123698815D01*
X106204494Y-123619463D01*
X106094180Y-123560498D01*
X106021620Y-123538487D01*
X106153475Y-123406632D01*
X106315990Y-123163411D01*
X106427932Y-122893158D01*
X106485000Y-122606260D01*
X106485000Y-122313740D01*
X106427932Y-122026842D01*
X106315990Y-121756589D01*
X106153475Y-121513368D01*
X105946632Y-121306525D01*
X105772240Y-121190000D01*
X105946632Y-121073475D01*
X106153475Y-120866632D01*
X106315990Y-120623411D01*
X106427932Y-120353158D01*
X106485000Y-120066260D01*
X106485000Y-119773740D01*
X106470333Y-119700000D01*
X107761928Y-119700000D01*
X107774188Y-119824482D01*
X107810498Y-119944180D01*
X107869463Y-120054494D01*
X107948815Y-120151185D01*
X108045506Y-120230537D01*
X108155820Y-120289502D01*
X108275518Y-120325812D01*
X108400000Y-120338072D01*
X108689250Y-120335000D01*
X108848000Y-120176250D01*
X108848000Y-119127000D01*
X107923750Y-119127000D01*
X107765000Y-119285750D01*
X107761928Y-119700000D01*
X106470333Y-119700000D01*
X106427932Y-119486842D01*
X106315990Y-119216589D01*
X106153475Y-118973368D01*
X105946632Y-118766525D01*
X105772240Y-118650000D01*
X105946632Y-118533475D01*
X106153475Y-118326632D01*
X106171269Y-118300000D01*
X107761928Y-118300000D01*
X107765000Y-118714250D01*
X107923750Y-118873000D01*
X108848000Y-118873000D01*
X108848000Y-117823750D01*
X108689250Y-117665000D01*
X108400000Y-117661928D01*
X108275518Y-117674188D01*
X108155820Y-117710498D01*
X108045506Y-117769463D01*
X107948815Y-117848815D01*
X107869463Y-117945506D01*
X107810498Y-118055820D01*
X107774188Y-118175518D01*
X107761928Y-118300000D01*
X106171269Y-118300000D01*
X106315990Y-118083411D01*
X106427932Y-117813158D01*
X106485000Y-117526260D01*
X106485000Y-117233740D01*
X106427932Y-116946842D01*
X106325688Y-116700000D01*
X107761928Y-116700000D01*
X107774188Y-116824482D01*
X107810498Y-116944180D01*
X107869463Y-117054494D01*
X107948815Y-117151185D01*
X108045506Y-117230537D01*
X108155820Y-117289502D01*
X108275518Y-117325812D01*
X108400000Y-117338072D01*
X108689250Y-117335000D01*
X108848000Y-117176250D01*
X108848000Y-116127000D01*
X107923750Y-116127000D01*
X107765000Y-116285750D01*
X107761928Y-116700000D01*
X106325688Y-116700000D01*
X106315990Y-116676589D01*
X106153475Y-116433368D01*
X105946632Y-116226525D01*
X105764466Y-116104805D01*
X105881355Y-116035178D01*
X106097588Y-115840269D01*
X106271641Y-115606920D01*
X106396825Y-115344099D01*
X106410200Y-115300000D01*
X107761928Y-115300000D01*
X107765000Y-115714250D01*
X107923750Y-115873000D01*
X108848000Y-115873000D01*
X108848000Y-114823750D01*
X108689250Y-114665000D01*
X108400000Y-114661928D01*
X108275518Y-114674188D01*
X108155820Y-114710498D01*
X108045506Y-114769463D01*
X107948815Y-114848815D01*
X107869463Y-114945506D01*
X107810498Y-115055820D01*
X107774188Y-115175518D01*
X107761928Y-115300000D01*
X106410200Y-115300000D01*
X106441476Y-115196890D01*
X106320155Y-114967000D01*
X105127000Y-114967000D01*
X105127000Y-114987000D01*
X104873000Y-114987000D01*
X104873000Y-114967000D01*
X104853000Y-114967000D01*
X104853000Y-114713000D01*
X104873000Y-114713000D01*
X104873000Y-114693000D01*
X105127000Y-114693000D01*
X105127000Y-114713000D01*
X106320155Y-114713000D01*
X106441476Y-114483110D01*
X106396825Y-114335901D01*
X106271641Y-114073080D01*
X106097588Y-113839731D01*
X105942570Y-113700000D01*
X107761928Y-113700000D01*
X107774188Y-113824482D01*
X107810498Y-113944180D01*
X107869463Y-114054494D01*
X107948815Y-114151185D01*
X108045506Y-114230537D01*
X108155820Y-114289502D01*
X108275518Y-114325812D01*
X108400000Y-114338072D01*
X108689250Y-114335000D01*
X108848000Y-114176250D01*
X108848000Y-113127000D01*
X107923750Y-113127000D01*
X107765000Y-113285750D01*
X107761928Y-113700000D01*
X105942570Y-113700000D01*
X105881355Y-113644822D01*
X105764466Y-113575195D01*
X105946632Y-113453475D01*
X106153475Y-113246632D01*
X106315990Y-113003411D01*
X106427932Y-112733158D01*
X106485000Y-112446260D01*
X106485000Y-112300000D01*
X107761928Y-112300000D01*
X107765000Y-112714250D01*
X107923750Y-112873000D01*
X108848000Y-112873000D01*
X108848000Y-111823750D01*
X108689250Y-111665000D01*
X108400000Y-111661928D01*
X108275518Y-111674188D01*
X108155820Y-111710498D01*
X108045506Y-111769463D01*
X107948815Y-111848815D01*
X107869463Y-111945506D01*
X107810498Y-112055820D01*
X107774188Y-112175518D01*
X107761928Y-112300000D01*
X106485000Y-112300000D01*
X106485000Y-112153740D01*
X106427932Y-111866842D01*
X106315990Y-111596589D01*
X106153475Y-111353368D01*
X105946632Y-111146525D01*
X105772240Y-111030000D01*
X105946632Y-110913475D01*
X106153475Y-110706632D01*
X106315990Y-110463411D01*
X106427932Y-110193158D01*
X106485000Y-109906260D01*
X106485000Y-109613740D01*
X106427932Y-109326842D01*
X106315990Y-109056589D01*
X106239894Y-108942702D01*
X108446903Y-108942702D01*
X108518486Y-109186671D01*
X108773996Y-109307571D01*
X109048184Y-109376300D01*
X109330512Y-109390217D01*
X109610130Y-109348787D01*
X109876292Y-109253603D01*
X110001514Y-109186671D01*
X110073097Y-108942702D01*
X109260000Y-108129605D01*
X108446903Y-108942702D01*
X106239894Y-108942702D01*
X106153475Y-108813368D01*
X105946632Y-108606525D01*
X105772240Y-108490000D01*
X105946632Y-108373475D01*
X106153475Y-108166632D01*
X106251109Y-108020512D01*
X107819783Y-108020512D01*
X107861213Y-108300130D01*
X107956397Y-108566292D01*
X108023329Y-108691514D01*
X108267298Y-108763097D01*
X109080395Y-107950000D01*
X108267298Y-107136903D01*
X108023329Y-107208486D01*
X107902429Y-107463996D01*
X107833700Y-107738184D01*
X107819783Y-108020512D01*
X106251109Y-108020512D01*
X106315990Y-107923411D01*
X106427932Y-107653158D01*
X106485000Y-107366260D01*
X106485000Y-107073740D01*
X106461839Y-106957298D01*
X108446903Y-106957298D01*
X109260000Y-107770395D01*
X110073097Y-106957298D01*
X110001514Y-106713329D01*
X109746004Y-106592429D01*
X109471816Y-106523700D01*
X109189488Y-106509783D01*
X108909870Y-106551213D01*
X108643708Y-106646397D01*
X108518486Y-106713329D01*
X108446903Y-106957298D01*
X106461839Y-106957298D01*
X106427932Y-106786842D01*
X106315990Y-106516589D01*
X106214701Y-106364999D01*
X112564134Y-106364999D01*
X112740235Y-106541101D01*
X112684482Y-106524188D01*
X112560000Y-106511928D01*
X110960000Y-106511928D01*
X110835518Y-106524188D01*
X110715820Y-106560498D01*
X110605506Y-106619463D01*
X110508815Y-106698815D01*
X110429463Y-106795506D01*
X110370498Y-106905820D01*
X110334188Y-107025518D01*
X110321928Y-107150000D01*
X110321928Y-107157215D01*
X110252702Y-107136903D01*
X109439605Y-107950000D01*
X110252702Y-108763097D01*
X110321928Y-108742785D01*
X110321928Y-108750000D01*
X110334188Y-108874482D01*
X110370498Y-108994180D01*
X110429463Y-109104494D01*
X110508815Y-109201185D01*
X110605506Y-109280537D01*
X110715820Y-109339502D01*
X110835518Y-109375812D01*
X110960000Y-109388072D01*
X112560000Y-109388072D01*
X112684482Y-109375812D01*
X112804180Y-109339502D01*
X112914494Y-109280537D01*
X113011185Y-109201185D01*
X113090537Y-109104494D01*
X113149502Y-108994180D01*
X113185812Y-108874482D01*
X113198072Y-108750000D01*
X113198072Y-107150000D01*
X113185812Y-107025518D01*
X113168900Y-106969765D01*
X115190000Y-108990867D01*
X115190001Y-111825228D01*
X115072038Y-111922038D01*
X115000000Y-112009816D01*
X114927962Y-111922038D01*
X114793387Y-111811595D01*
X114639851Y-111729528D01*
X114473255Y-111678992D01*
X114300001Y-111661928D01*
X113649999Y-111661928D01*
X113476745Y-111678992D01*
X113310149Y-111729528D01*
X113156613Y-111811595D01*
X113022038Y-111922038D01*
X112911595Y-112056613D01*
X112829528Y-112210149D01*
X112820473Y-112240000D01*
X112179527Y-112240000D01*
X112170472Y-112210149D01*
X112088405Y-112056613D01*
X111977962Y-111922038D01*
X111843387Y-111811595D01*
X111689851Y-111729528D01*
X111523255Y-111678992D01*
X111350001Y-111661928D01*
X110699999Y-111661928D01*
X110526745Y-111678992D01*
X110360149Y-111729528D01*
X110206613Y-111811595D01*
X110072038Y-111922038D01*
X110066658Y-111928594D01*
X110001185Y-111848815D01*
X109904494Y-111769463D01*
X109794180Y-111710498D01*
X109674482Y-111674188D01*
X109550000Y-111661928D01*
X109260750Y-111665000D01*
X109102000Y-111823750D01*
X109102000Y-112873000D01*
X109122000Y-112873000D01*
X109122000Y-113127000D01*
X109102000Y-113127000D01*
X109102000Y-114176250D01*
X109260750Y-114335000D01*
X109550000Y-114338072D01*
X109674482Y-114325812D01*
X109794180Y-114289502D01*
X109904494Y-114230537D01*
X110001185Y-114151185D01*
X110066658Y-114071406D01*
X110072038Y-114077962D01*
X110206613Y-114188405D01*
X110360149Y-114270472D01*
X110526745Y-114321008D01*
X110699999Y-114338072D01*
X111350001Y-114338072D01*
X111523255Y-114321008D01*
X111689851Y-114270472D01*
X111843387Y-114188405D01*
X111977962Y-114077962D01*
X112088405Y-113943387D01*
X112170472Y-113789851D01*
X112179527Y-113760000D01*
X112820473Y-113760000D01*
X112829528Y-113789851D01*
X112911595Y-113943387D01*
X113022038Y-114077962D01*
X113156613Y-114188405D01*
X113310149Y-114270472D01*
X113476745Y-114321008D01*
X113649999Y-114338072D01*
X114300001Y-114338072D01*
X114473255Y-114321008D01*
X114639851Y-114270472D01*
X114793387Y-114188405D01*
X114927962Y-114077962D01*
X115000000Y-113990184D01*
X115072038Y-114077962D01*
X115206613Y-114188405D01*
X115360149Y-114270472D01*
X115526745Y-114321008D01*
X115699999Y-114338072D01*
X116350001Y-114338072D01*
X116523255Y-114321008D01*
X116689851Y-114270472D01*
X116843387Y-114188405D01*
X116977962Y-114077962D01*
X117088405Y-113943387D01*
X117146339Y-113835000D01*
X117466715Y-113835000D01*
X117589744Y-113917205D01*
X117778102Y-113995226D01*
X117978061Y-114035000D01*
X118181939Y-114035000D01*
X118381898Y-113995226D01*
X118570256Y-113917205D01*
X118693285Y-113835000D01*
X119515000Y-113835000D01*
X119515000Y-114066260D01*
X119572068Y-114353158D01*
X119684010Y-114623411D01*
X119846525Y-114866632D01*
X120053368Y-115073475D01*
X120190345Y-115165000D01*
X118613285Y-115165000D01*
X118490256Y-115082795D01*
X118301898Y-115004774D01*
X118101939Y-114965000D01*
X117898061Y-114965000D01*
X117698102Y-115004774D01*
X117509744Y-115082795D01*
X117386715Y-115165000D01*
X117146339Y-115165000D01*
X117088405Y-115056613D01*
X116977962Y-114922038D01*
X116843387Y-114811595D01*
X116689851Y-114729528D01*
X116523255Y-114678992D01*
X116350001Y-114661928D01*
X115699999Y-114661928D01*
X115526745Y-114678992D01*
X115360149Y-114729528D01*
X115206613Y-114811595D01*
X115072038Y-114922038D01*
X115000000Y-115009816D01*
X114927962Y-114922038D01*
X114793387Y-114811595D01*
X114639851Y-114729528D01*
X114473255Y-114678992D01*
X114300001Y-114661928D01*
X113649999Y-114661928D01*
X113476745Y-114678992D01*
X113310149Y-114729528D01*
X113156613Y-114811595D01*
X113022038Y-114922038D01*
X112911595Y-115056613D01*
X112829528Y-115210149D01*
X112820473Y-115240000D01*
X112179527Y-115240000D01*
X112170472Y-115210149D01*
X112088405Y-115056613D01*
X111977962Y-114922038D01*
X111843387Y-114811595D01*
X111689851Y-114729528D01*
X111523255Y-114678992D01*
X111350001Y-114661928D01*
X110699999Y-114661928D01*
X110526745Y-114678992D01*
X110360149Y-114729528D01*
X110206613Y-114811595D01*
X110072038Y-114922038D01*
X110066658Y-114928594D01*
X110001185Y-114848815D01*
X109904494Y-114769463D01*
X109794180Y-114710498D01*
X109674482Y-114674188D01*
X109550000Y-114661928D01*
X109260750Y-114665000D01*
X109102000Y-114823750D01*
X109102000Y-115873000D01*
X109122000Y-115873000D01*
X109122000Y-116127000D01*
X109102000Y-116127000D01*
X109102000Y-117176250D01*
X109260750Y-117335000D01*
X109550000Y-117338072D01*
X109674482Y-117325812D01*
X109794180Y-117289502D01*
X109904494Y-117230537D01*
X110001185Y-117151185D01*
X110066658Y-117071406D01*
X110072038Y-117077962D01*
X110206613Y-117188405D01*
X110360149Y-117270472D01*
X110526745Y-117321008D01*
X110699999Y-117338072D01*
X111350001Y-117338072D01*
X111523255Y-117321008D01*
X111689851Y-117270472D01*
X111843387Y-117188405D01*
X111977962Y-117077962D01*
X112088405Y-116943387D01*
X112170472Y-116789851D01*
X112179527Y-116760000D01*
X112820473Y-116760000D01*
X112829528Y-116789851D01*
X112911595Y-116943387D01*
X113022038Y-117077962D01*
X113156613Y-117188405D01*
X113310149Y-117270472D01*
X113476745Y-117321008D01*
X113649999Y-117338072D01*
X114300001Y-117338072D01*
X114473255Y-117321008D01*
X114639851Y-117270472D01*
X114793387Y-117188405D01*
X114927962Y-117077962D01*
X115000000Y-116990184D01*
X115072038Y-117077962D01*
X115206613Y-117188405D01*
X115360149Y-117270472D01*
X115526745Y-117321008D01*
X115699999Y-117338072D01*
X116350001Y-117338072D01*
X116523255Y-117321008D01*
X116689851Y-117270472D01*
X116843387Y-117188405D01*
X116977962Y-117077962D01*
X117088405Y-116943387D01*
X117146339Y-116835000D01*
X117386715Y-116835000D01*
X117509744Y-116917205D01*
X117698102Y-116995226D01*
X117898061Y-117035000D01*
X118101939Y-117035000D01*
X118301898Y-116995226D01*
X118490256Y-116917205D01*
X118613285Y-116835000D01*
X119560500Y-116835000D01*
X119572068Y-116893158D01*
X119684010Y-117163411D01*
X119846525Y-117406632D01*
X119978380Y-117538487D01*
X119905820Y-117560498D01*
X119795506Y-117619463D01*
X119698815Y-117698815D01*
X119619463Y-117795506D01*
X119560498Y-117905820D01*
X119524188Y-118025518D01*
X119511928Y-118150000D01*
X119511928Y-118165000D01*
X117146339Y-118165000D01*
X117088405Y-118056613D01*
X116977962Y-117922038D01*
X116843387Y-117811595D01*
X116689851Y-117729528D01*
X116523255Y-117678992D01*
X116350001Y-117661928D01*
X115699999Y-117661928D01*
X115526745Y-117678992D01*
X115360149Y-117729528D01*
X115206613Y-117811595D01*
X115072038Y-117922038D01*
X115000000Y-118009816D01*
X114927962Y-117922038D01*
X114793387Y-117811595D01*
X114639851Y-117729528D01*
X114473255Y-117678992D01*
X114300001Y-117661928D01*
X113649999Y-117661928D01*
X113476745Y-117678992D01*
X113310149Y-117729528D01*
X113156613Y-117811595D01*
X113022038Y-117922038D01*
X112911595Y-118056613D01*
X112829528Y-118210149D01*
X112820473Y-118240000D01*
X112179527Y-118240000D01*
X112170472Y-118210149D01*
X112088405Y-118056613D01*
X111977962Y-117922038D01*
X111843387Y-117811595D01*
X111689851Y-117729528D01*
X111523255Y-117678992D01*
X111350001Y-117661928D01*
X110699999Y-117661928D01*
X110526745Y-117678992D01*
X110360149Y-117729528D01*
X110206613Y-117811595D01*
X110072038Y-117922038D01*
X110066658Y-117928594D01*
X110001185Y-117848815D01*
X109904494Y-117769463D01*
X109794180Y-117710498D01*
X109674482Y-117674188D01*
X109550000Y-117661928D01*
X109260750Y-117665000D01*
X109102000Y-117823750D01*
X109102000Y-118873000D01*
X109122000Y-118873000D01*
X109122000Y-119127000D01*
X109102000Y-119127000D01*
X109102000Y-120176250D01*
X109260750Y-120335000D01*
X109550000Y-120338072D01*
X109674482Y-120325812D01*
X109794180Y-120289502D01*
X109904494Y-120230537D01*
X110001185Y-120151185D01*
X110066658Y-120071406D01*
X110072038Y-120077962D01*
X110206613Y-120188405D01*
X110360149Y-120270472D01*
X110526745Y-120321008D01*
X110699999Y-120338072D01*
X111350001Y-120338072D01*
X111523255Y-120321008D01*
X111689851Y-120270472D01*
X111843387Y-120188405D01*
X111977962Y-120077962D01*
X112088405Y-119943387D01*
X112170472Y-119789851D01*
X112179527Y-119760000D01*
X112820473Y-119760000D01*
X112829528Y-119789851D01*
X112911595Y-119943387D01*
X113022038Y-120077962D01*
X113156613Y-120188405D01*
X113310149Y-120270472D01*
X113476745Y-120321008D01*
X113649999Y-120338072D01*
X114300001Y-120338072D01*
X114473255Y-120321008D01*
X114639851Y-120270472D01*
X114793387Y-120188405D01*
X114927962Y-120077962D01*
X115000000Y-119990184D01*
X115072038Y-120077962D01*
X115206613Y-120188405D01*
X115360149Y-120270472D01*
X115526745Y-120321008D01*
X115699999Y-120338072D01*
X116350001Y-120338072D01*
X116523255Y-120321008D01*
X116689851Y-120270472D01*
X116843387Y-120188405D01*
X116977962Y-120077962D01*
X117088405Y-119943387D01*
X117146339Y-119835000D01*
X119511928Y-119835000D01*
X119511928Y-119850000D01*
X119524188Y-119974482D01*
X119560498Y-120094180D01*
X119619463Y-120204494D01*
X119698815Y-120301185D01*
X119795506Y-120380537D01*
X119905820Y-120439502D01*
X120025518Y-120475812D01*
X120150000Y-120488072D01*
X121850000Y-120488072D01*
X121974482Y-120475812D01*
X122094180Y-120439502D01*
X122204494Y-120380537D01*
X122301185Y-120301185D01*
X122380537Y-120204494D01*
X122439502Y-120094180D01*
X122475812Y-119974482D01*
X122488072Y-119850000D01*
X122488072Y-119835000D01*
X126365000Y-119835000D01*
X126365000Y-120158016D01*
X126504691Y-120860290D01*
X126778705Y-121521818D01*
X126906322Y-121712810D01*
X124386374Y-124232759D01*
X124375812Y-124125518D01*
X124339502Y-124005820D01*
X124280537Y-123895506D01*
X124201185Y-123798815D01*
X124104494Y-123719463D01*
X123994180Y-123660498D01*
X123874482Y-123624188D01*
X123750000Y-123611928D01*
X120250000Y-123611928D01*
X120125518Y-123624188D01*
X120005820Y-123660498D01*
X119895506Y-123719463D01*
X119798815Y-123798815D01*
X119719463Y-123895506D01*
X119660498Y-124005820D01*
X119624188Y-124125518D01*
X119611928Y-124250000D01*
X119611928Y-127750000D01*
X119624188Y-127874482D01*
X119660498Y-127994180D01*
X119719463Y-128104494D01*
X119798815Y-128201185D01*
X119895506Y-128280537D01*
X119972131Y-128321494D01*
X119875000Y-128311928D01*
X118125000Y-128311928D01*
X117829814Y-128341001D01*
X117545972Y-128427104D01*
X117284382Y-128566927D01*
X117055097Y-128755097D01*
X116866927Y-128984382D01*
X116727104Y-129245972D01*
X116641001Y-129529814D01*
X116611928Y-129825000D01*
X116611928Y-131575000D01*
X116641001Y-131870186D01*
X116727104Y-132154028D01*
X116866927Y-132415618D01*
X117055097Y-132644903D01*
X117284382Y-132833073D01*
X117545972Y-132972896D01*
X117829814Y-133058999D01*
X118125000Y-133088072D01*
X119875000Y-133088072D01*
X120170186Y-133058999D01*
X120454028Y-132972896D01*
X120715618Y-132833073D01*
X120944903Y-132644903D01*
X121133073Y-132415618D01*
X121272896Y-132154028D01*
X121358999Y-131870186D01*
X121388072Y-131575000D01*
X121388072Y-130000000D01*
X126361928Y-130000000D01*
X126374188Y-130124482D01*
X126410498Y-130244180D01*
X126469463Y-130354494D01*
X126548815Y-130451185D01*
X126645506Y-130530537D01*
X126755820Y-130589502D01*
X126875518Y-130625812D01*
X127000000Y-130638072D01*
X129714250Y-130635000D01*
X129873000Y-130476250D01*
X129873000Y-127127000D01*
X130127000Y-127127000D01*
X130127000Y-130476250D01*
X130285750Y-130635000D01*
X133000000Y-130638072D01*
X133124482Y-130625812D01*
X133244180Y-130589502D01*
X133354494Y-130530537D01*
X133451185Y-130451185D01*
X133530537Y-130354494D01*
X133589502Y-130244180D01*
X133625812Y-130124482D01*
X133638072Y-130000000D01*
X133635000Y-127285750D01*
X133476250Y-127127000D01*
X130127000Y-127127000D01*
X129873000Y-127127000D01*
X126523750Y-127127000D01*
X126365000Y-127285750D01*
X126361928Y-130000000D01*
X121388072Y-130000000D01*
X121388072Y-129825000D01*
X121358999Y-129529814D01*
X121272896Y-129245972D01*
X121133073Y-128984382D01*
X120944903Y-128755097D01*
X120715618Y-128566927D01*
X120454028Y-128427104D01*
X120325357Y-128388072D01*
X123750000Y-128388072D01*
X123874482Y-128375812D01*
X123994180Y-128339502D01*
X124104494Y-128280537D01*
X124201185Y-128201185D01*
X124280537Y-128104494D01*
X124339502Y-127994180D01*
X124375812Y-127874482D01*
X124388072Y-127750000D01*
X124388072Y-126597574D01*
X124393291Y-126593291D01*
X124419446Y-126561421D01*
X126362628Y-124618240D01*
X126365000Y-126714250D01*
X126523750Y-126873000D01*
X129873000Y-126873000D01*
X129873000Y-126853000D01*
X130127000Y-126853000D01*
X130127000Y-126873000D01*
X133476250Y-126873000D01*
X133635000Y-126714250D01*
X133638072Y-124000000D01*
X133625812Y-123875518D01*
X133589502Y-123755820D01*
X133530537Y-123645506D01*
X133451185Y-123548815D01*
X133354494Y-123469463D01*
X133244180Y-123410498D01*
X133124482Y-123374188D01*
X133000000Y-123361928D01*
X130712357Y-123364517D01*
X131060290Y-123295309D01*
X131721818Y-123021295D01*
X132317177Y-122623489D01*
X132823489Y-122117177D01*
X133221295Y-121521818D01*
X133495309Y-120860290D01*
X133635000Y-120158016D01*
X133635000Y-119441984D01*
X133495309Y-118739710D01*
X133221295Y-118078182D01*
X132823489Y-117482823D01*
X132317177Y-116976511D01*
X131721818Y-116578705D01*
X131060290Y-116304691D01*
X130835000Y-116259878D01*
X130835000Y-115335000D01*
X130911939Y-115335000D01*
X131111898Y-115295226D01*
X131300256Y-115217205D01*
X131469774Y-115103937D01*
X131613937Y-114959774D01*
X131727205Y-114790256D01*
X131805226Y-114601898D01*
X131845000Y-114401939D01*
X131845000Y-114198061D01*
X131805226Y-113998102D01*
X131727205Y-113809744D01*
X131630490Y-113665000D01*
X131727205Y-113520256D01*
X131805226Y-113331898D01*
X131845000Y-113131939D01*
X131845000Y-112928061D01*
X131805226Y-112728102D01*
X131727205Y-112539744D01*
X131613937Y-112370226D01*
X131469774Y-112226063D01*
X131300256Y-112112795D01*
X131111898Y-112034774D01*
X131041513Y-112020774D01*
X131087175Y-111975112D01*
X131208895Y-111792946D01*
X131278522Y-111909835D01*
X131473431Y-112126068D01*
X131706780Y-112300121D01*
X131969601Y-112425305D01*
X132116810Y-112469956D01*
X132346700Y-112348635D01*
X132346700Y-111155480D01*
X132600700Y-111155480D01*
X132600700Y-112348635D01*
X132830590Y-112469956D01*
X132977799Y-112425305D01*
X133240620Y-112300121D01*
X133473969Y-112126068D01*
X133668878Y-111909835D01*
X133817857Y-111659732D01*
X133915181Y-111385371D01*
X133794514Y-111155480D01*
X132600700Y-111155480D01*
X132346700Y-111155480D01*
X132326700Y-111155480D01*
X132326700Y-110901480D01*
X132346700Y-110901480D01*
X132346700Y-109708325D01*
X132340665Y-109705140D01*
X132346700Y-109701955D01*
X132346700Y-108508800D01*
X132600700Y-108508800D01*
X132600700Y-109701955D01*
X132606735Y-109705140D01*
X132600700Y-109708325D01*
X132600700Y-110901480D01*
X133794514Y-110901480D01*
X133915181Y-110671589D01*
X133817857Y-110397228D01*
X133668878Y-110147125D01*
X133473969Y-109930892D01*
X133240620Y-109756839D01*
X133132079Y-109705140D01*
X133240620Y-109653441D01*
X133473969Y-109479388D01*
X133668878Y-109263155D01*
X133817857Y-109013052D01*
X133915181Y-108738691D01*
X133794514Y-108508800D01*
X132600700Y-108508800D01*
X132346700Y-108508800D01*
X132326700Y-108508800D01*
X132326700Y-108254800D01*
X132346700Y-108254800D01*
X132346700Y-107061645D01*
X132322282Y-107048759D01*
X132334000Y-107042575D01*
X132334000Y-105849420D01*
X132588000Y-105849420D01*
X132588000Y-107042575D01*
X132612418Y-107055461D01*
X132600700Y-107061645D01*
X132600700Y-108254800D01*
X133794514Y-108254800D01*
X133915181Y-108024909D01*
X133817857Y-107750548D01*
X133668878Y-107500445D01*
X133473969Y-107284212D01*
X133240620Y-107110159D01*
X133112397Y-107049085D01*
X133227920Y-106994061D01*
X133461269Y-106820008D01*
X133656178Y-106603775D01*
X133805157Y-106353672D01*
X133902481Y-106079311D01*
X133781814Y-105849420D01*
X132588000Y-105849420D01*
X132334000Y-105849420D01*
X132314000Y-105849420D01*
X132314000Y-105595420D01*
X132334000Y-105595420D01*
X132334000Y-104402265D01*
X132327965Y-104399080D01*
X132334000Y-104395895D01*
X132334000Y-103202740D01*
X132588000Y-103202740D01*
X132588000Y-104395895D01*
X132594035Y-104399080D01*
X132588000Y-104402265D01*
X132588000Y-105595420D01*
X133781814Y-105595420D01*
X133902481Y-105365529D01*
X133805157Y-105091168D01*
X133656178Y-104841065D01*
X133461269Y-104624832D01*
X133227920Y-104450779D01*
X133119379Y-104399080D01*
X133227920Y-104347381D01*
X133461269Y-104173328D01*
X133656178Y-103957095D01*
X133805157Y-103706992D01*
X133902481Y-103432631D01*
X133781814Y-103202740D01*
X132588000Y-103202740D01*
X132334000Y-103202740D01*
X132314000Y-103202740D01*
X132314000Y-102948740D01*
X132334000Y-102948740D01*
X132334000Y-101755585D01*
X132323840Y-101750223D01*
X132323840Y-100578920D01*
X132577840Y-100578920D01*
X132577840Y-101772075D01*
X132588000Y-101777437D01*
X132588000Y-102948740D01*
X133781814Y-102948740D01*
X133902481Y-102718849D01*
X133805157Y-102444488D01*
X133656178Y-102194385D01*
X133461269Y-101978152D01*
X133227920Y-101804099D01*
X133138296Y-101761410D01*
X133217760Y-101723561D01*
X133451109Y-101549508D01*
X133646018Y-101333275D01*
X133794997Y-101083172D01*
X133892321Y-100808811D01*
X133771654Y-100578920D01*
X132577840Y-100578920D01*
X132323840Y-100578920D01*
X132303840Y-100578920D01*
X132303840Y-100324920D01*
X132323840Y-100324920D01*
X132323840Y-99131765D01*
X132305772Y-99122230D01*
X132323840Y-99112695D01*
X132323840Y-97919540D01*
X132577840Y-97919540D01*
X132577840Y-99112695D01*
X132595908Y-99122230D01*
X132577840Y-99131765D01*
X132577840Y-100324920D01*
X133771654Y-100324920D01*
X133892321Y-100095029D01*
X133794997Y-99820668D01*
X133646018Y-99570565D01*
X133451109Y-99354332D01*
X133217760Y-99180279D01*
X133095887Y-99122230D01*
X133217760Y-99064181D01*
X133451109Y-98890128D01*
X133646018Y-98673895D01*
X133794997Y-98423792D01*
X133892321Y-98149431D01*
X133771654Y-97919540D01*
X132577840Y-97919540D01*
X132323840Y-97919540D01*
X132303840Y-97919540D01*
X132303840Y-97665540D01*
X132323840Y-97665540D01*
X132323840Y-96472385D01*
X132320211Y-96470470D01*
X132323840Y-96468555D01*
X132323840Y-95275400D01*
X132577840Y-95275400D01*
X132577840Y-96468555D01*
X132581469Y-96470470D01*
X132577840Y-96472385D01*
X132577840Y-97665540D01*
X133771654Y-97665540D01*
X133892321Y-97435649D01*
X133794997Y-97161288D01*
X133646018Y-96911185D01*
X133451109Y-96694952D01*
X133217760Y-96520899D01*
X133111885Y-96470470D01*
X133217760Y-96420041D01*
X133451109Y-96245988D01*
X133646018Y-96029755D01*
X133794997Y-95779652D01*
X133892321Y-95505291D01*
X133771654Y-95275400D01*
X132577840Y-95275400D01*
X132323840Y-95275400D01*
X132303840Y-95275400D01*
X132303840Y-95021400D01*
X132323840Y-95021400D01*
X132323840Y-93828245D01*
X132300692Y-93816029D01*
X132313680Y-93809175D01*
X132313680Y-92616020D01*
X132567680Y-92616020D01*
X132567680Y-93809175D01*
X132590828Y-93821391D01*
X132577840Y-93828245D01*
X132577840Y-95021400D01*
X133771654Y-95021400D01*
X133892321Y-94791509D01*
X133794997Y-94517148D01*
X133646018Y-94267045D01*
X133451109Y-94050812D01*
X133217760Y-93876759D01*
X133090807Y-93816290D01*
X133207600Y-93760661D01*
X133440949Y-93586608D01*
X133635858Y-93370375D01*
X133784837Y-93120272D01*
X133882161Y-92845911D01*
X133761494Y-92616020D01*
X132567680Y-92616020D01*
X132313680Y-92616020D01*
X132293680Y-92616020D01*
X132293680Y-92362020D01*
X132313680Y-92362020D01*
X132313680Y-91168865D01*
X132307645Y-91165680D01*
X132313680Y-91162495D01*
X132313680Y-89969340D01*
X132567680Y-89969340D01*
X132567680Y-91162495D01*
X132573715Y-91165680D01*
X132567680Y-91168865D01*
X132567680Y-92362020D01*
X133761494Y-92362020D01*
X133882161Y-92132129D01*
X133784837Y-91857768D01*
X133635858Y-91607665D01*
X133440949Y-91391432D01*
X133207600Y-91217379D01*
X133099059Y-91165680D01*
X133207600Y-91113981D01*
X133440949Y-90939928D01*
X133635858Y-90723695D01*
X133784837Y-90473592D01*
X133882161Y-90199231D01*
X133761494Y-89969340D01*
X132567680Y-89969340D01*
X132313680Y-89969340D01*
X132293680Y-89969340D01*
X132293680Y-89715340D01*
X132313680Y-89715340D01*
X132313680Y-88522185D01*
X132307645Y-88519000D01*
X132313680Y-88515815D01*
X132313680Y-87322660D01*
X132567680Y-87322660D01*
X132567680Y-88515815D01*
X132573715Y-88519000D01*
X132567680Y-88522185D01*
X132567680Y-89715340D01*
X133761494Y-89715340D01*
X133882161Y-89485449D01*
X133784837Y-89211088D01*
X133635858Y-88960985D01*
X133440949Y-88744752D01*
X133207600Y-88570699D01*
X133099059Y-88519000D01*
X133207600Y-88467301D01*
X133440949Y-88293248D01*
X133635858Y-88077015D01*
X133784837Y-87826912D01*
X133882161Y-87552551D01*
X133761494Y-87322660D01*
X132567680Y-87322660D01*
X132313680Y-87322660D01*
X132293680Y-87322660D01*
X132293680Y-87068660D01*
X132313680Y-87068660D01*
X132313680Y-85875505D01*
X132567680Y-85875505D01*
X132567680Y-87068660D01*
X133761494Y-87068660D01*
X133882161Y-86838769D01*
X133784837Y-86564408D01*
X133635858Y-86314305D01*
X133440949Y-86098072D01*
X133207600Y-85924019D01*
X133104139Y-85874740D01*
X133217760Y-85820621D01*
X133451109Y-85646568D01*
X133646018Y-85430335D01*
X133794997Y-85180232D01*
X133892321Y-84905871D01*
X133771654Y-84675980D01*
X132577840Y-84675980D01*
X132577840Y-85869135D01*
X132578795Y-85869639D01*
X132567680Y-85875505D01*
X132313680Y-85875505D01*
X132312725Y-85875001D01*
X132323840Y-85869135D01*
X132323840Y-84675980D01*
X132303840Y-84675980D01*
X132303840Y-84421980D01*
X132323840Y-84421980D01*
X132323840Y-83228825D01*
X132300980Y-83216761D01*
X132300980Y-82031840D01*
X132554980Y-82031840D01*
X132554980Y-83224995D01*
X132577840Y-83237059D01*
X132577840Y-84421980D01*
X133771654Y-84421980D01*
X133892321Y-84192089D01*
X133794997Y-83917728D01*
X133646018Y-83667625D01*
X133451109Y-83451392D01*
X133217760Y-83277339D01*
X133100455Y-83221466D01*
X133194900Y-83176481D01*
X133428249Y-83002428D01*
X133623158Y-82786195D01*
X133772137Y-82536092D01*
X133869461Y-82261731D01*
X133748794Y-82031840D01*
X132554980Y-82031840D01*
X132300980Y-82031840D01*
X132280980Y-82031840D01*
X132280980Y-81777840D01*
X132300980Y-81777840D01*
X132300980Y-80584685D01*
X132257577Y-80561780D01*
X132298440Y-80540215D01*
X132298440Y-79347060D01*
X132552440Y-79347060D01*
X132552440Y-80540215D01*
X132595843Y-80563120D01*
X132554980Y-80584685D01*
X132554980Y-81777840D01*
X133748794Y-81777840D01*
X133869461Y-81547949D01*
X133772137Y-81273588D01*
X133623158Y-81023485D01*
X133428249Y-80807252D01*
X133194900Y-80633199D01*
X133045094Y-80561845D01*
X133192360Y-80491701D01*
X133425709Y-80317648D01*
X133620618Y-80101415D01*
X133769597Y-79851312D01*
X133866921Y-79576951D01*
X133746254Y-79347060D01*
X132552440Y-79347060D01*
X132298440Y-79347060D01*
X132278440Y-79347060D01*
X132278440Y-79093060D01*
X132298440Y-79093060D01*
X132298440Y-77899905D01*
X132261120Y-77880210D01*
X132298440Y-77860515D01*
X132298440Y-76667360D01*
X132552440Y-76667360D01*
X132552440Y-77860515D01*
X132589760Y-77880210D01*
X132552440Y-77899905D01*
X132552440Y-79093060D01*
X133746254Y-79093060D01*
X133866921Y-78863169D01*
X133769597Y-78588808D01*
X133620618Y-78338705D01*
X133425709Y-78122472D01*
X133192360Y-77948419D01*
X133049157Y-77880210D01*
X133192360Y-77812001D01*
X133425709Y-77637948D01*
X133620618Y-77421715D01*
X133769597Y-77171612D01*
X133866921Y-76897251D01*
X133746254Y-76667360D01*
X132552440Y-76667360D01*
X132298440Y-76667360D01*
X132278440Y-76667360D01*
X132278440Y-76413360D01*
X132298440Y-76413360D01*
X132298440Y-75220205D01*
X132273153Y-75206860D01*
X132298440Y-75193515D01*
X132298440Y-74000360D01*
X132552440Y-74000360D01*
X132552440Y-75193515D01*
X132577727Y-75206860D01*
X132552440Y-75220205D01*
X132552440Y-76413360D01*
X133746254Y-76413360D01*
X133866921Y-76183469D01*
X133769597Y-75909108D01*
X133620618Y-75659005D01*
X133425709Y-75442772D01*
X133192360Y-75268719D01*
X133062488Y-75206860D01*
X133192360Y-75145001D01*
X133425709Y-74970948D01*
X133620618Y-74754715D01*
X133769597Y-74504612D01*
X133866921Y-74230251D01*
X133746254Y-74000360D01*
X132552440Y-74000360D01*
X132298440Y-74000360D01*
X132278440Y-74000360D01*
X132278440Y-73746360D01*
X132298440Y-73746360D01*
X132298440Y-72553205D01*
X132265933Y-72536050D01*
X132298440Y-72518895D01*
X132298440Y-71325740D01*
X132552440Y-71325740D01*
X132552440Y-72518895D01*
X132584947Y-72536050D01*
X132552440Y-72553205D01*
X132552440Y-73746360D01*
X133746254Y-73746360D01*
X133866921Y-73516469D01*
X133769597Y-73242108D01*
X133620618Y-72992005D01*
X133425709Y-72775772D01*
X133192360Y-72601719D01*
X133054489Y-72536050D01*
X133192360Y-72470381D01*
X133425709Y-72296328D01*
X133620618Y-72080095D01*
X133769597Y-71829992D01*
X133866921Y-71555631D01*
X133746254Y-71325740D01*
X132552440Y-71325740D01*
X132298440Y-71325740D01*
X132278440Y-71325740D01*
X132278440Y-71071740D01*
X132298440Y-71071740D01*
X132298440Y-69878585D01*
X132552440Y-69878585D01*
X132552440Y-71071740D01*
X133746254Y-71071740D01*
X133866921Y-70841849D01*
X133769597Y-70567488D01*
X133620618Y-70317385D01*
X133425709Y-70101152D01*
X133192360Y-69927099D01*
X132929539Y-69801915D01*
X132782330Y-69757264D01*
X132552440Y-69878585D01*
X132298440Y-69878585D01*
X132068550Y-69757264D01*
X131921341Y-69801915D01*
X131658520Y-69927099D01*
X131425171Y-70101152D01*
X131230262Y-70317385D01*
X131160635Y-70434274D01*
X131038915Y-70252108D01*
X130832072Y-70045265D01*
X130588851Y-69882750D01*
X130318598Y-69770808D01*
X130031700Y-69713740D01*
X129739180Y-69713740D01*
X129452282Y-69770808D01*
X129182029Y-69882750D01*
X128938808Y-70045265D01*
X128806953Y-70177120D01*
X128784942Y-70104560D01*
X128725977Y-69994246D01*
X128646625Y-69897555D01*
X128549934Y-69818203D01*
X128439620Y-69759238D01*
X128319922Y-69722928D01*
X128195440Y-69710668D01*
X126495440Y-69710668D01*
X126370958Y-69722928D01*
X126251260Y-69759238D01*
X126140946Y-69818203D01*
X126044255Y-69897555D01*
X125964903Y-69994246D01*
X125905938Y-70104560D01*
X125869628Y-70224258D01*
X125857368Y-70348740D01*
X125857368Y-71612010D01*
X122488998Y-74980381D01*
X122460000Y-75004179D01*
X122436202Y-75033177D01*
X122436201Y-75033178D01*
X122365026Y-75119904D01*
X122294454Y-75251934D01*
X122275374Y-75314836D01*
X122253519Y-75386885D01*
X122250998Y-75395195D01*
X122236324Y-75544180D01*
X122240001Y-75581512D01*
X122240000Y-84685198D01*
X120937201Y-85987998D01*
X120826252Y-85987998D01*
X120985000Y-85829250D01*
X120988072Y-85540000D01*
X120975812Y-85415518D01*
X120939502Y-85295820D01*
X120880537Y-85185506D01*
X120801185Y-85088815D01*
X120721406Y-85023342D01*
X120727962Y-85017962D01*
X120838405Y-84883387D01*
X120920472Y-84729851D01*
X120971008Y-84563255D01*
X120988072Y-84390001D01*
X120988072Y-83739999D01*
X120971008Y-83566745D01*
X120920472Y-83400149D01*
X120838405Y-83246613D01*
X120727962Y-83112038D01*
X120593387Y-83001595D01*
X120439851Y-82919528D01*
X120410000Y-82910473D01*
X120410000Y-81713711D01*
X120453937Y-81669774D01*
X120567205Y-81500256D01*
X120645226Y-81311898D01*
X120685000Y-81111939D01*
X120685000Y-80908061D01*
X120645226Y-80708102D01*
X120585062Y-80562855D01*
X120593387Y-80558405D01*
X120727962Y-80447962D01*
X120838405Y-80313387D01*
X120920472Y-80159851D01*
X120971008Y-79993255D01*
X120988072Y-79820001D01*
X120988072Y-79169999D01*
X120971008Y-78996745D01*
X120920472Y-78830149D01*
X120838405Y-78676613D01*
X120727962Y-78542038D01*
X120640184Y-78470000D01*
X120727962Y-78397962D01*
X120838405Y-78263387D01*
X120920472Y-78109851D01*
X120971008Y-77943255D01*
X120988072Y-77770001D01*
X120988072Y-77119999D01*
X120971008Y-76946745D01*
X120920472Y-76780149D01*
X120838405Y-76626613D01*
X120727962Y-76492038D01*
X120593387Y-76381595D01*
X120439851Y-76299528D01*
X120273255Y-76248992D01*
X120100001Y-76231928D01*
X119199999Y-76231928D01*
X119026745Y-76248992D01*
X118860149Y-76299528D01*
X118706613Y-76381595D01*
X118572038Y-76492038D01*
X118475229Y-76610000D01*
X118284771Y-76610000D01*
X118187962Y-76492038D01*
X118053387Y-76381595D01*
X117899851Y-76299528D01*
X117733255Y-76248992D01*
X117560001Y-76231928D01*
X116659999Y-76231928D01*
X116486745Y-76248992D01*
X116320149Y-76299528D01*
X116166613Y-76381595D01*
X116032038Y-76492038D01*
X115935229Y-76610000D01*
X115744771Y-76610000D01*
X115647962Y-76492038D01*
X115513387Y-76381595D01*
X115359851Y-76299528D01*
X115193255Y-76248992D01*
X115020001Y-76231928D01*
X114440785Y-76231928D01*
X114301188Y-76189582D01*
X114137500Y-76173460D01*
X113973812Y-76189582D01*
X113816414Y-76237328D01*
X113671355Y-76314864D01*
X113544210Y-76419210D01*
X113439864Y-76546355D01*
X113425674Y-76572903D01*
X113395229Y-76610000D01*
X113204771Y-76610000D01*
X113107962Y-76492038D01*
X112973387Y-76381595D01*
X112819851Y-76299528D01*
X112653255Y-76248992D01*
X112480001Y-76231928D01*
X111579999Y-76231928D01*
X111406745Y-76248992D01*
X111240149Y-76299528D01*
X111086613Y-76381595D01*
X110952038Y-76492038D01*
X110855229Y-76610000D01*
X110664771Y-76610000D01*
X110567962Y-76492038D01*
X110433387Y-76381595D01*
X110279851Y-76299528D01*
X110113255Y-76248992D01*
X109940001Y-76231928D01*
X109039999Y-76231928D01*
X108866745Y-76248992D01*
X108700149Y-76299528D01*
X108546613Y-76381595D01*
X108412038Y-76492038D01*
X108301595Y-76626613D01*
X108219528Y-76780149D01*
X108168992Y-76946745D01*
X108151928Y-77119999D01*
X108151928Y-77602205D01*
X107438574Y-78315559D01*
X107406710Y-78341709D01*
X107332943Y-78431595D01*
X107302364Y-78468855D01*
X107224828Y-78613914D01*
X107177082Y-78771312D01*
X107160960Y-78935000D01*
X107165001Y-78976029D01*
X107165000Y-95958981D01*
X107160960Y-96000000D01*
X107165000Y-96041018D01*
X107165001Y-96041028D01*
X107165000Y-101334131D01*
X106485000Y-102014132D01*
X106485000Y-101993740D01*
X106427932Y-101706842D01*
X106315990Y-101436589D01*
X106153475Y-101193368D01*
X105946632Y-100986525D01*
X105772240Y-100870000D01*
X105946632Y-100753475D01*
X106153475Y-100546632D01*
X106315990Y-100303411D01*
X106427932Y-100033158D01*
X106485000Y-99746260D01*
X106485000Y-99453740D01*
X106427932Y-99166842D01*
X106315990Y-98896589D01*
X106153475Y-98653368D01*
X105946632Y-98446525D01*
X105772240Y-98330000D01*
X105946632Y-98213475D01*
X106153475Y-98006632D01*
X106315990Y-97763411D01*
X106427932Y-97493158D01*
X106485000Y-97206260D01*
X106485000Y-96913740D01*
X106427932Y-96626842D01*
X106315990Y-96356589D01*
X106153475Y-96113368D01*
X105946632Y-95906525D01*
X105764466Y-95784805D01*
X105881355Y-95715178D01*
X106097588Y-95520269D01*
X106271641Y-95286920D01*
X106396825Y-95024099D01*
X106441476Y-94876890D01*
X106320155Y-94647000D01*
X105127000Y-94647000D01*
X105127000Y-94667000D01*
X104873000Y-94667000D01*
X104873000Y-94647000D01*
X104853000Y-94647000D01*
X104853000Y-94393000D01*
X104873000Y-94393000D01*
X104873000Y-94373000D01*
X105127000Y-94373000D01*
X105127000Y-94393000D01*
X106320155Y-94393000D01*
X106441476Y-94163110D01*
X106396825Y-94015901D01*
X106271641Y-93753080D01*
X106097588Y-93519731D01*
X105881355Y-93324822D01*
X105764466Y-93255195D01*
X105946632Y-93133475D01*
X106153475Y-92926632D01*
X106315990Y-92683411D01*
X106427932Y-92413158D01*
X106485000Y-92126260D01*
X106485000Y-91833740D01*
X106427932Y-91546842D01*
X106315990Y-91276589D01*
X106153475Y-91033368D01*
X105946632Y-90826525D01*
X105772240Y-90710000D01*
X105946632Y-90593475D01*
X106153475Y-90386632D01*
X106315990Y-90143411D01*
X106427932Y-89873158D01*
X106485000Y-89586260D01*
X106485000Y-89293740D01*
X106427932Y-89006842D01*
X106315990Y-88736589D01*
X106153475Y-88493368D01*
X105946632Y-88286525D01*
X105772240Y-88170000D01*
X105946632Y-88053475D01*
X106153475Y-87846632D01*
X106315990Y-87603411D01*
X106427932Y-87333158D01*
X106485000Y-87046260D01*
X106485000Y-86753740D01*
X106427932Y-86466842D01*
X106315990Y-86196589D01*
X106153475Y-85953368D01*
X105946632Y-85746525D01*
X105772240Y-85630000D01*
X105946632Y-85513475D01*
X106153475Y-85306632D01*
X106315990Y-85063411D01*
X106427932Y-84793158D01*
X106485000Y-84506260D01*
X106485000Y-84213740D01*
X106427932Y-83926842D01*
X106315990Y-83656589D01*
X106153475Y-83413368D01*
X105946632Y-83206525D01*
X105772240Y-83090000D01*
X105946632Y-82973475D01*
X106153475Y-82766632D01*
X106315990Y-82523411D01*
X106427932Y-82253158D01*
X106485000Y-81966260D01*
X106485000Y-81673740D01*
X106427932Y-81386842D01*
X106315990Y-81116589D01*
X106153475Y-80873368D01*
X105946632Y-80666525D01*
X105772240Y-80550000D01*
X105946632Y-80433475D01*
X106153475Y-80226632D01*
X106315990Y-79983411D01*
X106427932Y-79713158D01*
X106485000Y-79426260D01*
X106485000Y-79133740D01*
X106427932Y-78846842D01*
X106315990Y-78576589D01*
X106153475Y-78333368D01*
X105946632Y-78126525D01*
X105764466Y-78004805D01*
X105881355Y-77935178D01*
X106097588Y-77740269D01*
X106271641Y-77506920D01*
X106396825Y-77244099D01*
X106441476Y-77096890D01*
X106320155Y-76867000D01*
X105127000Y-76867000D01*
X105127000Y-76887000D01*
X104873000Y-76887000D01*
X104873000Y-76867000D01*
X104853000Y-76867000D01*
X104853000Y-76613000D01*
X104873000Y-76613000D01*
X104873000Y-75419186D01*
X105127000Y-75419186D01*
X105127000Y-76613000D01*
X106320155Y-76613000D01*
X106441476Y-76383110D01*
X106396825Y-76235901D01*
X106271641Y-75973080D01*
X106097588Y-75739731D01*
X105881355Y-75544822D01*
X105631252Y-75395843D01*
X105356891Y-75298519D01*
X105127000Y-75419186D01*
X104873000Y-75419186D01*
X104643109Y-75298519D01*
X104368748Y-75395843D01*
X104118645Y-75544822D01*
X103902412Y-75739731D01*
X103731100Y-75969406D01*
X103613475Y-75793368D01*
X103406632Y-75586525D01*
X103163411Y-75424010D01*
X102893158Y-75312068D01*
X102606260Y-75255000D01*
X102313740Y-75255000D01*
X102026842Y-75312068D01*
X101756589Y-75424010D01*
X101513368Y-75586525D01*
X101306525Y-75793368D01*
X101144010Y-76036589D01*
X101032068Y-76306842D01*
X100975000Y-76593740D01*
X100685000Y-76593740D01*
X100685000Y-71779872D01*
X101765000Y-71779872D01*
X101765000Y-72220128D01*
X101850890Y-72651925D01*
X102019369Y-73058669D01*
X102263962Y-73424729D01*
X102575271Y-73736038D01*
X102941331Y-73980631D01*
X103348075Y-74149110D01*
X103779872Y-74235000D01*
X104220128Y-74235000D01*
X104651925Y-74149110D01*
X105058669Y-73980631D01*
X105424729Y-73736038D01*
X105736038Y-73424729D01*
X105980631Y-73058669D01*
X106149110Y-72651925D01*
X106235000Y-72220128D01*
X106235000Y-71779872D01*
X106149110Y-71348075D01*
X105980631Y-70941331D01*
X105736038Y-70575271D01*
X105424729Y-70263962D01*
X105058669Y-70019369D01*
X104651925Y-69850890D01*
X104220128Y-69765000D01*
X103779872Y-69765000D01*
X103348075Y-69850890D01*
X102941331Y-70019369D01*
X102575271Y-70263962D01*
X102263962Y-70575271D01*
X102019369Y-70941331D01*
X101850890Y-71348075D01*
X101765000Y-71779872D01*
X100685000Y-71779872D01*
X100685000Y-71033505D01*
X100732312Y-70550984D01*
X100862714Y-70119070D01*
X101074524Y-69720715D01*
X101287158Y-69460000D01*
X107271928Y-69460000D01*
X107271928Y-71160000D01*
X107284188Y-71284482D01*
X107320498Y-71404180D01*
X107379463Y-71514494D01*
X107458815Y-71611185D01*
X107555506Y-71690537D01*
X107665820Y-71749502D01*
X107738380Y-71771513D01*
X107606525Y-71903368D01*
X107444010Y-72146589D01*
X107332068Y-72416842D01*
X107275000Y-72703740D01*
X107275000Y-72996260D01*
X107332068Y-73283158D01*
X107444010Y-73553411D01*
X107606525Y-73796632D01*
X107813368Y-74003475D01*
X108056589Y-74165990D01*
X108326842Y-74277932D01*
X108613740Y-74335000D01*
X108906260Y-74335000D01*
X109193158Y-74277932D01*
X109463411Y-74165990D01*
X109706632Y-74003475D01*
X109913475Y-73796632D01*
X110030000Y-73622240D01*
X110146525Y-73796632D01*
X110353368Y-74003475D01*
X110596589Y-74165990D01*
X110866842Y-74277932D01*
X111153740Y-74335000D01*
X111446260Y-74335000D01*
X111733158Y-74277932D01*
X112003411Y-74165990D01*
X112246632Y-74003475D01*
X112453475Y-73796632D01*
X112615990Y-73553411D01*
X112727932Y-73283158D01*
X112785000Y-72996260D01*
X112785000Y-72703740D01*
X112727932Y-72416842D01*
X112615990Y-72146589D01*
X112453475Y-71903368D01*
X112321620Y-71771513D01*
X112394180Y-71749502D01*
X112504494Y-71690537D01*
X112601185Y-71611185D01*
X112680537Y-71514494D01*
X112739502Y-71404180D01*
X112775812Y-71284482D01*
X112788072Y-71160000D01*
X112788072Y-69460000D01*
X112775812Y-69335518D01*
X112739502Y-69215820D01*
X112680537Y-69105506D01*
X112601185Y-69008815D01*
X112504494Y-68929463D01*
X112394180Y-68870498D01*
X112274482Y-68834188D01*
X112150000Y-68821928D01*
X110450000Y-68821928D01*
X110325518Y-68834188D01*
X110205820Y-68870498D01*
X110095506Y-68929463D01*
X110030000Y-68983222D01*
X109964494Y-68929463D01*
X109854180Y-68870498D01*
X109734482Y-68834188D01*
X109610000Y-68821928D01*
X107910000Y-68821928D01*
X107785518Y-68834188D01*
X107665820Y-68870498D01*
X107555506Y-68929463D01*
X107458815Y-69008815D01*
X107379463Y-69105506D01*
X107320498Y-69215820D01*
X107284188Y-69335518D01*
X107271928Y-69460000D01*
X101287158Y-69460000D01*
X101359675Y-69371086D01*
X101707303Y-69083503D01*
X102104177Y-68868914D01*
X102535161Y-68735502D01*
X103015654Y-68685000D01*
X132966495Y-68685000D01*
X133254782Y-68713267D01*
G36*
X123339980Y-105414782D02*
G01*
X123339981Y-107902638D01*
X123339980Y-107902648D01*
X123339980Y-108180038D01*
X123336304Y-108217360D01*
X123339980Y-108254682D01*
X123339980Y-108254693D01*
X123350977Y-108366346D01*
X123394434Y-108509607D01*
X123465006Y-108641636D01*
X123559979Y-108757361D01*
X123588981Y-108781163D01*
X125905628Y-111097810D01*
X125905628Y-111878480D01*
X125917888Y-112002962D01*
X125954198Y-112122660D01*
X126013163Y-112232974D01*
X126092515Y-112329665D01*
X126189206Y-112409017D01*
X126299520Y-112467982D01*
X126419218Y-112504292D01*
X126543700Y-112516552D01*
X128243700Y-112516552D01*
X128368182Y-112504292D01*
X128487880Y-112467982D01*
X128598194Y-112409017D01*
X128694885Y-112329665D01*
X128774237Y-112232974D01*
X128833202Y-112122660D01*
X128855213Y-112050100D01*
X128987068Y-112181955D01*
X129165001Y-112300846D01*
X129165000Y-116259878D01*
X128939710Y-116304691D01*
X128278182Y-116578705D01*
X127682823Y-116976511D01*
X127176511Y-117482823D01*
X126778705Y-118078182D01*
X126742744Y-118165000D01*
X122488072Y-118165000D01*
X122488072Y-118150000D01*
X122475812Y-118025518D01*
X122439502Y-117905820D01*
X122380537Y-117795506D01*
X122301185Y-117698815D01*
X122204494Y-117619463D01*
X122094180Y-117560498D01*
X122021620Y-117538487D01*
X122153475Y-117406632D01*
X122315990Y-117163411D01*
X122427932Y-116893158D01*
X122485000Y-116606260D01*
X122485000Y-116313740D01*
X122427932Y-116026842D01*
X122315990Y-115756589D01*
X122153475Y-115513368D01*
X121946632Y-115306525D01*
X121772240Y-115190000D01*
X121946632Y-115073475D01*
X122153475Y-114866632D01*
X122315990Y-114623411D01*
X122427932Y-114353158D01*
X122485000Y-114066260D01*
X122485000Y-113773740D01*
X122427932Y-113486842D01*
X122315990Y-113216589D01*
X122153475Y-112973368D01*
X121946632Y-112766525D01*
X121772240Y-112650000D01*
X121946632Y-112533475D01*
X122153475Y-112326632D01*
X122315990Y-112083411D01*
X122427932Y-111813158D01*
X122485000Y-111526260D01*
X122485000Y-111233740D01*
X122427932Y-110946842D01*
X122315990Y-110676589D01*
X122153475Y-110433368D01*
X121946632Y-110226525D01*
X121772240Y-110110000D01*
X121946632Y-109993475D01*
X122153475Y-109786632D01*
X122315990Y-109543411D01*
X122427932Y-109273158D01*
X122485000Y-108986260D01*
X122485000Y-108693740D01*
X122427932Y-108406842D01*
X122315990Y-108136589D01*
X122153475Y-107893368D01*
X121946632Y-107686525D01*
X121764466Y-107564805D01*
X121881355Y-107495178D01*
X122097588Y-107300269D01*
X122271641Y-107066920D01*
X122396825Y-106804099D01*
X122441476Y-106656890D01*
X122320155Y-106427000D01*
X121127000Y-106427000D01*
X121127000Y-106447000D01*
X120873000Y-106447000D01*
X120873000Y-106427000D01*
X120853000Y-106427000D01*
X120853000Y-106173000D01*
X120873000Y-106173000D01*
X120873000Y-104979186D01*
X121127000Y-104979186D01*
X121127000Y-106173000D01*
X122320155Y-106173000D01*
X122441476Y-105943110D01*
X122396825Y-105795901D01*
X122271641Y-105533080D01*
X122097588Y-105299731D01*
X121881355Y-105104822D01*
X121631252Y-104955843D01*
X121356891Y-104858519D01*
X121127000Y-104979186D01*
X120873000Y-104979186D01*
X120643109Y-104858519D01*
X120368748Y-104955843D01*
X120118645Y-105104822D01*
X119902412Y-105299731D01*
X119728359Y-105533080D01*
X119603175Y-105795901D01*
X119558524Y-105943110D01*
X119679844Y-106172998D01*
X119515000Y-106172998D01*
X119515000Y-106280198D01*
X117998311Y-104763510D01*
X118000000Y-104763676D01*
X118037323Y-104760000D01*
X122685199Y-104760000D01*
X123339980Y-105414782D01*
G37*
X123339980Y-105414782D02*
X123339981Y-107902638D01*
X123339980Y-107902648D01*
X123339980Y-108180038D01*
X123336304Y-108217360D01*
X123339980Y-108254682D01*
X123339980Y-108254693D01*
X123350977Y-108366346D01*
X123394434Y-108509607D01*
X123465006Y-108641636D01*
X123559979Y-108757361D01*
X123588981Y-108781163D01*
X125905628Y-111097810D01*
X125905628Y-111878480D01*
X125917888Y-112002962D01*
X125954198Y-112122660D01*
X126013163Y-112232974D01*
X126092515Y-112329665D01*
X126189206Y-112409017D01*
X126299520Y-112467982D01*
X126419218Y-112504292D01*
X126543700Y-112516552D01*
X128243700Y-112516552D01*
X128368182Y-112504292D01*
X128487880Y-112467982D01*
X128598194Y-112409017D01*
X128694885Y-112329665D01*
X128774237Y-112232974D01*
X128833202Y-112122660D01*
X128855213Y-112050100D01*
X128987068Y-112181955D01*
X129165001Y-112300846D01*
X129165000Y-116259878D01*
X128939710Y-116304691D01*
X128278182Y-116578705D01*
X127682823Y-116976511D01*
X127176511Y-117482823D01*
X126778705Y-118078182D01*
X126742744Y-118165000D01*
X122488072Y-118165000D01*
X122488072Y-118150000D01*
X122475812Y-118025518D01*
X122439502Y-117905820D01*
X122380537Y-117795506D01*
X122301185Y-117698815D01*
X122204494Y-117619463D01*
X122094180Y-117560498D01*
X122021620Y-117538487D01*
X122153475Y-117406632D01*
X122315990Y-117163411D01*
X122427932Y-116893158D01*
X122485000Y-116606260D01*
X122485000Y-116313740D01*
X122427932Y-116026842D01*
X122315990Y-115756589D01*
X122153475Y-115513368D01*
X121946632Y-115306525D01*
X121772240Y-115190000D01*
X121946632Y-115073475D01*
X122153475Y-114866632D01*
X122315990Y-114623411D01*
X122427932Y-114353158D01*
X122485000Y-114066260D01*
X122485000Y-113773740D01*
X122427932Y-113486842D01*
X122315990Y-113216589D01*
X122153475Y-112973368D01*
X121946632Y-112766525D01*
X121772240Y-112650000D01*
X121946632Y-112533475D01*
X122153475Y-112326632D01*
X122315990Y-112083411D01*
X122427932Y-111813158D01*
X122485000Y-111526260D01*
X122485000Y-111233740D01*
X122427932Y-110946842D01*
X122315990Y-110676589D01*
X122153475Y-110433368D01*
X121946632Y-110226525D01*
X121772240Y-110110000D01*
X121946632Y-109993475D01*
X122153475Y-109786632D01*
X122315990Y-109543411D01*
X122427932Y-109273158D01*
X122485000Y-108986260D01*
X122485000Y-108693740D01*
X122427932Y-108406842D01*
X122315990Y-108136589D01*
X122153475Y-107893368D01*
X121946632Y-107686525D01*
X121764466Y-107564805D01*
X121881355Y-107495178D01*
X122097588Y-107300269D01*
X122271641Y-107066920D01*
X122396825Y-106804099D01*
X122441476Y-106656890D01*
X122320155Y-106427000D01*
X121127000Y-106427000D01*
X121127000Y-106447000D01*
X120873000Y-106447000D01*
X120873000Y-106427000D01*
X120853000Y-106427000D01*
X120853000Y-106173000D01*
X120873000Y-106173000D01*
X120873000Y-104979186D01*
X121127000Y-104979186D01*
X121127000Y-106173000D01*
X122320155Y-106173000D01*
X122441476Y-105943110D01*
X122396825Y-105795901D01*
X122271641Y-105533080D01*
X122097588Y-105299731D01*
X121881355Y-105104822D01*
X121631252Y-104955843D01*
X121356891Y-104858519D01*
X121127000Y-104979186D01*
X120873000Y-104979186D01*
X120643109Y-104858519D01*
X120368748Y-104955843D01*
X120118645Y-105104822D01*
X119902412Y-105299731D01*
X119728359Y-105533080D01*
X119603175Y-105795901D01*
X119558524Y-105943110D01*
X119679844Y-106172998D01*
X119515000Y-106172998D01*
X119515000Y-106280198D01*
X117998311Y-104763510D01*
X118000000Y-104763676D01*
X118037323Y-104760000D01*
X122685199Y-104760000D01*
X123339980Y-105414782D01*
G36*
X125872608Y-93339020D02*
G01*
X125884868Y-93463502D01*
X125921178Y-93583200D01*
X125980143Y-93693514D01*
X126059495Y-93790205D01*
X126099309Y-93822879D01*
X126069655Y-93847215D01*
X125990303Y-93943906D01*
X125931338Y-94054220D01*
X125895028Y-94173918D01*
X125882768Y-94298400D01*
X125882768Y-95561670D01*
X122279429Y-99165010D01*
X120060114Y-99165010D01*
X120060000Y-99148250D01*
X119901250Y-98989500D01*
X119413072Y-98989500D01*
X119413072Y-98735500D01*
X119901250Y-98735500D01*
X120060000Y-98576750D01*
X120063000Y-98134600D01*
X120052614Y-98009948D01*
X120018109Y-97889718D01*
X119972870Y-97801931D01*
X124525782Y-93249020D01*
X125872608Y-93249020D01*
X125872608Y-93339020D01*
G37*
X125872608Y-93339020D02*
X125884868Y-93463502D01*
X125921178Y-93583200D01*
X125980143Y-93693514D01*
X126059495Y-93790205D01*
X126099309Y-93822879D01*
X126069655Y-93847215D01*
X125990303Y-93943906D01*
X125931338Y-94054220D01*
X125895028Y-94173918D01*
X125882768Y-94298400D01*
X125882768Y-95561670D01*
X122279429Y-99165010D01*
X120060114Y-99165010D01*
X120060000Y-99148250D01*
X119901250Y-98989500D01*
X119413072Y-98989500D01*
X119413072Y-98735500D01*
X119901250Y-98735500D01*
X120060000Y-98576750D01*
X120063000Y-98134600D01*
X120052614Y-98009948D01*
X120018109Y-97889718D01*
X119972870Y-97801931D01*
X124525782Y-93249020D01*
X125872608Y-93249020D01*
X125872608Y-93339020D01*
G36*
X118473750Y-85988000D02*
G01*
X119523000Y-85988000D01*
X119523000Y-85968000D01*
X119777000Y-85968000D01*
X119777000Y-85988000D01*
X119797000Y-85988000D01*
X119797000Y-86242000D01*
X119777000Y-86242000D01*
X119777000Y-86255010D01*
X119523000Y-86255010D01*
X119523000Y-86242000D01*
X118473750Y-86242000D01*
X118460740Y-86255010D01*
X118299260Y-86255010D01*
X118286250Y-86242000D01*
X117237000Y-86242000D01*
X117237000Y-86255010D01*
X117037323Y-86255010D01*
X117000000Y-86251334D01*
X116992500Y-86252073D01*
X116984990Y-86251333D01*
X116983000Y-86251529D01*
X116983000Y-86242000D01*
X115933750Y-86242000D01*
X115840000Y-86335750D01*
X115746250Y-86242000D01*
X114697000Y-86242000D01*
X114697000Y-87166250D01*
X114855750Y-87325000D01*
X115270000Y-87328072D01*
X115394482Y-87315812D01*
X115514180Y-87279502D01*
X115624494Y-87220537D01*
X115721185Y-87141185D01*
X115800537Y-87044494D01*
X115840000Y-86970665D01*
X115879463Y-87044494D01*
X115880023Y-87045176D01*
X115496506Y-87428693D01*
X115467504Y-87452494D01*
X115375011Y-87565197D01*
X114163998Y-88776211D01*
X114135000Y-88800009D01*
X114111202Y-88829007D01*
X114111201Y-88829008D01*
X114040026Y-88915734D01*
X113969454Y-89047764D01*
X113955630Y-89093338D01*
X113925998Y-89191024D01*
X113924022Y-89211088D01*
X113911324Y-89340010D01*
X113915001Y-89377342D01*
X113915000Y-91765000D01*
X113897998Y-91765000D01*
X113897998Y-91853007D01*
X113860461Y-91832211D01*
X113793250Y-91765000D01*
X113700000Y-91775164D01*
X113606750Y-91765000D01*
X113539539Y-91832211D01*
X113462564Y-91874856D01*
X113375000Y-91948951D01*
X113287436Y-91874856D01*
X113210461Y-91832211D01*
X113143250Y-91765000D01*
X113050000Y-91775164D01*
X112956750Y-91765000D01*
X112889539Y-91832211D01*
X112812564Y-91874856D01*
X112717078Y-91955654D01*
X112698072Y-91979537D01*
X112696896Y-91978104D01*
X112652000Y-91941259D01*
X112652000Y-91923750D01*
X112493250Y-91765000D01*
X112391117Y-91776132D01*
X112356045Y-91787350D01*
X112318991Y-91776110D01*
X112175000Y-91761928D01*
X111975000Y-91761928D01*
X111831009Y-91776110D01*
X111750000Y-91800684D01*
X111668991Y-91776110D01*
X111525000Y-91761928D01*
X111325000Y-91761928D01*
X111181009Y-91776110D01*
X111100000Y-91800684D01*
X111018991Y-91776110D01*
X110875000Y-91761928D01*
X110675000Y-91761928D01*
X110531009Y-91776110D01*
X110392552Y-91818110D01*
X110264949Y-91886316D01*
X110153104Y-91978104D01*
X110061316Y-92089949D01*
X109993110Y-92217552D01*
X109951110Y-92356009D01*
X109936928Y-92500000D01*
X109936928Y-92882203D01*
X108835000Y-93984132D01*
X108835000Y-87327738D01*
X109204250Y-87325000D01*
X109363000Y-87166250D01*
X109363000Y-86242000D01*
X109617000Y-86242000D01*
X109617000Y-87166250D01*
X109775750Y-87325000D01*
X110190000Y-87328072D01*
X110314482Y-87315812D01*
X110434180Y-87279502D01*
X110544494Y-87220537D01*
X110641185Y-87141185D01*
X110720537Y-87044494D01*
X110760000Y-86970665D01*
X110799463Y-87044494D01*
X110878815Y-87141185D01*
X110975506Y-87220537D01*
X111085820Y-87279502D01*
X111205518Y-87315812D01*
X111330000Y-87328072D01*
X111744250Y-87325000D01*
X111903000Y-87166250D01*
X111903000Y-86242000D01*
X112157000Y-86242000D01*
X112157000Y-87166250D01*
X112315750Y-87325000D01*
X112730000Y-87328072D01*
X112854482Y-87315812D01*
X112974180Y-87279502D01*
X113084494Y-87220537D01*
X113181185Y-87141185D01*
X113260537Y-87044494D01*
X113300000Y-86970665D01*
X113339463Y-87044494D01*
X113418815Y-87141185D01*
X113515506Y-87220537D01*
X113625820Y-87279502D01*
X113745518Y-87315812D01*
X113870000Y-87328072D01*
X114284250Y-87325000D01*
X114443000Y-87166250D01*
X114443000Y-86242000D01*
X113393750Y-86242000D01*
X113300000Y-86335750D01*
X113206250Y-86242000D01*
X112157000Y-86242000D01*
X111903000Y-86242000D01*
X110853750Y-86242000D01*
X110760000Y-86335750D01*
X110666250Y-86242000D01*
X109617000Y-86242000D01*
X109363000Y-86242000D01*
X109343000Y-86242000D01*
X109343000Y-85988000D01*
X109363000Y-85988000D01*
X109363000Y-85968000D01*
X109617000Y-85968000D01*
X109617000Y-85988000D01*
X110666250Y-85988000D01*
X110760000Y-85894250D01*
X110853750Y-85988000D01*
X111903000Y-85988000D01*
X111903000Y-85968000D01*
X112157000Y-85968000D01*
X112157000Y-85988000D01*
X113206250Y-85988000D01*
X113300000Y-85894250D01*
X113393750Y-85988000D01*
X114443000Y-85988000D01*
X114443000Y-85968000D01*
X114697000Y-85968000D01*
X114697000Y-85988000D01*
X115746250Y-85988000D01*
X115840000Y-85894250D01*
X115933750Y-85988000D01*
X116983000Y-85988000D01*
X116983000Y-85968000D01*
X117237000Y-85968000D01*
X117237000Y-85988000D01*
X118286250Y-85988000D01*
X118380000Y-85894250D01*
X118473750Y-85988000D01*
G37*
X118473750Y-85988000D02*
X119523000Y-85988000D01*
X119523000Y-85968000D01*
X119777000Y-85968000D01*
X119777000Y-85988000D01*
X119797000Y-85988000D01*
X119797000Y-86242000D01*
X119777000Y-86242000D01*
X119777000Y-86255010D01*
X119523000Y-86255010D01*
X119523000Y-86242000D01*
X118473750Y-86242000D01*
X118460740Y-86255010D01*
X118299260Y-86255010D01*
X118286250Y-86242000D01*
X117237000Y-86242000D01*
X117237000Y-86255010D01*
X117037323Y-86255010D01*
X117000000Y-86251334D01*
X116992500Y-86252073D01*
X116984990Y-86251333D01*
X116983000Y-86251529D01*
X116983000Y-86242000D01*
X115933750Y-86242000D01*
X115840000Y-86335750D01*
X115746250Y-86242000D01*
X114697000Y-86242000D01*
X114697000Y-87166250D01*
X114855750Y-87325000D01*
X115270000Y-87328072D01*
X115394482Y-87315812D01*
X115514180Y-87279502D01*
X115624494Y-87220537D01*
X115721185Y-87141185D01*
X115800537Y-87044494D01*
X115840000Y-86970665D01*
X115879463Y-87044494D01*
X115880023Y-87045176D01*
X115496506Y-87428693D01*
X115467504Y-87452494D01*
X115375011Y-87565197D01*
X114163998Y-88776211D01*
X114135000Y-88800009D01*
X114111202Y-88829007D01*
X114111201Y-88829008D01*
X114040026Y-88915734D01*
X113969454Y-89047764D01*
X113955630Y-89093338D01*
X113925998Y-89191024D01*
X113924022Y-89211088D01*
X113911324Y-89340010D01*
X113915001Y-89377342D01*
X113915000Y-91765000D01*
X113897998Y-91765000D01*
X113897998Y-91853007D01*
X113860461Y-91832211D01*
X113793250Y-91765000D01*
X113700000Y-91775164D01*
X113606750Y-91765000D01*
X113539539Y-91832211D01*
X113462564Y-91874856D01*
X113375000Y-91948951D01*
X113287436Y-91874856D01*
X113210461Y-91832211D01*
X113143250Y-91765000D01*
X113050000Y-91775164D01*
X112956750Y-91765000D01*
X112889539Y-91832211D01*
X112812564Y-91874856D01*
X112717078Y-91955654D01*
X112698072Y-91979537D01*
X112696896Y-91978104D01*
X112652000Y-91941259D01*
X112652000Y-91923750D01*
X112493250Y-91765000D01*
X112391117Y-91776132D01*
X112356045Y-91787350D01*
X112318991Y-91776110D01*
X112175000Y-91761928D01*
X111975000Y-91761928D01*
X111831009Y-91776110D01*
X111750000Y-91800684D01*
X111668991Y-91776110D01*
X111525000Y-91761928D01*
X111325000Y-91761928D01*
X111181009Y-91776110D01*
X111100000Y-91800684D01*
X111018991Y-91776110D01*
X110875000Y-91761928D01*
X110675000Y-91761928D01*
X110531009Y-91776110D01*
X110392552Y-91818110D01*
X110264949Y-91886316D01*
X110153104Y-91978104D01*
X110061316Y-92089949D01*
X109993110Y-92217552D01*
X109951110Y-92356009D01*
X109936928Y-92500000D01*
X109936928Y-92882203D01*
X108835000Y-93984132D01*
X108835000Y-87327738D01*
X109204250Y-87325000D01*
X109363000Y-87166250D01*
X109363000Y-86242000D01*
X109617000Y-86242000D01*
X109617000Y-87166250D01*
X109775750Y-87325000D01*
X110190000Y-87328072D01*
X110314482Y-87315812D01*
X110434180Y-87279502D01*
X110544494Y-87220537D01*
X110641185Y-87141185D01*
X110720537Y-87044494D01*
X110760000Y-86970665D01*
X110799463Y-87044494D01*
X110878815Y-87141185D01*
X110975506Y-87220537D01*
X111085820Y-87279502D01*
X111205518Y-87315812D01*
X111330000Y-87328072D01*
X111744250Y-87325000D01*
X111903000Y-87166250D01*
X111903000Y-86242000D01*
X112157000Y-86242000D01*
X112157000Y-87166250D01*
X112315750Y-87325000D01*
X112730000Y-87328072D01*
X112854482Y-87315812D01*
X112974180Y-87279502D01*
X113084494Y-87220537D01*
X113181185Y-87141185D01*
X113260537Y-87044494D01*
X113300000Y-86970665D01*
X113339463Y-87044494D01*
X113418815Y-87141185D01*
X113515506Y-87220537D01*
X113625820Y-87279502D01*
X113745518Y-87315812D01*
X113870000Y-87328072D01*
X114284250Y-87325000D01*
X114443000Y-87166250D01*
X114443000Y-86242000D01*
X113393750Y-86242000D01*
X113300000Y-86335750D01*
X113206250Y-86242000D01*
X112157000Y-86242000D01*
X111903000Y-86242000D01*
X110853750Y-86242000D01*
X110760000Y-86335750D01*
X110666250Y-86242000D01*
X109617000Y-86242000D01*
X109363000Y-86242000D01*
X109343000Y-86242000D01*
X109343000Y-85988000D01*
X109363000Y-85988000D01*
X109363000Y-85968000D01*
X109617000Y-85968000D01*
X109617000Y-85988000D01*
X110666250Y-85988000D01*
X110760000Y-85894250D01*
X110853750Y-85988000D01*
X111903000Y-85988000D01*
X111903000Y-85968000D01*
X112157000Y-85968000D01*
X112157000Y-85988000D01*
X113206250Y-85988000D01*
X113300000Y-85894250D01*
X113393750Y-85988000D01*
X114443000Y-85988000D01*
X114443000Y-85968000D01*
X114697000Y-85968000D01*
X114697000Y-85988000D01*
X115746250Y-85988000D01*
X115840000Y-85894250D01*
X115933750Y-85988000D01*
X116983000Y-85988000D01*
X116983000Y-85968000D01*
X117237000Y-85968000D01*
X117237000Y-85988000D01*
X118286250Y-85988000D01*
X118380000Y-85894250D01*
X118473750Y-85988000D01*
G36*
X113522000Y-93264500D02*
G01*
X113228000Y-93264500D01*
X113228000Y-93010500D01*
X113522000Y-93010500D01*
X113522000Y-93264500D01*
G37*
X113522000Y-93264500D02*
X113228000Y-93264500D01*
X113228000Y-93010500D01*
X113522000Y-93010500D01*
X113522000Y-93264500D01*
%TD*%
M02*
