M48
; DRILL file {KiCad (5.1.6)-1} date 06/14/20 06:28:11
; FORMAT={-:-/ absolute / inch / decimal}
; #@! TF.CreationDate,2020-06-14T06:28:11-07:00
; #@! TF.GenerationSoftware,Kicad,Pcbnew,(5.1.6)-1
FMAT,2
INCH
T1C0.0157
T2C0.0315
T3C0.0394
T4C0.1772
T5C0.1260
%
G90
G05
T1
X4.2Y-2.95
X4.25Y-2.95
X4.3Y-2.95
X4.3Y-4.1
X4.3Y-5.0
X4.3Y-5.05
X4.3Y-5.1
X4.3106Y-3.1894
X4.35Y-2.95
X4.35Y-3.45
X4.35Y-3.5
X4.35Y-3.55
X4.35Y-3.6
X4.35Y-4.0
X4.35Y-4.95
X4.35Y-5.0
X4.35Y-5.05
X4.35Y-5.1
X4.4Y-2.95
X4.4Y-3.75
X4.4Y-4.9
X4.4Y-4.95
X4.4Y-5.0
X4.4Y-5.05
X4.4Y-5.1
X4.4106Y-3.1894
X4.45Y-2.95
X4.45Y-3.45
X4.45Y-3.5
X4.45Y-3.55
X4.45Y-3.6
X4.45Y-3.75
X4.45Y-4.85
X4.45Y-4.9
X4.45Y-4.95
X4.45Y-5.0
X4.45Y-5.05
X4.45Y-5.1
X4.5Y-2.75
X4.5Y-2.8
X4.5Y-2.85
X4.5Y-2.9
X4.5Y-2.95
X4.5Y-3.75
X4.5Y-4.85
X4.5Y-5.05
X4.5Y-5.1
X4.5106Y-3.1894
X4.55Y-2.75
X4.55Y-2.9
X4.55Y-2.95
X4.55Y-3.75
X4.55Y-4.85
X4.6Y-2.75
X4.6Y-2.9
X4.6Y-2.95
X4.6Y-3.75
X4.6Y-4.85
X4.6106Y-3.1894
X4.6457Y-4.5669
X4.6488Y-4.4488
X4.65Y-2.75
X4.65Y-2.9
X4.65Y-2.95
X4.65Y-4.85
X4.7Y-2.75
X4.7Y-2.9
X4.7Y-2.95
X4.7106Y-3.1894
X4.75Y-2.75
X4.75Y-2.85
X4.75Y-2.9
X4.75Y-2.95
X4.75Y-3.85
X4.7578Y-3.8922
X4.8Y-2.75
X4.8Y-2.8
X4.8Y-2.85
X4.8Y-2.9
X4.8Y-2.95
X4.8Y-3.8
X4.8Y-3.85
X4.8Y-5.2
X4.85Y-2.75
X4.85Y-2.8
X4.85Y-2.85
X4.85Y-2.9
X4.85Y-3.75
X4.85Y-3.8
X4.85Y-5.2
X4.9Y-2.75
X4.9Y-2.8
X4.9Y-2.85
X4.9Y-3.7
X4.9Y-3.75
X4.9Y-4.45
X4.9Y-4.5
X4.9Y-4.55
X4.9Y-4.6
X4.9Y-4.75
X4.9Y-4.8
X4.9Y-4.85
X4.9Y-5.1
X4.9Y-5.15
X4.9Y-5.2
X4.95Y-4.45
X4.95Y-4.5
X4.95Y-5.15
X4.95Y-5.2
X5.0Y-4.45
X5.0Y-4.5
X5.0Y-5.2
X5.05Y-4.45
X5.05Y-4.5
X5.15Y-4.45
X5.15Y-4.5
X5.2Y-4.45
X5.2Y-4.5
X5.25Y-4.45
X5.25Y-4.5
T2
X4.3016Y-4.25
X4.4Y-4.25
T3
X5.0146Y-3.746
X5.1146Y-3.746
X5.2146Y-3.746
X5.0136Y-3.0134
X5.1136Y-3.0134
X5.2136Y-3.0134
X5.0142Y-3.5371
X5.1142Y-3.5371
X5.2142Y-3.5371
X5.0137Y-3.2246
X5.1137Y-3.2246
X5.2137Y-3.2246
X5.0136Y-3.1189
X5.1136Y-3.1189
X5.2136Y-3.1189
X5.0142Y-3.6413
X5.1142Y-3.6413
X5.2142Y-3.6413
X5.0146Y-3.9548
X5.1146Y-3.9548
X5.2146Y-3.9548
X4.2819Y-2.7681
X4.2819Y-2.8681
X5.015Y-4.1623
X5.115Y-4.1623
X5.215Y-4.1623
X5.0136Y-2.9084
X5.1136Y-2.9084
X5.2136Y-2.9084
X4.3819Y-2.7681
X4.3819Y-2.8681
X5.0146Y-3.8501
X5.1146Y-3.8501
X5.2146Y-3.8501
X4.0339Y-3.0213
X4.0339Y-3.1213
X4.0339Y-3.2213
X4.0339Y-3.3213
X4.0339Y-3.4213
X4.0339Y-3.5213
X4.0339Y-3.6213
X4.0339Y-3.7213
X4.0339Y-3.8213
X4.0339Y-3.9213
X4.0339Y-4.0213
X4.0339Y-4.1213
X4.0339Y-4.2213
X4.0339Y-4.3213
X4.0339Y-4.4213
X4.0339Y-4.5213
X4.0339Y-4.6213
X4.0339Y-4.7213
X4.0339Y-4.8213
X4.0339Y-4.9213
X4.1339Y-3.0213
X4.1339Y-3.1213
X4.1339Y-3.2213
X4.1339Y-3.3213
X4.1339Y-3.4213
X4.1339Y-3.5213
X4.1339Y-3.6213
X4.1339Y-3.7213
X4.1339Y-3.8213
X4.1339Y-3.9213
X4.1339Y-4.0213
X4.1339Y-4.1213
X4.1339Y-4.2213
X4.1339Y-4.3213
X4.1339Y-4.4213
X4.1339Y-4.5213
X4.1339Y-4.6213
X4.1339Y-4.7213
X4.1339Y-4.8213
X4.1339Y-4.9213
X5.0155Y-4.267
X5.1155Y-4.267
X5.2155Y-4.267
X4.7638Y-4.185
X4.7638Y-4.285
X4.7638Y-4.385
X4.7638Y-4.485
X4.7638Y-4.585
X4.7638Y-4.685
X5.0155Y-4.3712
X5.1155Y-4.3712
X5.2155Y-4.3712
X5.015Y-4.0581
X5.115Y-4.0581
X5.215Y-4.0581
X5.0142Y-3.4329
X5.1142Y-3.4329
X5.2142Y-3.4329
X5.0146Y-3.3287
X5.1146Y-3.3287
X5.2146Y-3.3287
X5.0136Y-2.8031
X5.1136Y-2.8031
X5.2136Y-2.8031
T4
X5.1181Y-4.7165
X5.1181Y-5.0
T5
X4.0945Y-5.1181
X4.0945Y-2.8346
T3
G00X4.5669Y-4.9213
M15
G01X4.5669Y-5.0
M16
G05
G00X4.6457Y-5.1457
M15
G01X4.7244Y-5.1457
M16
G05
G00X4.8031Y-4.9213
M15
G01X4.8031Y-5.0
M16
G05
T0
M30
